<?xml version="1.0" encoding="UTF-8" standalone="no"?>
<!-- Generator: Adobe Illustrator 19.0.0, SVG Export Plug-In . SVG Version: 6.00 Build 0)  -->

<svg
   xmlns:dc="http://purl.org/dc/elements/1.1/"
   xmlns:cc="http://creativecommons.org/ns#"
   xmlns:rdf="http://www.w3.org/1999/02/22-rdf-syntax-ns#"
   xmlns:svg="http://www.w3.org/2000/svg"
   xmlns="http://www.w3.org/2000/svg"
   xmlns:sodipodi="http://sodipodi.sourceforge.net/DTD/sodipodi-0.dtd"
   xmlns:inkscape="http://www.inkscape.org/namespaces/inkscape"
   version="1.1"
   id="Capa_1"
   x="0px"
   y="0px"
   viewBox="0 0 100 100"
   style="enable-background:new 0 0 100 100;"
   xml:space="preserve"
   inkscape:version="0.91 r13725"
   sodipodi:docname="accountant.svg"><metadata
     id="metadata42"><rdf:RDF><cc:Work
         rdf:about=""><dc:format>image/svg+xml</dc:format><dc:type
           rdf:resource="http://purl.org/dc/dcmitype/StillImage" /></cc:Work></rdf:RDF></metadata><defs
     id="defs40" /><sodipodi:namedview
     pagecolor="#ffffff"
     bordercolor="#666666"
     borderopacity="1"
     objecttolerance="10"
     gridtolerance="10"
     guidetolerance="10"
     inkscape:pageopacity="0"
     inkscape:pageshadow="2"
     inkscape:window-width="1440"
     inkscape:window-height="897"
     id="namedview38"
     showgrid="false"
     inkscape:zoom="1.668772"
     inkscape:cx="90.399507"
     inkscape:cy="7.3656956"
     inkscape:window-x="-8"
     inkscape:window-y="-8"
     inkscape:window-maximized="1"
     inkscape:current-layer="Capa_1" /><g
     id="robot_1_"><g
       id="g4"><path
         style="clip-rule:evenodd;fill-rule:evenodd"
         d="m 99.97,84.638 0,-9.883 c -0.434,-1.543 -0.249,-3.704 -0.282,-5.646 -0.468,-0.286 -0.309,-1.2 -0.566,-1.694 -1.548,-2.952 -5.971,-3.835 -9.316,-2.823 -0.92,0.277 -1.587,0.149 -2.258,0.283 0.295,-2.074 -0.533,-3.922 0,-5.366 -0.707,-0.704 -0.533,-2.288 -0.847,-3.388 -2.536,-0.85 -6.104,-0.674 -8.752,-1.412 -6.589,-0.295 -11.198,0.579 -16.941,0.566 -0.03,-1.759 -0.471,-3.109 -0.282,-5.083 1.69,-0.286 3.674,-0.278 5.364,-0.564 1.232,0.197 1.59,-0.48 2.823,-0.282 0.859,-0.177 2.434,0.36 2.825,-0.282 0.956,0.64 1.369,1.827 3.386,1.412 0.257,-0.498 1.038,-0.467 1.129,-1.13 0.346,-0.504 0.054,-1.643 0.566,-1.977 l 0,-21.176 c 0.314,-1.85 1.276,-3.056 1.13,-5.362 -1.063,-1.95 -4.071,-1.956 -5.93,-3.108 -0.972,0.125 -1.584,-0.111 -2.258,-0.281 -11.634,-0.058 -22.231,0.919 -33.035,1.693 0.429,-2.122 -1.317,-2.068 -1.977,-3.106 0.51,-1.463 2.049,-1.901 1.977,-3.952 -0.04,-0.807 -1.179,-0.517 -1.977,-0.564 -0.318,-0.529 -1.094,-0.6 -1.411,-1.13 0.8,-0.985 2.112,-1.462 3.104,-2.259 0.944,-0.682 1.108,-2.92 0.567,-4.234 -3.223,-1.195 -7.062,0.471 -5.648,3.952 -1.468,0.32 -3.087,0.487 -2.822,2.541 0.066,1.155 1.177,1.269 2.26,1.413 0.414,0.902 2.031,0.6 2.821,1.13 -0.599,1.751 -3.192,1.511 -3.388,3.669 -0.008,0.948 0.389,1.494 0.848,1.976 0.243,0.348 1.815,0.782 1.129,1.13 -2.603,0.972 -6.249,0.901 -9.035,1.692 -1.394,2.842 -0.883,7.586 -1.41,11.296 l 0,9.316 c -0.227,2.396 -0.857,5.479 0,7.341 0.723,0.292 1.943,1.017 2.822,0.282 0.772,0.45 1.705,0.74 2.824,0.848 l 14.116,0 c 0.008,1.777 0.555,3.021 0.566,4.8 -2.828,0.098 -5.396,-0.067 -7.909,-0.283 -7.017,0.604 -12.594,2.649 -20.044,2.823 -0.048,0.329 -0.445,0.308 -0.849,0.28 -0.537,0.97 -2.076,0.934 -2.541,1.979 -0.289,2.408 1.25,4.331 0.85,5.927 -0.882,-0.343 -1.791,-0.656 -3.108,-0.562 -2.954,0.713 -5.279,2.059 -6.775,4.233 -1.191,3.89 -1.846,8.317 -1.694,13.552 0.526,0.698 0.289,2.155 0.848,2.823 0.16,0.496 -0.343,1.659 0.282,1.694 0.163,0.498 -0.342,1.659 0.282,1.694 0.435,2.197 0.344,4.927 2.54,5.363 3.011,-0.123 2.127,-3.39 1.415,-5.363 C 4.998,86.906 4.548,84.441 3.974,82.095 3.803,77.689 4.285,73.934 5.389,70.8 c 1.721,-1.381 4.272,-1.938 7.057,-2.257 0.538,4.072 1.455,7.769 1.978,11.858 -0.271,4.786 0.464,8.567 1.127,12.424 0.28,0.941 1.469,0.978 1.695,1.975 0.129,1.095 0.729,1.717 1.975,1.695 1.361,-0.051 1.857,-0.968 1.979,-2.26 l 0,-4.517 c -0.508,-0.812 -0.541,-2.095 -0.851,-3.106 -0.071,-7.83 -0.764,-15.045 -1.976,-21.738 4.695,-0.952 8.462,-2.834 13.27,-3.671 4.657,-1.085 10.524,-0.962 15.531,-1.695 9.895,-0.314 18.688,-0.666 28.797,-0.282 2.157,0.95 5.283,0.928 7.906,1.413 0.795,8.235 -0.238,18.304 0.562,26.539 l 0,4.799 c 0.404,1.293 0.372,3.017 1.977,3.106 1.706,-0.74 1.37,-3.526 1.414,-5.931 l 0,-22.021 c 3.236,0.153 7.496,-0.721 8.47,1.695 l 0,17.786 c -0.287,1.589 -0.944,5.021 1.13,5.084 1.71,0.113 2.41,-0.791 2.257,-2.544 0.202,-1.396 0.387,-2.81 0.283,-4.514 z M 55.642,50.757 C 54.8,50.35 53.921,51.746 53.95,50.475 l 3.669,0 c -0.085,1.778 0.045,3.343 0.281,4.8 -2.796,0.538 -1.46,-3.056 -2.258,-4.518 z m -0.283,-4.8 C 54.683,46.129 53.31,45.602 53.1,46.239 46.195,46.275 39.849,45.75 32.775,45.957 c -1.525,0.455 -3.947,0.008 -4.803,1.129 -0.792,-0.284 0.081,-1.198 0,-1.693 l 0,-6.776 c -0.128,-2.884 -0.425,-5.598 -0.281,-8.752 -0.324,-1.653 -0.318,-3.634 -0.282,-5.647 5.498,-0.056 9.771,-1.336 15.245,-1.411 5.546,0.086 10.874,-0.044 16.095,-0.282 0.455,0.079 0.484,-0.267 0.848,-0.282 4.53,0.269 10.296,-0.7 13.549,0.847 -1.551,6.146 -0.63,14.688 -0.562,21.738 -3.502,-0.017 -6.601,0.367 -9.599,0.85 -2.005,-0.215 -3.226,0.351 -5.085,0.281 l -2.541,0 z M 68.064,27.322 c -0.22,-0.061 -0.328,-0.234 -0.279,-0.564 -0.292,-0.742 -1.121,-0.951 -1.414,-1.693 -3.66,-1.622 -7.102,0.433 -7.621,3.671 0.101,2.06 0.153,4.174 1.129,5.364 4.807,1.886 8.492,-1.725 8.185,-6.778 z m -2.821,2.26 c -0.074,1.956 -2.055,3.332 -3.954,2.54 0.558,-1.777 2.621,-5.706 3.954,-2.54 z m -22.87,-1.413 c -0.812,-1.652 -3.378,-2.745 -5.932,-2.259 -1.078,0.206 -1.792,1.008 -2.54,1.412 0.017,0.487 -0.215,0.725 -0.564,0.847 0.044,1.739 -0.609,2.779 -0.562,4.52 0.415,0.051 0.255,0.681 0.281,1.128 0.353,0.115 0.574,0.364 0.562,0.848 1.016,0.583 1.949,1.252 3.39,1.41 1.557,0.054 2.599,-0.412 3.67,-0.846 1.277,-1.644 1.899,-3.935 1.695,-7.06 z m -3.107,5.366 c -1.139,0.492 -2.708,-0.047 -3.669,-0.564 0.252,-1.161 1.06,-1.764 1.129,-3.106 0.642,-0.488 1.577,-0.681 2.822,-0.566 0.317,1.269 0.558,3.364 -0.282,4.236 z m 19.763,3.387 c -2.004,-0.608 -4.323,0.432 -6.494,-0.282 -2.058,1.109 -4.153,0.491 -7.058,0.563 -0.603,0.526 -1.876,0.384 -2.259,1.13 -0.837,0.385 -1.235,1.21 -1.693,1.977 -0.168,1.582 0.149,2.673 0.566,3.67 1.719,1.395 5.059,0.683 7.339,0.283 3.729,-0.037 7.837,0.308 9.88,-1.411 1.178,-1.267 1.25,-5.022 -0.281,-5.93 z M 46.892,41.44 c -0.559,0.457 -2.055,0.908 -2.826,0.282 0.103,-1.593 1.395,-1.997 2.826,-2.26 z m 4.516,0 -1.697,0 c 0.229,-0.98 -0.417,-1.087 -0.28,-1.978 0.365,-0.39 1.226,-0.278 1.978,-0.28 l 0,2.258 z m 6.21,-0.283 c -0.913,0.577 -1.925,0.621 -3.105,0.283 l 0,-2.258 3.105,0 z M 32.775,77.578 c 3.498,-0.828 7.356,-1.301 11.29,-1.693 1.022,-4.989 -0.136,-10.206 -3.387,-11.857 l -4.801,0 c -3.371,1.237 -6.23,2.992 -8.754,5.082 -0.207,0.826 -0.682,1.388 -1.125,1.976 -0.051,0.423 0.099,1.044 -0.285,1.13 0.323,1.904 -0.539,3.869 0,5.082 1.528,0.88 4.432,-0.027 7.062,0.28 z m -4.517,-2.823 c -0.191,-1.599 0.256,-2.566 0.562,-3.671 1.546,-1.745 3.888,-2.7 5.929,-3.953 l 4.799,0 c 1.218,1.326 1.625,3.461 1.411,6.212 -1.002,-0.239 -1.689,0.818 -1.974,-0.283 -0.426,-0.422 -1.191,-0.504 -1.411,-1.129 -1.351,-0.146 -2.425,-1.786 -3.955,-0.847 -0.165,1.015 0.328,1.365 0.563,1.976 0.315,0.192 1.465,0.94 0.85,1.131 -1.838,0.61 -4.292,0.601 -6.774,0.564 z M 75.69,65.72 c -0.878,0.99 -0.881,2.418 -0.567,3.952 0.752,1.277 3.636,1.436 5.365,0.848 0.418,-0.996 0.734,-2.09 0.566,-3.671 C 80.18,65.58 77.335,64.492 75.69,65.72 Z m 3.105,3.107 c -0.734,0.17 -1.017,-0.114 -0.847,-0.847 0.264,0.301 1.04,0.087 0.847,0.847 z M 64.962,66.849 c -0.393,1.821 -0.495,4.241 0.562,5.365 1.181,0.7 3.174,0.592 5.08,0.565 1.459,-0.992 2.541,-2.356 2.26,-5.083 -1.215,-2.207 -6.114,-3.153 -7.902,-0.847 z m 2.822,2.26 c 0.374,-0.402 1.598,-0.402 1.977,0 0.155,0.682 -2.209,1.022 -1.977,0 z m -13.271,0.563 c 0.476,1.163 0.464,2.2 1.413,2.825 0.036,0.023 0.625,0.299 0.564,0.282 2.114,0.633 5.328,-0.774 5.646,-3.107 0.119,-1.437 -0.434,-2.2 -0.848,-3.105 -2.62,-2.054 -6.643,0.042 -6.775,3.105 z m 3.386,-0.563 0,-0.848 c 0.363,-0.388 1.688,-0.492 1.697,0.283 0.08,0.905 -1.237,1.027 -1.697,0.565 z m 36.141,0.563 c -1.825,-0.981 -3.782,0.105 -3.106,2.542 0.623,0.319 0.939,0.944 1.696,1.129 0.587,-0.354 1.189,-0.691 1.692,-1.129 -0.057,-0.883 0.191,-2.071 -0.282,-2.542 z M 7.361,75.603 c 0.894,0.387 0.943,0.061 1.978,0 0.988,-0.962 0.852,-2.377 0.282,-3.672 -2.108,-1.214 -3.083,1.985 -2.26,3.672 z m 46.588,7.622 c -0.619,0.606 -2.314,0.133 -2.823,0.849 -1.336,-0.112 -2.358,0.089 -3.39,0.281 -2.53,0.012 -4.484,0.597 -7.058,0.564 -2.047,0.4 -4.519,0.377 -6.777,0.565 -1.42,-0.195 -1.967,0.479 -3.385,0.283 -1.321,-0.002 -2.296,0.342 -2.259,1.694 0.938,1.332 3.337,0.847 5.361,0.847 l 6.213,0 c 2.859,-0.436 5.756,-0.833 9.036,-0.847 0.209,-0.638 1.582,-0.11 2.258,-0.283 0.333,-0.513 1.47,-0.223 1.975,-0.565 1.293,-0.401 3.015,-0.373 3.107,-1.975 -0.176,-1.047 -0.872,-1.576 -2.258,-1.413 z m 10.728,5.648 c 0.511,0.617 0.95,1.308 2.259,1.129 1.257,-0.438 1.82,-1.57 1.692,-3.389 -1.195,-2.594 -4.28,-0.634 -3.951,2.26 z m -21.741,1.693 c -1.814,0.16 -3.309,0.645 -5.081,0.847 l -3.388,0 c -0.996,0.415 -2.643,0.184 -3.388,0.849 1.342,0.446 2.99,0.584 4.518,0.846 l 6.776,0 c 1.818,-0.725 5.237,0.155 5.081,-2.541 -0.905,-1.375 -3.208,-0.026 -4.518,-10e-4 z"
         id="path6"
         inkscape:connector-curvature="0"
         sodipodi:nodetypes="cccccccccccccccccccccccccccccccccccccccccccccccccccccccccccccccccccccccccccccccccccccccccccccccccccccccccccccccccccccccccccccccccccccccccccccccccccccccccccccccccccccccccccccccccccccccccccccccccccccccccccccccccccccscccccccccccccccccc" /></g></g><g
     id="g8" /><g
     id="g10" /><g
     id="g12" /><g
     id="g14" /><g
     id="g16" /><g
     id="g18" /><g
     id="g20" /><g
     id="g22" /><g
     id="g24" /><g
     id="g26" /><g
     id="g28" /><g
     id="g30" /><g
     id="g32" /><g
     id="g34" /><g
     id="g36" /><path
     style="fill:#afdde9"
     d="M 11.543578,96.899701 C 11.213995,96.793557 10.314958,96.622915 9.5457186,96.520494 8.7764793,96.418074 8.0535701,96.240743 7.9392536,96.126427 7.8249372,96.012111 7.207535,95.679843 6.5672491,95.388056 5.926963,95.096268 5.3552394,94.780105 5.2967521,94.685471 c -0.058487,-0.09464 0.020896,-0.307935 0.1764065,-0.474 0.6990603,-0.746507 0.772088,-1.844433 0.2456615,-3.693373 C 5.5226541,89.829114 5.2137556,88.389007 5.0323788,87.31786 4.8510021,86.246713 4.5395976,84.63655 4.3403689,83.739721 3.634169,80.560759 3.9738167,75.352474 5.1319302,71.601625 5.3902291,70.765057 5.454232,70.68936 6.3021201,70.217633 c 0.4933204,-0.274461 1.3285731,-0.64356 1.8561173,-0.82022 1.1235197,-0.376235 4.0927316,-0.909849 4.2266346,-0.759592 0.05073,0.05693 0.173407,0.642824 0.27261,1.301991 0.0992,0.659167 0.442455,2.647905 0.762781,4.419417 0.90168,4.986591 0.919866,5.139788 0.969183,8.164687 0.04987,3.058693 0.158073,4.175678 0.77642,8.014875 l 0.398125,2.471878 0.799832,0.749054 c 0.806821,0.755599 1.270254,1.678282 0.901811,1.795483 -0.09848,0.03133 -0.583547,0.189494 -1.077922,0.351486 -0.494376,0.16199 -1.202232,0.3849 -1.573013,0.495355 -0.370782,0.110456 -0.907501,0.319535 -1.19271,0.464622 -0.590977,0.300634 -1.023841,0.308246 -1.878411,0.03303 z M 9.3764745,75.56424 c 0.1526053,-0.01244 0.5530411,-0.832845 0.6455475,-1.32259 0.124423,-0.65872 -0.1647492,-1.943253 -0.5166921,-2.295196 -0.6060469,-0.606047 -1.7512688,-0.153087 -2.174607,0.860104 -0.2373283,0.568006 -0.2732677,1.95696 -0.064823,2.505211 0.1620497,0.426224 0.5561498,0.527598 1.4312737,0.368166 0.3295837,-0.06004 0.6352691,-0.112107 0.6793007,-0.115695 z"
     id="path3384"
     inkscape:connector-curvature="0" /><path
     style="fill:#afdde9"
     d="m 54.339339,99.281704 c -0.851524,-0.115644 -1.795332,-0.32058 -2.097351,-0.455416 -0.30202,-0.134834 -0.953615,-0.297494 -1.447991,-0.361465 -0.494375,-0.06397 -1.235939,-0.184108 -1.647918,-0.266972 -0.991911,-0.199509 -4.97279,-0.214132 -5.093566,-0.01871 -0.05092,0.0824 -0.355897,0.149811 -0.677719,0.149811 -0.431807,0 -0.627149,-0.07851 -0.745483,-0.299622 -0.21352,-0.398965 -0.809052,-0.383496 -1.195256,0.03105 -0.300534,0.322585 -0.380818,0.329629 -3.28444,0.288145 -2.749219,-0.03928 -3.060581,-0.01634 -4.079736,0.300509 -0.770609,0.239579 -1.442214,0.338525 -2.226943,0.328088 -1.822313,-0.02424 -5.560686,-0.500496 -6.217146,-0.792047 -0.329584,-0.146377 -1.091275,-0.384194 -1.692647,-0.528483 -1.122282,-0.269271 -1.834924,-0.726408 -2.658811,-1.705543 -0.34992,-0.415855 -0.368788,-0.505375 -0.215811,-1.023888 0.104352,-0.353697 0.147205,-1.473056 0.113518,-2.965163 -0.0447,-1.979986 -0.122002,-2.657589 -0.444355,-3.89508 C 20.388813,86.766007 20.326199,86.154686 20.252015,83.42278 20.108259,78.128802 19.651133,73.00326 18.869152,67.917367 18.660117,66.557834 18.47689,65.322489 18.46198,65.172155 c -0.02232,-0.225038 0.224358,-0.338366 1.396095,-0.641398 0.782762,-0.202436 2.906329,-0.834343 4.719039,-1.404239 4.197707,-1.319711 4.561216,-1.419859 6.807372,-1.875449 2.572063,-0.521693 4.517637,-0.757955 9.222379,-1.119923 2.22469,-0.17116 4.550502,-0.376203 5.168472,-0.45565 1.896724,-0.243845 8.797553,-0.453085 17.82748,-0.540547 9.196724,-0.08908 12.051952,0.01863 13.874433,0.52337 0.779064,0.215764 5.56102,0.918321 6.250558,0.918321 0.237875,0 0.303008,1.99775 0.420052,12.883725 0.124665,11.594663 0.290165,18.897223 0.436737,19.270612 0.112294,0.286062 -0.929285,1.845512 -1.943385,2.909639 -0.980702,1.029077 -1.04658,1.064146 -3.083549,1.641483 -0.329584,0.09341 -1.441929,0.161692 -2.471878,0.151731 -1.029949,-0.01 -4.01857,-0.01449 -6.641379,-0.01007 -4.747329,0.008 -4.771549,0.0097 -5.393187,0.366155 -0.343444,0.196958 -0.79298,0.408513 -0.99897,0.470123 -0.20599,0.06161 -0.590722,0.27664 -0.854961,0.477848 -0.474239,0.361115 -0.508041,0.364517 -2.621688,0.263799 -1.973778,-0.09405 -2.193982,-0.07774 -2.815403,0.208567 -0.770159,0.354832 -1.259012,0.365042 -3.420858,0.07144 l 0,5e-6 z m -9.762488,-6.52982 c 2.09529,-0.320966 2.846404,-0.813911 2.846404,-1.868053 0,-0.387942 -0.09002,-0.533705 -0.441993,-0.715719 -0.576588,-0.298166 -0.9904,-0.288302 -2.379451,0.05672 -0.631697,0.156904 -1.55303,0.331429 -2.047406,0.387835 -0.494375,0.0564 -1.539305,0.239087 -2.322066,0.405961 -0.86057,0.18346 -2.459632,0.353937 -4.044891,0.431227 -2.748804,0.13402 -3.969904,0.286798 -4.719039,0.59042 l -0.449432,0.182153 0.374527,0.130713 c 0.20599,0.07189 1.11609,0.263032 2.022445,0.424754 1.430055,0.255168 2.182677,0.287296 5.692809,0.243024 2.529144,-0.0319 4.578208,-0.132712 5.468093,-0.26903 z m 22.696356,-2.96216 c 0.743248,-0.359799 1.1992,-1.103952 1.344354,-2.194098 0.362655,-2.723636 -2.894021,-2.910648 -3.795569,-0.217959 -0.310296,0.926778 -0.219615,1.454104 0.347594,2.021312 0.451237,0.451239 0.702343,0.576347 1.344695,0.669979 0.07698,0.01122 0.418498,-0.114435 0.758926,-0.279234 z M 41.50573,88.061461 c 2.911247,-0.386185 4.316187,-0.516398 5.585263,-0.517656 0.776965,-7.49e-4 1.447635,-0.08767 1.79422,-0.232484 0.384066,-0.160473 0.783815,-0.202753 1.306032,-0.138133 0.542158,0.06709 0.878218,0.02729 1.201995,-0.142349 0.247188,-0.129508 0.604767,-0.235886 0.79462,-0.236394 0.509098,-0.0013 3.000792,-0.726844 3.404203,-0.99117 1.259327,-0.825141 0.293167,-2.783111 -1.25947,-2.552377 -1.347677,0.200274 -2.938856,0.560893 -3.07483,0.696867 -0.08204,0.08204 -0.577745,0.149164 -1.101566,0.149164 -0.523822,0 -1.403586,0.0635 -1.95503,0.141108 -0.551446,0.07761 -2.216095,0.247472 -3.699222,0.377474 -1.483126,0.130001 -3.370742,0.309073 -4.194701,0.397937 -0.823959,0.08886 -2.947527,0.256094 -4.719039,0.371623 -6.482709,0.422762 -6.649249,0.450341 -7.127566,1.180345 -0.499533,0.762384 0.04478,1.480878 1.285172,1.696429 1.117489,0.194193 9.915534,0.04428 11.759919,-0.200384 z M 34.914057,77.133877 c 1.671206,-0.324747 4.890233,-0.780078 7.838136,-1.1087 0.685555,-0.07642 1.270813,-0.163302 1.300576,-0.193064 0.194721,-0.194721 0.400392,-2.974204 0.319609,-4.319288 -0.19422,-3.233939 -1.271595,-5.77834 -2.978119,-7.033332 l -0.621704,-0.457206 -2.479816,0.0029 -2.479818,0.0029 -1.516996,0.6481 c -2.543925,1.086832 -7.246933,4.110516 -7.246933,4.659239 0,0.109815 -0.227985,0.538449 -0.506634,0.952519 -0.508771,0.75603 -0.673023,1.322861 -0.745613,2.573091 -0.02153,0.370781 -0.09309,1.389754 -0.159018,2.264383 -0.06593,0.87463 -0.07565,1.729581 -0.0216,1.89989 0.177902,0.56052 0.723857,0.630901 4.204359,0.542 2.575123,-0.06578 3.688953,-0.160574 5.093566,-0.433518 z m 24.537778,-4.573575 c 0.995816,-0.372583 1.964639,-1.184597 2.376448,-1.991808 0.424694,-0.832468 0.330701,-2.261459 -0.220124,-3.346639 -0.51831,-1.021121 -1.265295,-1.403201 -2.734227,-1.398549 -2.078828,0.0066 -3.836201,1.339634 -4.263456,3.234031 -0.128021,0.567626 0.343294,2.258861 0.818622,2.937487 0.619666,0.884696 2.473174,1.145244 4.022737,0.565478 z m 11.632564,-0.142235 c 1.550564,-1.104099 2.354664,-3.978698 1.446137,-5.169837 -0.793632,-1.040505 -3.115839,-1.848168 -4.859328,-1.690074 -0.851577,0.07722 -2.191288,0.629157 -2.536353,1.044935 -0.277099,0.333883 -0.522347,2.32487 -0.412604,3.34963 0.12417,1.159479 0.610651,2.16661 1.176172,2.434959 0.574349,0.272537 2.181935,0.459121 3.562189,0.413444 0.909722,-0.03011 1.236308,-0.107148 1.623787,-0.383057 z m 8.586597,-1.732688 c 0.815944,-0.103136 1.009521,-0.3563 1.29165,-1.689258 0.303367,-1.433303 0.230856,-2.008951 -0.318855,-2.531324 -0.903638,-0.858697 -1.696288,-1.160526 -3.059608,-1.165053 -1.39309,-0.0046 -1.873306,0.227969 -2.333347,1.130164 -0.293155,0.574913 -0.366246,2.543119 -0.118627,3.194406 0.262839,0.691319 2.152902,1.345473 3.451684,1.194633 0.20599,-0.02392 0.695186,-0.08403 1.087103,-0.133568 z"
     id="path3386"
     inkscape:connector-curvature="0" /><path
     style="fill:#afdde9"
     d="m 91.392713,95.562692 c -0.0824,-0.02706 -0.654874,-0.204697 -1.272173,-0.394736 -1.302497,-0.400982 -2.640055,-1.086599 -2.584395,-1.324729 0.26895,-1.150654 0.330476,-3.818339 0.333047,-14.440548 l 0.003,-12.259693 3.258384,0.05148 c 3.020728,0.04772 3.30379,0.07566 3.880919,0.383011 0.342394,0.182342 0.763736,0.51104 0.936317,0.73044 0.310494,0.39473 0.313797,0.492493 0.315228,9.3299 9.58e-4,5.908259 -0.05779,9.412677 -0.173574,10.354191 -0.209208,1.701211 -0.08877,2.691399 0.397681,3.269511 0.332009,0.39457 0.341782,0.454283 0.138481,0.846146 -0.120305,0.231889 -0.706479,0.908671 -1.302608,1.503961 -0.596129,0.595289 -1.19357,1.21717 -1.327647,1.381959 -0.152859,0.187872 -0.516033,0.33704 -0.97377,0.399962 -0.401497,0.05519 -0.898531,0.126899 -1.104521,0.159351 -0.205989,0.03245 -0.441941,0.03686 -0.524337,0.0098 l 0,-3e-6 z m 2.136803,-22.780456 0.784506,-0.528317 0,-1.054544 c 0,-0.58 -0.06469,-1.175418 -0.143754,-1.323152 -0.223502,-0.417618 -1.360032,-0.681364 -2.010728,-0.466614 -0.866683,0.286031 -1.291583,0.92144 -1.288889,1.927447 0.0023,0.848365 0.0037,0.850943 0.76801,1.411708 0.421154,0.308984 0.842372,0.56179 0.936041,0.56179 0.09367,0 0.523335,-0.237743 0.954814,-0.528318 z"
     id="path3388"
     inkscape:connector-curvature="0" /><path
     style="fill:#afdde9"
     d="m 27.715826,46.932025 c -0.05495,-0.08891 -0.01741,-0.456274 0.08341,-0.816375 0.217067,-0.775287 0.12969,-8.424665 -0.168509,-14.752108 -0.102903,-2.183492 -0.191622,-4.677841 -0.197153,-5.542998 l -0.01006,-1.573013 1.83141,-0.10796 c 1.007276,-0.05938 3.670162,-0.352782 5.917525,-0.65201 l 4.086115,-0.54405 8.389402,-0.13327 c 4.614171,-0.0733 9.130966,-0.209209 10.037321,-0.302024 0.906355,-0.09281 3.933761,-0.196248 6.727568,-0.229854 5.23274,-0.06294 6.939602,0.06223 8.236259,0.604009 l 0.490786,0.205063 -0.265188,1.309859 c -0.506398,2.501276 -0.630931,5.074192 -0.529332,10.936233 0.05284,3.048649 0.140001,6.436244 0.193693,7.52799 l 0.09762,1.984993 -1.258558,0.0013 c -1.571313,0.0016 -4.197611,0.224845 -6.352125,0.539954 -0.906355,0.132559 -1.984992,0.232602 -2.396972,0.222316 -0.41198,-0.01029 -1.355787,0.05094 -2.097351,0.136051 -2.915916,0.334677 -11.814642,0.437218 -20.762481,0.239248 -6.081646,-0.134557 -6.424493,-0.12199 -10.017442,0.367211 -0.56041,0.0763 -1.141001,0.259956 -1.379684,0.436422 -0.475527,0.351572 -0.521224,0.361532 -0.656263,0.143033 l 0,-6.8e-5 z m 20.531388,-2.474932 c 0.722112,-0.126178 2.251133,-0.209498 3.846787,-0.209621 4.010053,-3e-4 5.956231,-0.373664 7.076909,-1.357631 1.248887,-1.096539 1.33566,-4.582728 0.141929,-5.702181 -0.37397,-0.350702 -0.425191,-0.356026 -3.425198,-0.356026 -1.675052,0 -3.089567,-0.04386 -3.143366,-0.09748 -0.0538,-0.05361 -0.480912,0.04615 -0.949141,0.221689 -0.76801,0.287929 -1.115228,0.315998 -3.54792,0.28681 -2.478895,-0.02974 -2.771921,-0.0048 -3.629672,0.308733 -1.159236,0.423758 -2.391404,1.462604 -2.867361,2.417487 -0.302319,0.606523 -0.340051,0.84209 -0.255121,1.592769 0.158358,1.3997 0.4968,2.354057 0.937131,2.642573 0.981328,0.642991 3.064065,0.733561 5.815023,0.252873 z m -8.892068,-8.744619 c 1.280481,-0.397018 1.498153,-0.576829 2.046387,-1.690451 0.640557,-1.301156 0.935025,-2.685567 0.947501,-4.454586 0.01221,-1.730955 -0.14593,-2.066536 -1.328497,-2.819145 -2.143916,-1.364432 -5.08336,-1.216062 -6.637124,0.335013 -0.891367,0.889823 -0.968154,1.035867 -1.149083,2.185484 -0.09703,0.61654 -0.25638,1.614389 -0.354107,2.217441 -0.132181,0.815663 -0.134292,1.139852 -0.0082,1.265901 0.09319,0.09319 0.169442,0.391911 0.169442,0.663818 0,0.271907 0.06568,0.494376 0.145964,0.494376 0.08028,0 0.252798,0.206594 0.383373,0.459099 0.175028,0.338466 0.557758,0.614016 1.456577,1.048675 1.072594,0.518695 1.348803,0.589576 2.297441,0.589576 0.650898,0 1.455636,-0.117003 2.030369,-0.295201 z M 64.20206,34.275656 c 1.520115,-0.502745 2.816652,-1.907764 3.447607,-3.736074 0.372645,-1.079806 0.57105,-3.126873 0.318205,-3.28314 -0.09369,-0.05791 -0.171194,-0.219282 -0.172222,-0.358612 -0.0033,-0.447143 -1.610203,-1.953584 -2.296738,-2.153143 -0.93136,-0.270723 -2.596156,-0.232188 -3.50829,0.08121 -1.040949,0.357654 -2.30221,1.513877 -2.800584,2.567352 -0.315283,0.666451 -0.380262,1.020947 -0.375938,2.050932 0.0065,1.548486 0.330066,3.418615 0.701996,4.057342 0.154915,0.266041 0.469333,0.574381 0.698707,0.685199 1.01188,0.488873 2.666411,0.525778 3.987257,0.08894 z"
     id="path3390"
     inkscape:connector-curvature="0" /><path
     style="fill:#afdde9"
     d="m 56.570914,55.071094 c -0.387993,-0.314326 -0.599721,-1.139106 -0.605707,-2.359519 -0.0024,-0.494376 -0.07681,-1.159621 -0.165305,-1.478322 -0.151813,-0.546751 -0.187704,-0.574562 -0.63586,-0.492716 -0.261231,0.04771 -0.626649,0.130936 -0.812039,0.184951 -0.251055,0.07315 -0.337075,0.0364 -0.337075,-0.14398 0,-0.209416 0.240159,-0.242189 1.77471,-0.242189 l 1.77471,0 0.0949,2.059898 c 0.0522,1.132944 0.137832,2.211581 0.190303,2.396972 0.08593,0.303602 0.04325,0.337074 -0.429812,0.337074 -0.288868,0 -0.670839,-0.117976 -0.848826,-0.262169 z"
     id="path3392"
     inkscape:connector-curvature="0" /><path
     style="fill:#ffcc00"
     d="m 37.054409,33.534683 c -1.543027,-0.430233 -1.603861,-0.539858 -0.978966,-1.764142 0.219398,-0.42984 0.478708,-1.051186 0.576246,-1.380769 0.217417,-0.73466 0.663476,-0.983476 1.947941,-1.08658 1.068547,-0.08577 1.028631,-0.1391 1.205779,1.610917 0.100716,0.994951 -0.06515,1.962426 -0.417989,2.4381 -0.267676,0.360862 -1.380937,0.447935 -2.333011,0.182474 z"
     id="path3394"
     inkscape:connector-curvature="0" /><path
     style="fill:#ffcc00"
     d="m 61.818517,32.276847 c -0.544332,-0.119977 -0.533288,-0.299648 0.100536,-1.635578 0.535095,-1.127836 1.573794,-2.273943 2.06084,-2.273943 0.189853,0 0.539087,0.213015 0.790526,0.482181 0.39413,0.421918 0.441231,0.563742 0.376868,1.134771 -0.166837,1.480171 -1.827034,2.623571 -3.32877,2.292569 z"
     id="path3396"
     inkscape:connector-curvature="0" /><path
     style="fill:#ff2a2a"
     d="m 58.197065,69.260995 c -0.516531,-0.20762 -0.471126,-1.000456 0.06906,-1.205834 0.514587,-0.195645 1.038938,-0.06739 1.236925,0.302554 0.20499,0.383028 0.04532,0.75017 -0.39985,0.919425 -0.426745,0.162248 -0.463965,0.161585 -0.906133,-0.01615 z"
     id="path3398"
     inkscape:connector-curvature="0" /><path
     style="fill:#00ff00"
     d="m 68.231102,69.747758 c -0.337505,-0.08125 -0.46862,-0.209836 -0.46862,-0.459577 0,-0.294618 0.266536,-0.45107 0.842704,-0.494653 0.761261,-0.05758 1.338718,0.226017 1.136744,0.558277 -0.182468,0.30017 -1.008955,0.516773 -1.510828,0.395953 z"
     id="path3410"
     inkscape:connector-curvature="0" /><path
     style="fill:#ff0000"
     d="m 78.039713,68.752143 c -0.121001,-0.145798 -0.185365,-0.482372 -0.115584,-0.604423 0.09973,-0.17443 0.83379,0.123137 0.893823,0.36233 0.02455,0.0978 0.02261,0.213441 -0.0043,0.256981 -0.06853,0.110877 -0.67932,0.09913 -0.773944,-0.01489 z"
     id="path3412"
     inkscape:connector-curvature="0" /><path
     style="fill:#f2f2f2"
     d="m 28.229676,74.057014 c 0,-0.748568 0.09964,-1.328002 0.406588,-2.364416 0.180603,-0.609806 0.211588,-0.65835 0.733675,-1.149425 0.698396,-0.656911 1.811628,-1.39471 3.691134,-2.446314 0.823959,-0.461014 1.53013,-0.868646 1.569268,-0.905848 0.03932,-0.03738 1.151131,-0.06764 2.48515,-0.06764 l 2.41399,0 0.229315,0.278198 c 0.859239,1.042406 1.385322,3.270825 1.238486,5.246073 l -0.05151,0.692875 -0.297145,0 c -0.163431,0 -0.508055,0.0562 -0.765833,0.124888 -0.548298,0.1461 -0.698543,0.108183 -0.817138,-0.206221 -0.06409,-0.169919 -0.246193,-0.32693 -0.690303,-0.595205 -0.331782,-0.20042 -0.64743,-0.446967 -0.701438,-0.547882 -0.05989,-0.111898 -0.189831,-0.200841 -0.333075,-0.227979 -0.129184,-0.02447 -0.684995,-0.272175 -1.235135,-0.550447 -0.93579,-0.47334 -1.032343,-0.505965 -1.498108,-0.506216 -0.295102,-1.59e-4 -0.589367,0.04576 -0.722568,0.112746 -0.206863,0.104036 -0.226538,0.148413 -0.247643,0.558583 -0.02023,0.393122 0.01063,0.510827 0.262168,0.999999 0.165729,0.322295 0.379184,0.618659 0.509813,0.707832 0.351774,0.240137 0.786506,0.67438 0.786506,0.785622 0,0.401304 -2.616059,0.767482 -5.483066,0.767482 l -1.483134,0 0,-0.706704 z"
     id="path3414"
     inkscape:connector-curvature="0" /><path
     style="fill:#f2f2f2"
     d="m 44.572189,41.95904 c -0.455542,-0.13823 -0.528742,-0.217379 -0.474932,-0.513535 0.125386,-0.690105 0.602682,-1.265022 1.303265,-1.569821 0.273875,-0.119154 1.242503,-0.388895 1.404476,-0.391116 0.07017,-9.62e-4 0.09363,0.242943 0.09363,0.973588 l 0,0.974871 -0.243443,0.149956 c -0.574225,0.353713 -1.566353,0.532828 -2.082998,0.376057 z"
     id="path3416"
     inkscape:connector-curvature="0" /><path
     style="fill:#f2f2f2"
     d="m 49.745034,41.096523 c 0,-0.183865 -0.06908,-0.509571 -0.153522,-0.723789 -0.09099,-0.230847 -0.144383,-0.514191 -0.131084,-0.695648 0.02018,-0.275335 0.04883,-0.31516 0.284606,-0.395563 0.144193,-0.04917 0.573963,-0.09131 0.955044,-0.09363 l 0.692875,-0.0042 0,1.123581 0,1.123581 -0.823959,0 -0.82396,0 0,-0.334302 z"
     id="path3418"
     inkscape:connector-curvature="0" /><path
     style="fill:#f2f2f2"
     d="m 54.988411,41.554686 -0.41198,-0.08641 -0.02068,-1.142307 -0.02068,-1.142307 1.537511,0 1.537511,0 0,0.998419 0,0.998418 -0.3558,0.162019 c -0.690233,0.314306 -1.442896,0.384782 -2.265888,0.212167 z"
     id="path3420"
     inkscape:connector-curvature="0" /></svg>