<?xml version="1.0" encoding="UTF-8" standalone="no"?>
<!-- Generator: Adobe Illustrator 19.0.0, SVG Export Plug-In . SVG Version: 6.00 Build 0)  -->

<svg
   xmlns:dc="http://purl.org/dc/elements/1.1/"
   xmlns:cc="http://creativecommons.org/ns#"
   xmlns:rdf="http://www.w3.org/1999/02/22-rdf-syntax-ns#"
   xmlns:svg="http://www.w3.org/2000/svg"
   xmlns="http://www.w3.org/2000/svg"
   xmlns:sodipodi="http://sodipodi.sourceforge.net/DTD/sodipodi-0.dtd"
   xmlns:inkscape="http://www.inkscape.org/namespaces/inkscape"
   version="1.1"
   id="Capa_1"
   x="0px"
   y="0px"
   viewBox="0 0 116.001 116.001"
   style="enable-background:new 0 0 116.001 116.001;"
   xml:space="preserve"
   inkscape:version="0.91 r13725"
   sodipodi:docname="architect.svg"><metadata
     id="metadata42"><rdf:RDF><cc:Work
         rdf:about=""><dc:format>image/svg+xml</dc:format><dc:type
           rdf:resource="http://purl.org/dc/dcmitype/StillImage" /></cc:Work></rdf:RDF></metadata><defs
     id="defs40" /><sodipodi:namedview
     pagecolor="#ffffff"
     bordercolor="#666666"
     borderopacity="1"
     objecttolerance="10"
     gridtolerance="10"
     guidetolerance="10"
     inkscape:pageopacity="0"
     inkscape:pageshadow="2"
     inkscape:window-width="1440"
     inkscape:window-height="897"
     id="namedview38"
     showgrid="false"
     inkscape:zoom="1.4385842"
     inkscape:cx="54.367825"
     inkscape:cy="83.382792"
     inkscape:window-x="-8"
     inkscape:window-y="-8"
     inkscape:window-maximized="1"
     inkscape:current-layer="Capa_1" /><g
     id="_x0A_scientist"><g
       id="g4"><path
         style="fill-rule:evenodd;clip-rule:evenodd;"
         d="M102.851,90.05c-0.964-1.113-2.024-2.112-3.316-2.869    c-2.928-1.711-5.845-3.441-8.729-5.225c-1.337-0.827-2.748-1.638-3.829-2.746c-0.987-1.015-2.056-1.72-3.319-2.249    c-3.336-1.396-6.644-2.863-10.007-4.192c-1.104-0.437-2.01-0.946-2.573-2.021c-0.261-0.496-0.717-0.891-0.97-1.389    c-1.934-3.806-2.145-7.631,0.447-11.186c3.683-5.051,6.688-10.48,9.444-16.063c0.61-2.75,2.247-4.011,5.097-3.522    c0.108,0.019,0.225-0.022,0.336-0.027c1.103-0.051,1.946-0.593,2.558-1.462c0.389-0.55,0.768-1.147,0.965-1.782    c0.729-2.371,1.507-4.737,2.021-7.158c0.349-1.65,0.38-3.414-0.863-4.843c-0.645-0.741-0.424-1.396-0.03-2.159    c1.772-3.433,2.94-7.088,3.915-10.813c0.412-1.572,0.387-3.108,0.056-4.688c-0.439-2.085-1.673-3.442-3.646-4.087    c-1.712-0.561-3.462-1.014-5.212-1.452c-0.534-0.133-1.136-0.149-1.681-0.062c-2.008,0.315-4.041,0.562-5.992,1.103    c-1.256,0.349-2.243,0.488-3.461-0.227c-0.804-0.472-1.963-0.427-2.966-0.453C65.43,0.331,59.817,0.762,54.219,1.737    C48.802,2.684,43.74,4.47,39.015,7.245c-0.573,0.337-1.215,0.713-1.569,1.242c-0.729,1.091-1.656,1.05-2.682,0.722    c-2.893-0.926-5.777-0.664-8.693-0.101c-3.294,0.636-6.058,2.473-8.987,3.904c-1.408,0.688-2.488,2.005-3.037,3.544    c-1.327,3.73-1.744,7.572-0.016,11.23c1.741,3.688,4.028,7.07,7.366,9.578c0.645,0.484,1.304,0.953,1.533,1.75    c0.446,1.561,1.61,2.376,2.937,3.101c1.09,0.593,2.204,1.195,3.145,1.986c0.963,0.808,1.829,1.634,3.133,1.907    c0.489,0.103,0.962,0.596,1.305,1.021c0.632,0.789,1.188,1.646,1.732,2.502c1.515,2.383,2.933,4.832,4.534,7.156    c1.407,2.046,2.914,4.041,4.548,5.908c2.342,2.674,3.058,5.988,3.979,9.237c0.193,0.688-0.024,1.322-0.594,1.829    c-1.691,1.508-3.413,2.979-5.434,4.038c-2.012,1.056-3.89,2.291-5.622,3.77c-1.285,1.097-2.722,1.97-4.293,2.661    c-3.427,1.507-6.517,3.619-9.683,5.596c-1.19,0.742-1.718,1.729-1.623,3.104c0.055,0.788,0.027,1.585,0.106,2.372    c0.131,1.262,0.61,2.407,1.389,3.409c0.506,0.652,1.147,1.125,2.037,0.939c0.931-0.194,1.203-0.926,1.315-1.757    c0.01-0.073,0.023-0.147,0.035-0.22c-0.023-0.009-0.046-0.019-0.07-0.027c-0.24-0.23-0.48-0.46-0.72-0.69    c0-0.054,0.004-0.108,0.007-0.163c-0.144-0.104-0.306-0.2-0.37-0.34c-0.062-0.141,0.045-0.357,0.077-0.541    c0.096,0.138,0.241,0.264,0.279,0.416c0.034,0.147,0.023,0.307,0.014,0.465c0.029,0.021,0.06,0.041,0.086,0.062    c0.238,0.234,0.478,0.47,0.715,0.704c-0.006,0.038-0.012,0.076-0.018,0.114c1.182,0.45,2.38,1.42,3.461-0.238    c0.257-0.395,0.592,0.05,0.894,0.099c0.33,0.053,0.665,0.13,0.991,0.11c0.732-0.044,1.25-0.864,0.917-1.444    c-0.62-1.078-1.283-2.131-1.898-3.212c-0.161-0.283-0.225-0.626-0.299-0.951c-0.016-0.071,0.099-0.194,0.182-0.258    c0.06-0.047,0.214-0.075,0.245-0.04c0.301,0.329,0.578,0.678,0.873,1.012c0.518,0.587,1.028,1.184,1.58,1.737    c0.131,0.132,0.494,0.219,0.612,0.135c0.245-0.176,0.543-0.476,0.552-0.734c0.021-0.55-0.106-1.11-0.218-1.657    c-0.088-0.437-0.256-0.856-0.363-1.29c-0.021-0.086,0.052-0.213,0.116-0.295c0.027-0.034,0.177-0.03,0.212,0.008    c0.225,0.251,0.423,0.524,0.647,0.776c0.679,0.763,1.438,1.118,2.345,0.366c0.433-0.358,0.624,0.048,0.77,0.271    c0.495,0.755,0.909,1.563,1.398,2.324c0.782,1.222,1.124,2.729,2.362,3.657c-0.712,1.27-1.438,2.528-2.126,3.808    c-0.668,1.238-0.515,2.106,0.517,3.024c2.279,2.029,4.543,4.077,6.859,6.063c2.062,1.767,4.201,3.445,6.634,4.689    c1.18,0.602,2.313,0.432,2.754-0.323c0.348-0.596,0.022-1.468-0.955-2.31c-1.802-1.549-3.666-3.022-5.439-4.603    c-1.772-1.578-3.536-3.179-5.171-4.896c-1.66-1.744-1.64-1.517-0.487-3.418c0.762-1.255,1.538-2.5,2.321-3.74    c0.362-0.574,0.788-1.109,1.122-1.697c0.735-1.29-0.032-2.543-1.566-2.501c-0.778,0.021-1.555,0.216-2.328,0.356    c-0.521,0.093-0.891-0.121-1.089-0.562c-1.104-2.478-2.181-4.965-3.275-7.446c-0.21-0.477-0.13-0.922,0.243-1.226    c0.787-0.638,1.586-1.275,2.444-1.809c2.209-1.373,4.461-2.677,6.413-4.425c0.142-0.126,0.447-0.231,0.581-0.162    c0.159,0.081,0.295,0.36,0.301,0.56c0.024,0.677,0.025,1.358-0.035,2.032c-0.189,2.137-0.514,4.268-0.598,6.407    c-0.181,4.521-0.22,9.039,0.807,13.498c0.38,1.656,0.708,3.288,1.661,4.76c0.608,0.938,0.943,2.051,1.446,3.062    c0.451,0.911,0.932,1.81,1.454,2.682c0.613,1.026,1.602,1.562,2.717,1.888c0.894,0.26,1.926-0.447,1.891-1.396    c-0.027-0.774-0.25-1.543-0.387-2.313c-0.093-0.533,0.14-0.842,0.686-0.911c0.773-0.098,1.58-0.102,2.312-0.339    c0.312-0.1,0.646-0.692,0.641-1.056c-0.007-0.363-0.344-0.869-0.677-1.044c-0.476-0.25-1.102-0.192-1.623-0.38    c-0.622-0.223-1.219-0.538-1.79-0.871c-0.139-0.081-0.24-0.424-0.182-0.585c0.053-0.149,0.378-0.34,0.517-0.298    c1.094,0.335,2.195,0.522,3.34,0.382c0.821-0.104,1.639-0.881,1.382-1.605c-0.373-1.054-0.533-1.81,0.742-2.271    c0.249-0.089,0.514-0.527,0.513-0.803c-0.003-0.4-0.131-0.93-0.409-1.161c-0.301-0.251-0.847-0.185-1.264-0.325    c-0.843-0.283-1.675-0.592-2.492-0.941c-0.166-0.071-0.237-0.366-0.352-0.557c0.207-0.06,0.428-0.199,0.616-0.163    c0.771,0.149,1.503,0.424,2.325,0.148c0.812-0.271,1.135-1.269,0.503-1.869c-0.321-0.305-0.735-0.509-1.093-0.776    c-0.225-0.17-0.138-0.283,0.184-0.402c0.73-0.272,1.534-0.144,1.81,0.41c1.105,2.228,1.943,4.631,3.339,6.655    c1.091,1.583,1.154,2.803,0.188,4.287c-0.18,0.278-0.347,0.6-0.396,0.921c-0.049,0.314-0.002,0.679,0.118,0.975    c0.228,0.57,0.722,0.938,1.319,0.844c0.393-0.06,0.759-0.4,1.094-0.667c0.165-0.132,0.27-0.369,0.343-0.578    c1.36-3.959,2.587-7.985,2.972-12.146c0.341-3.703,0.167-7.459,0.155-11.191c-0.005-1.578-0.07-3.164-0.621-4.69    c-0.138-0.381-0.134-0.953,0.064-1.282c0.33-0.549,0.801-0.019,1.142,0.129c2.486,1.084,4.952,2.215,7.425,3.331    c0.516,0.232,1.038,0.45,1.543,0.702c0.453,0.225,0.679,0.646,0.547,1.107c-0.248,0.86-0.447,1.785-0.919,2.518    c-0.995,1.544-1.753,3.184-2.21,4.934c-0.335,1.275-1.088,1.903-2.27,2.209c-0.872,0.225-1.775,0.384-2.602,0.723    c-1.839,0.749-2.133,2.495-0.646,3.715c1.317,1.08,2.742,1.992,4.415,2.455c0.539,0.148,1.068,0.343,1.588,0.553    c0.434,0.176,0.601,0.726,0.366,1.129c-1.257,2.167-2.771,4.132-4.656,5.796c-1.188,1.049-2.459,2.012-3.575,3.13    c-1.671,1.677-3.253,3.444-4.843,5.201c-0.437,0.483-0.339,1.352,0.103,1.885c0.521,0.629,1.544,0.831,2.126,0.323    c0.677-0.591,1.358-1.212,1.885-1.933c1.483-2.031,3.334-3.67,5.229-5.296c1.366-1.171,2.68-2.452,3.79-3.861    c1.396-1.771,2.581-3.712,3.818-5.604c0.645-0.986,0.328-1.972-0.804-2.501c-1.527-0.714-3.086-1.359-4.623-2.051    c-0.194-0.088-0.342-0.28-0.51-0.425c0.135-0.126,0.249-0.326,0.405-0.368c2.011-0.553,2.996-1.916,3.119-3.943    c0.043-0.709,0.317-1.286,0.696-1.871c0.444-0.683,0.399-0.712,0.96,0.024c1.02,1.34,2.002,1.36,2.898,0.016    c0.5-0.751,0.908-1.563,1.377-2.336c0.312-0.517,0.811-0.676,1.07-0.319c0.165,0.224,0.271,0.622,0.186,0.869    c-0.253,0.744-0.667,1.435-0.908,2.183c-0.131,0.407-0.056,0.888-0.027,1.334c0.023,0.373,0.788,0.694,1.091,0.456    c0.345-0.271,0.711-0.547,0.972-0.893c0.476-0.63,0.835-1.351,1.331-1.959c0.313-0.383,0.778-0.321,1.211-0.045    c0.534,0.338,0.694,0.81,0.737,1.412c0.036,0.531,0.418,0.828,0.919,0.56c1.165-0.623,1.927,0.09,2.714,0.731    c0.499,0.405,0.605,0.885,0.222,1.468c-0.304,0.46-0.68,1.046-0.008,1.438c0.314,0.184,0.91,0.148,1.249-0.032    c0.737-0.397,1.45-0.559,2.273-0.396c0.318,0.064,0.676,0.004,1.005-0.06C102.952,92.025,103.453,90.744,102.851,90.05z     M87.519,33.318c-0.321,1.124-1.098,1.944-2.313,2.268c-1.433,0.381-1.818,0.105-1.918-1.488    c-0.163-2.618,0.419-5.138,1.121-7.621c0.302-1.074,1.677-1.477,2.823-1.037c0.573,0.221,0.979,0.569,1.033,1.198    c0.059,0.675,0.068,1.354,0.124,2.644C88.187,30.245,87.951,31.811,87.519,33.318z M84.112,19.958    c0.037-0.681,0.142-0.834,1.241-1.147c0.755-0.216,1.519-0.407,2.289-0.558c0.111-0.021,0.424,0.323,0.398,0.37    c-0.571,1.091-1.146,2.183-1.801,3.222c-0.142,0.227-0.591,0.277-0.91,0.37c-0.615,0.18-1.176-0.17-1.213-0.747    C84.094,21.131,84.112,20.792,84.112,19.958z M89.889,14.52c-0.234,0.988-0.66,1.5-1.855,1.498    c-1.081-0.002-2.162,0.501-3.247,0.782c-0.089-0.055-0.244-0.099-0.262-0.175c-0.043-0.182-0.098-0.488-0.011-0.552    c1.74-1.236,3.501-2.446,5.261-3.655c0.083-0.059,0.277-0.117,0.287-0.098c0.109,0.187,0.292,0.406,0.259,0.581    C90.22,13.449,90.018,13.976,89.889,14.52z M81.653,7.835c0.165-0.401,0.386-0.802,0.675-1.124    c0.907-1.012,1.774-2.021,2.062-3.424c0.105-0.512,0.573-0.545,1.078-0.373c1.061,0.361,2.135,0.688,3.218,0.978    c2.212,0.59,2.82,1.29,2.926,3.484c0.011,0.226,0.001,0.452,0.001,0.899c-0.006,0.115-0.018,0.453-0.044,0.789    c-0.052,0.66-0.453,1.036-1.099,0.726c-0.875-0.421-1.575-0.13-2.221,0.275c-1.237,0.773-2.391,1.679-3.604,2.495    c-0.267,0.181-0.688,0.276-0.845-0.154c-0.103-0.277-0.169-0.735-0.017-0.907c0.963-1.095,2.04-2.094,2.982-3.208    c0.411-0.487,0.651-1.151,0.845-1.775c0.077-0.247-0.107-0.694-0.32-0.877c-0.2-0.172-0.695-0.259-0.887-0.128    c-0.831,0.562-1.604,1.208-2.384,1.841c-0.521,0.423-1.002,0.895-1.541,1.293c-0.086,0.063-0.419-0.104-0.561-0.242    C81.771,8.26,81.599,7.971,81.653,7.835z M79.747,3.182c0.209-0.057,0.44-0.037,0.661-0.053c0.208,0.053,0.418,0.096,0.622,0.162    c0.306,0.097,0.36,0.291,0.129,0.509c-0.311,0.292-0.607,0.643-0.979,0.815c-0.491,0.229-1.155-0.151-1.271-0.71    C78.772,3.255,79.359,3.287,79.747,3.182z M34.956,15.982c3.47-3.33,7.537-5.712,11.987-7.458    c3.584-1.404,7.299-2.295,11.136-2.668c2.8-0.273,5.599-0.569,8.397-0.855c0.007,0.06,0.013,0.119,0.021,0.18    c1.241,0,2.488,0.067,3.724-0.016c2.056-0.139,3.729,0.668,5.257,1.924c3.866,3.184,5.409,7.364,5.262,12.268    c-0.025,0.789-0.38,1.215-1.17,1.44c-0.867,0.246-1.781,0.366-2.606,0.704c-1.609,0.661-2.892,0.674-4.117-0.88    c-0.916-1.162-2.399-1.623-3.906-1.812c-0.893-0.111-1.771-0.333-2.663-0.444c-2.51-0.311-4.733,0.151-6.172,2.489    c-0.553,0.902-1.197,1.057-2.257,0.799c-2.199-0.533-4.244,0.112-6.064,1.389c-0.673,0.473-1.19,0.449-1.805-0.041    c-1.962-1.565-4.376-1.681-6.71-1.99c-1.542-0.204-2.885,0.346-3.973,1.475c-0.392,0.407-0.785,0.811-1.187,1.208    c-0.667,0.66-1.462,1.066-2.408,1.088c-1.467,0.035-2.935,0.042-4.4,0.047c-0.415,0.002-0.824-0.556-0.708-0.952    C31.456,20.918,32.686,18.16,34.956,15.982z M72.327,26.446c-0.291,1.426-0.5,2.875-0.897,4.271    c-0.347,1.209-1.312,1.837-2.566,1.837c-1.127,0-2.277,0-3.373-0.221c-2.149-0.433-3.527-2.068-3.783-4.243    c-0.395-3.346,0.824-5.115,4.085-5.941c1.108-0.281,2.228-0.292,3.355-0.141c1.938,0.259,2.987,1.431,3.017,3.385    c0.006,0.339,0.002,0.678,0.002,1.018C72.22,26.422,72.273,26.435,72.327,26.446z M52.227,32.077c0-1.581-0.017-3.165,0.005-4.746    c0.019-1.331,0.996-2.626,2.29-3.001c0.537-0.153,1.11-0.223,1.669-0.244c1.149-0.041,2.013,0.537,2.271,1.632    c1.034,4.389,2.158,8.766,2.039,13.333c-0.047,1.803-0.208,2.139-2.072,2.479c-5.157,0.943-5.451,0.476-6.002-4.369    c-0.191-1.674-0.03-3.388-0.03-5.084H52.227z M45.827,24.297c2.602,0.36,3.965,2.063,3.641,4.684    c-0.223,1.793-0.743,3.521-1.869,4.992c-0.831,1.088-1.984,1.456-3.291,1.108c-2.353-0.626-3.924-2.169-4.812-4.353    c-1.206-2.966,1.082-6.336,4.308-6.484c0.225-0.011,0.45-0.001,0.675-0.001v0.045C44.927,24.288,45.385,24.234,45.827,24.297z     M26.861,13.399c0.85-0.487,1.725-0.93,2.647-1.414c0.541,0.362,1.042,0.599,1.406,0.969c0.415,0.418,0.526,1.07,0.187,1.526    c-0.446,0.597-1.044,1.099-1.65,1.542c-0.179,0.131-0.703,0.042-0.894-0.135c-0.64-0.598-1.217-1.27-1.78-1.944    C26.695,13.844,26.756,13.459,26.861,13.399z M21.182,15.804c0.062-0.075,0.438-0.05,0.488,0.038    c1.13,1.956,2.275,3.894,4.043,5.375c0.132,0.11,0.104,0.409,0.151,0.619c-0.176,0.12-0.343,0.322-0.527,0.34    c-0.2,0.018-0.464-0.081-0.615-0.221c-1.674-1.557-2.967-3.377-3.72-5.551C20.945,16.237,21.058,15.958,21.182,15.804z     M24.982,30.608c-0.193,0.234-0.44,0.6-0.754,0.893c-0.128,0.117-0.479,0.182-0.597,0.095c-1.365-1.013-2.319-2.362-3.042-3.883    c-0.031-0.063,0.041-0.205,0.104-0.277c0.037-0.044,0.185-0.062,0.222-0.028c1.125,1.072,2.186,2.238,3.838,2.508    c0.096,0.017,0.213,0.115,0.252,0.205C25.044,30.209,24.999,30.338,24.982,30.608z M24.499,26.718    c-0.858-0.613-1.592-1.338-1.949-2.361c-0.048-0.013-0.097-0.025-0.146-0.039c-0.029-0.087-0.048-0.178-0.09-0.258    c-0.027-0.053-0.087-0.087-0.134-0.129c0.105,0.1,0.21,0.199,0.313,0.297c0.014,0.046,0.04,0.083,0.056,0.129    c0.887,0.24,1.784,0.453,2.647,0.762c0.189,0.067,0.34,0.541,0.317,0.812c-0.024,0.283-0.243,0.582-0.452,0.801    C24.971,26.827,24.632,26.813,24.499,26.718z M31.255,42.496c-0.082,0.1-0.477,0.078-0.626-0.03    c-1.446-1.051-2.919-2.073-4.283-3.226c-0.806-0.68-1.019-1.717-0.986-2.915c0.169-0.624,0.343-1.393,0.592-2.136    c0.195-0.586,1.047-1.181,1.563-1.116c0.617,0.079,0.982,0.503,1.19,1.06c0.946,2.525,1.895,5.047,2.804,7.586    C31.584,41.93,31.418,42.293,31.255,42.496z M45.456,57.289c-1.019-1.609-2.436-2.961-3.624-4.469    c-0.696-0.883-1.428-1.782-1.904-2.789c-0.873-1.848-1.939-3.565-3.128-5.213c-2.139-2.966-3.604-6.242-4.56-9.76    c-0.237-0.87-0.55-1.72-0.798-2.586c-0.256-0.89,0.008-1.271,0.91-1.365c0.338-0.036,0.677-0.045,0.967-0.064    c0.681-0.09,1.141,0.133,1.37,0.754c0.039,0.105,0.1,0.202,0.143,0.307c1.996,4.64,6.552,6.275,11.549,5.738    c1.185-0.129,2.066-0.845,2.975-1.516c0.16-0.118,0.377-0.154,0.569-0.229c0.033,0.212,0.119,0.432,0.091,0.636    c-0.186,1.337-0.424,2.668-0.588,4.007c-0.098,0.797,0.065,1.558,0.496,2.272c0.273,0.454,0.641,1.027,0.559,1.47    c-0.091,0.482-0.627,0.901-1.016,1.303c-0.867,0.892-1.764,1.751-2.644,2.63c-0.317,0.319-0.646,0.634-0.916,0.992    c-0.618,0.816-0.173,2.18,0.811,2.53c1.014,0.361,1.982,0.222,2.954-0.213c2.268-1.01,4.578-1.93,6.814-3.002    c0.977-0.469,1.837-0.442,2.891-0.356c3.047,0.25,6.035,0.695,8.98,1.511c0.897,0.248,1.701-0.104,2.077-0.741    c0.494-0.837,0.281-2.177-0.543-2.754c-0.642-0.447-1.36-0.805-2.086-1.1c-1.672-0.677-3.373-1.28-5.053-1.938    c-0.271-0.105-0.733-0.271-0.403-0.686c1.861-2.335,1.557-4.818,0.568-7.363c-0.081-0.207-0.176-0.412-0.234-0.627    c-0.024-0.094,0-0.283,0.048-0.299c0.171-0.06,0.363-0.082,0.549-0.082c0.106,0,0.217,0.062,0.316,0.111    c1.898,0.965,3.942,0.853,5.976,0.799c1.082-0.027,1.918-0.555,2.683-1.279c1.204-1.143,1.755-2.604,2.102-4.166    c0.146-0.658,0.292-1.328,0.323-1.998c0.155-3.254-0.049-2.35,3.071-3.382c0.629-0.207,1.338-0.185,2.011-0.238    c0.435-0.035,0.906,0.45,0.833,0.853c-0.639,3.433-1.286,6.863-1.938,10.294c-0.043,0.219-0.14,0.431-0.23,0.637    c-2.135,4.854-4.129,9.773-7.09,14.221c-1.375,2.065-2.655,4.196-3.933,6.325c-1.17,1.949-2.564,3.714-4.182,5.302    c-0.209,0.204-0.659,0.384-0.877,0.291c-0.215-0.091-0.315-0.532-0.396-0.839c-0.114-0.434-0.11-0.902-0.258-1.319    c-0.106-0.297-0.383-0.76-0.579-0.759c-1.12,0.008-2.047-1.068-3.189-0.617c-0.832,0.329-1.257,0.065-1.596-0.667    c-0.2-0.433-0.596-0.729-1.069-0.55c-0.274,0.104-0.582,0.435-0.646,0.715c-0.25,1.093-0.442,2.146-1.256,3.055    c-0.393,0.44-0.29,1.293-0.53,1.916c-0.08,0.207-0.547,0.416-0.796,0.374c-0.431-0.069-0.96-0.226-1.221-0.536    C49.155,60.858,46.874,59.528,45.456,57.289z M56.609,89.838c-0.981,2.875-1.97,5.748-2.976,8.613    c-0.048,0.138-0.337,0.311-0.461,0.276c-0.188-0.052-0.445-0.25-0.477-0.423c-0.419-2.201-0.804-4.411-1.106-6.1    c0-0.997,0.009-1.447-0.001-1.896c-0.017-0.734,0.254-1.297,0.889-1.697c0.381-0.238,0.727-0.533,1.087-0.805    c1.081-0.811,1.081-0.812,2.214-0.015C57.001,88.651,57.012,88.654,56.609,89.838z M52.995,76.73    c0.61-0.179,2.05,0.877,2.114,1.416c0.09,0.777,0.085,1.565,0.121,2.349c-0.034,0.001-0.07,0.002-0.104,0.003    c0,0.562-0.021,1.127,0.003,1.69c0.069,1.686-1.228,2.259-2.393,2.926c-0.069,0.041-0.444-0.211-0.442-0.321    c0.034-1.683,0.083-3.366,0.186-5.045c0.034-0.553,0.209-1.103,0.364-1.641C52.977,77.639,52.165,76.973,52.995,76.73z     M59.478,99.158c0.045,0.033,0.074,0.176,0.043,0.216c-0.06,0.08-0.165,0.17-0.257,0.174c-0.599,0.033-1.148-0.319-1.232-0.769    c0.136-0.104,0.332-0.321,0.4-0.286C58.799,98.678,59.14,98.92,59.478,99.158z M58.697,78.202l0.181,0.021l-0.109,0.176    L58.697,78.202z M61.445,83.748c-0.28,0.139-0.61,0.172-0.803,0.22c-0.345-0.034-0.564-0.044-0.776-0.083    c-0.102-0.02-0.214-0.08-0.281-0.155c-0.025-0.029,0.039-0.212,0.091-0.227c0.602-0.171,1.208-0.33,1.818-0.469    c0.06-0.014,0.234,0.163,0.22,0.209C61.654,83.427,61.586,83.678,61.445,83.748z M61.958,73.701    c-1.052,0.656-2.158,1.226-3.241,1.831c-1.135-0.496-2.268-0.995-3.405-1.487c-0.826-0.357-1.628-0.865-2.491-1.016    c-1.116-0.194-1.498-0.873-1.719-1.801c-0.105-0.438-0.177-0.887-0.265-1.331c-0.136-0.427-0.319-0.848-0.393-1.288    c-0.062-0.361,0.087-0.621,0.559-0.525c2.908,0.58,5.853,0.264,8.783,0.364c0.923,0.033,1.784-0.262,2.541-0.812    c0.729-0.531,1.449-1.078,2.181-1.605c0.341-0.246,0.648-0.106,0.754,0.239c0.195,0.645,0.411,1.311,0.445,1.976    c0.079,1.505-0.172,2.91-1.562,3.853C63.398,72.605,62.724,73.225,61.958,73.701z M63.485,79.111    c-0.27-0.095-0.446-0.48-0.645-0.747c-0.306-0.409-0.333-0.897,0.036-1.214c0.679-0.584,1.421-1.099,2.169-1.591    c0.443-0.29,1.051-0.773,1.406-0.652c0.574,0.198,1.146,0.742,1.449,1.289c0.37,0.667,0.481,1.482,0.666,2.243    c0.079,0.324,0.083,0.67,0.089,1.007c0.013,0.675,0.003,1.35,0.003,2.024c0.037,0,0.074,0.002,0.11,0.003    c-0.054,0.668-0.101,1.337-0.166,2.004c-0.011,0.102-0.111,0.28-0.163,0.277c-0.192-0.009-0.455-0.014-0.562-0.135    c-0.447-0.503-0.862-1.036-1.256-1.58C65.764,80.859,64.975,79.631,63.485,79.111z M69.591,95.567    c-0.028,0.183-0.296,0.482-0.409,0.464c-0.263-0.042-0.617-0.187-0.729-0.397c-1.201-2.275-2.327-4.592-3.55-6.854    c-0.708-1.313-0.225-2.631-0.201-3.949c0.001-0.112,0.225-0.222,0.342-0.328c0.198,0.164,0.402,0.279,0.532,0.45    c0.547,0.709,1.042,1.457,1.607,2.148c0.713,0.87,1.47,1.685,2.707,1.832c0.221,0.026,0.586,0.472,0.56,0.685    C70.209,91.605,69.907,93.588,69.591,95.567z"
         id="path6" /></g></g><g
     id="g8" /><g
     id="g10" /><g
     id="g12" /><g
     id="g14" /><g
     id="g16" /><g
     id="g18" /><g
     id="g20" /><g
     id="g22" /><g
     id="g24" /><g
     id="g26" /><g
     id="g28" /><g
     id="g30" /><g
     id="g32" /><g
     id="g34" /><g
     id="g36" /><path
     style="fill:none;fill-rule:evenodd;stroke:#000000;stroke-width:1px;stroke-linecap:butt;stroke-linejoin:miter;stroke-opacity:1"
     d="m 57.50897,110.83994 c 0.327687,0.24576 0.631823,0.52655 0.983059,0.73729 0.140495,0.0843 0.375675,-0.11585 0.49153,0 0.05793,0.0579 -0.05793,0.18784 0,0.24577 0.05793,0.0579 0.172492,-0.0366 0.245765,0 0.103623,0.0518 0.142141,0.19395 0.245765,0.24576 0.07327,0.0366 0.245765,-0.0819 0.245765,0 0,0.0819 -0.245765,-0.0819 -0.245765,0 0,0.11586 0.12991,0.24577 0.245765,0.24577 0.08192,0 -0.08192,-0.24577 0,-0.24577 0.678222,0 -0.186693,0.24577 0.491529,0.24577 0.245765,0 0.49153,0 0.737295,0 0.08192,0 0.245765,-0.0819 0.245765,0 0,0.0819 -0.327687,0 -0.245765,0 0.163843,0 0.327686,0 0.491529,0 0.08192,0 0.187838,0.0579 0.245765,0 0.05793,-0.0579 0.05793,-0.18784 0,-0.24577 -0.214743,-0.21474 -0.511407,0.24577 0,0.24577 0.08192,0 -0.05793,-0.18784 0,-0.24577 0.05793,-0.0579 0.172492,0.0366 0.245765,0 0.208696,-0.10435 0.282834,-0.38718 0.49153,-0.49153 0.146546,-0.0733 0.375675,0.11586 0.491529,0 0.115855,-0.11585 -0.163843,-0.49153 0,-0.49153 0.115855,0 0.129911,0.24577 0.245765,0.24577 0.115855,0 0.142141,-0.19396 0.245765,-0.24577 0.07327,-0.0366 0.245765,-0.0819 0.245765,0 0,0.0819 -0.245765,0.0819 -0.245765,0 0,-0.49105 0.590864,-0.0993 0.737294,-0.24576 0.05793,-0.0579 -0.05793,-0.18784 0,-0.24577 0.146877,-0.14687 0.49153,0.26565 0.49153,-0.24576 0,-0.0819 -0.245765,0.0819 -0.245765,0 0,-0.0819 0.172492,0.0366 0.245765,0 0.103624,-0.0518 0.142141,-0.19395 0.245765,-0.24577 0.07327,-0.0366 0.245765,0.0819 0.245765,0 0,-0.11585 -0.245765,-0.12991 -0.245765,-0.24576 0,-0.0793 0.423252,-0.35498 0.49153,-0.49153 0.03664,-0.0733 -0.03664,-0.17249 0,-0.24577 0.05181,-0.10362 0.193953,-0.14214 0.245764,-0.24576 0.09831,-0.19661 -0.0983,-0.54068 0,-0.7373 0.05181,-0.10362 0.193954,-0.14214 0.245765,-0.24576 0.07327,-0.14655 -0.07327,-0.34498 0,-0.49153 0.103624,-0.20725 0.387906,-0.28428 0.49153,-0.49153 0.03664,-0.0733 -0.03664,-0.17249 0,-0.24576 0.03263,-0.0653 0.672041,-0.70467 0.737294,-0.7373 0.07327,-0.0366 0.187838,0.0579 0.245765,0 0.115855,-0.11585 -0.115854,-0.37567 0,-0.49153 0.05793,-0.0579 0.187838,0.0579 0.245765,0 0.576362,-0.57636 -0.873027,0 0.245765,0 0.163843,0 -0.115855,-0.37567 0,-0.49153 0.05793,-0.0579 0.187837,0.0579 0.245765,0 0.05793,-0.0579 0,-0.16384 0,-0.24576 0,-0.0819 0,-0.16385 0,-0.24577"
     id="path3404"
     inkscape:connector-curvature="0" /><path
     style="fill:#916f6f"
     d="m 54.756404,125.6122 c -10.917982,-0.45945 -20.85611,-2.61862 -29.445447,-6.39734 -3.702471,-1.62883 -6.313842,-3.04244 -5.992478,-3.24391 0.523907,-0.32843 0.982645,-7.43217 0.534073,-8.27033 -0.328924,-0.6146 -0.202313,-3.10421 0.243225,-4.78261 0.161467,-0.60827 0.353316,-1.54832 0.42633,-2.089 0.07302,-0.54069 0.244417,-1.05386 0.380895,-1.140388 0.136478,-0.08653 0.274483,-0.363015 0.306678,-0.614413 0.0322,-0.251398 0.140938,-0.705033 0.241651,-1.008077 0.174722,-0.525743 0.215505,-0.506275 0.89,0.424838 1.155431,1.59503 3.011288,1.59086 3.330956,-0.0075 0.113787,-0.568933 0.247854,-0.714155 0.54737,-0.592914 0.218171,0.08831 0.815795,0.220121 1.328054,0.292906 0.73021,0.103752 1.051413,0.01957 1.487104,-0.389739 0.469538,-0.441108 0.682524,-0.485709 1.373335,-0.287587 1.012372,0.290344 1.738972,-0.04565 1.735116,-0.802354 -0.0015,-0.299379 -0.497951,-1.373781 -1.103168,-2.387561 -1.710061,-2.864468 -1.445199,-3.27895 0.681271,-1.06612 1.554057,1.617172 2.145024,1.658661 2.145024,0.150592 0,-0.512024 -0.108702,-1.309978 -0.241561,-1.77323 -0.32634,-1.13788 -0.154055,-1.210113 0.701582,-0.294151 0.762095,0.815826 1.881802,1.034309 2.440004,0.476107 0.383593,-0.383592 0.489781,-0.257132 1.898587,2.261037 0.642788,1.14895 1.474183,2.546953 1.847544,3.106672 l 0.678837,1.01767 -1.086281,1.905915 c -1.22306,2.1459 -1.442521,2.80079 -1.226717,3.66063 0.09134,0.36392 1.794644,2.04552 4.356182,4.30068 7.732811,6.8079 10.543176,8.55409 12.275285,7.62709 0.572809,-0.30656 0.615093,-1.15709 0.09448,-1.90038 -0.209495,-0.29909 -1.730165,-1.67508 -3.379266,-3.05774 -3.342867,-2.80278 -9.267543,-8.5233 -9.266225,-8.94694 4.67e-4,-0.15057 0.901075,-1.69888 2.001347,-3.440705 2.730831,-4.323129 2.785091,-4.437104 2.4561,-5.15916 -0.422968,-0.928318 -1.232658,-1.176358 -2.896643,-0.887358 -0.790389,0.137274 -1.588303,0.166103 -1.773143,0.06406 -0.38597,-0.213069 -3.719047,-7.682626 -3.719047,-8.334532 0,-0.634581 1.002936,-1.473095 4.300884,-3.595794 1.622048,-1.044018 3.410167,-2.272938 3.9736,-2.730933 0.563431,-0.457995 1.136598,-0.832718 1.273703,-0.832718 0.503223,0 0.54159,1.026805 0.170409,4.560541 -0.437754,4.167542 -0.499803,11.970852 -0.117488,14.775656 0.53735,3.942178 1.192841,5.946108 3.336709,10.200768 2.244028,4.45342 2.876081,5.15487 4.740261,5.26071 1.008997,0.0573 2.107706,0.44335 2.342387,0.82307 0.255979,0.41418 2.96689,0.32641 3.327194,-0.10773 0.168272,-0.20275 0.409643,-0.36864 0.536379,-0.36864 0.126736,0 0.767944,-0.35189 1.424908,-0.78198 1.026559,-0.67204 1.254086,-0.97435 1.618508,-2.15044 0.527321,-1.7018 1.220822,-2.72018 1.852414,-2.72018 1.175291,0 1.665499,-0.70184 2.657496,-3.8048 1.367672,-4.278062 1.959206,-7.260187 2.233927,-11.261992 0.278326,-4.054318 0.08099,-11.783126 -0.346345,-13.564806 -0.328282,-1.368709 -0.26256,-2.089001 0.190613,-2.089001 0.470891,0 10.067169,4.405124 10.253675,4.706899 0.25982,0.420397 -0.215504,1.864871 -1.36253,4.140635 -0.579093,1.14895 -1.244627,2.676406 -1.478961,3.394347 -0.626612,1.919757 -1.191753,2.432028 -3.325724,3.014587 -2.159224,0.589453 -2.884626,1.007992 -3.204299,1.848796 -0.583176,1.533869 1.431781,3.418911 5.128809,4.798126 1.014245,0.378374 1.92848,0.824516 2.031638,0.991427 0.391046,0.632727 -1.812386,3.779442 -4.189173,5.982552 -1.020786,0.94619 -3.48724,3.36226 -5.481007,5.36904 -2.956755,2.97605 -3.625032,3.77696 -3.625032,4.34449 0,0.70927 0.951498,1.71453 1.62283,1.71453 0.180244,0 2.96444,-2.62661 6.187102,-5.83691 5.019334,-5.00009 6.130353,-6.24504 7.749378,-8.68359 2.693742,-4.057267 2.636959,-4.282218 -1.538748,-6.095939 -1.365202,-0.592975 -2.538559,-1.169354 -2.607462,-1.280842 -0.0689,-0.111487 0.293355,-0.41737 0.80502,-0.67974 1.546947,-0.793239 2.52777,-2.165017 2.52777,-3.535336 0,-0.28645 0.235052,-1.006371 0.522336,-1.599823 l 0.522339,-1.079005 0.779628,0.755646 c 0.472827,0.458282 1.036473,0.755646 1.432307,0.755646 0.681332,0 0.856154,-0.182889 2.231808,-2.334766 1.351736,-2.114463 2.086234,-1.404923 1.146598,1.107637 -0.557571,1.490932 -0.505521,2.303444 0.164024,2.560371 0.495452,0.190124 0.906467,-0.155982 2.093668,-1.763039 0.540746,-0.73198 1.146291,-1.290557 1.399078,-1.290557 0.560422,0 1.145753,0.660507 1.35076,1.524247 0.149828,0.631256 0.215214,0.657603 1.323274,0.533198 1.029681,-0.115605 1.263902,-0.04745 2.007862,0.584253 l 0.842202,0.715124 -0.401583,1.003651 c -0.352684,0.881447 -0.357524,1.040216 -0.03974,1.303953 0.286729,0.237962 0.634813,0.222649 1.676785,-0.07377 0.723217,-0.205738 1.593904,-0.320742 1.934854,-0.255565 0.34095,0.06518 0.83639,0.0026 1.10098,-0.138959 1.47578,-0.789814 2.96194,2.880521 2.67264,6.600576 -0.44329,5.700415 -0.44143,5.995155 0.0534,8.478885 0.2693,1.35171 0.45504,2.7537 0.41277,3.11554 -0.0423,0.36185 0.0339,1.57415 0.16929,2.69401 0.23292,1.92658 0.21843,2.05856 -0.26937,2.45356 -0.28355,0.22959 -0.51554,0.53796 -0.51554,0.68526 0,0.1473 -0.0937,0.26781 -0.20816,0.26781 -0.11448,0 -0.45145,0.21101 -0.74882,0.46892 -0.6442,0.55871 -8.140175,3.07767 -12.805846,4.3033 -6.260385,1.64455 -13.148455,2.96136 -19.292539,3.6882 -3.370313,0.39871 -11.928452,0.90512 -14.008595,0.82894 -0.675854,-0.0247 -1.947687,-0.0752 -2.826296,-0.11223 z"
     id="path3418"
     inkscape:connector-curvature="0" /><path
     style="fill:#ff2a2a"
     d="m 59.800267,111.56493 c -0.205275,-0.0879 -0.424945,-0.24348 -0.488157,-0.34575 -0.06321,-0.10228 -0.269172,-0.18596 -0.457691,-0.18596 -0.406453,0 -0.409168,-0.008 -0.690871,-1.96089 -0.145726,-1.0104 -0.161818,-1.58478 -0.0476,-1.699 0.09491,-0.0949 0.596678,-0.21666 1.115049,-0.27057 1.511849,-0.15723 2.011052,-0.36857 2.253571,-0.95406 0.338159,-0.81639 -0.168362,-1.36622 -1.583778,-1.71922 -1.869391,-0.46621 -2.900288,-1.17003 -2.405992,-1.64264 0.206584,-0.19752 0.448651,-0.1933 1.519009,0.0264 0.748773,0.15373 1.580174,0.21539 2.018322,0.14969 0.862257,-0.1293 1.548202,-0.7474 1.496311,-1.34831 -0.151419,-1.753468 -0.114355,-1.941183 0.455351,-2.306191 0.303124,-0.194211 0.622777,-0.509514 0.71034,-0.700674 0.189732,-0.41421 -0.05093,-1.465305 -0.356206,-1.555758 -2.528634,-0.749222 -3.279944,-1.02041 -3.622303,-1.307483 -0.544914,-0.456919 -0.19449,-0.713573 0.692745,-0.507372 1.03226,0.239906 1.688037,0.178228 2.174635,-0.204531 0.711002,-0.559274 0.617728,-1.214204 -0.280682,-1.970838 -0.60824,-0.512255 -0.692573,-0.652328 -0.4779,-0.79377 0.407161,-0.268267 1.143286,-0.207107 1.529148,0.127046 0.193148,0.167265 0.86043,1.421699 1.482848,2.78763 0.622418,1.365931 1.482115,3.047271 1.910439,3.736312 1.282946,2.063869 1.384226,3.109279 0.448768,4.632179 -0.202322,0.32937 -0.371638,0.87679 -0.376257,1.21647 -0.0053,0.38874 -0.154158,0.77861 -0.401725,1.05207 -0.53489,0.59082 -1.291106,2.05484 -1.292509,2.50227 -0.0023,0.72025 -0.83817,1.63516 -1.997348,2.18612 -0.28674,0.1363 -0.720402,0.42679 -0.963693,0.64556 -0.493953,0.44416 -1.768876,0.66595 -2.363827,0.41122 z"
     id="path3420"
     inkscape:connector-curvature="0" /><path
     style="fill:#ff2a2a"
     d="m 58.480321,99.342014 c -0.152268,-0.09284 -0.32309,-0.255207 -0.379605,-0.360805 -0.08862,-0.165596 -0.07463,-0.213215 0.101788,-0.346285 0.196999,-0.148596 0.21622,-0.147722 0.521217,0.0237 0.551467,0.309942 0.806097,0.551835 0.745933,0.708621 -0.07749,0.201943 -0.640303,0.187592 -0.989333,-0.02523 z"
     id="path3422"
     inkscape:connector-curvature="0" /><path
     style="fill:#ff2a2a"
     d="m 59.865031,83.860772 c -0.528815,-0.152689 -0.339917,-0.326663 0.635877,-0.58564 0.947271,-0.251406 1.167111,-0.246704 1.167111,0.02496 0,0.274293 -0.188783,0.455964 -0.589446,0.567239 -0.385944,0.107187 -0.827867,0.104798 -1.213542,-0.0066 z"
     id="path3424"
     inkscape:connector-curvature="0" /><path
     style="fill:#f4d7d7"
     d="m 48.84365,60.827603 c -2.793739,-2.642152 -8.105584,-9.204465 -9.19127,-11.354998 -0.393723,-0.779888 -1.534879,-2.669208 -2.535904,-4.198489 -1.001024,-1.529281 -2.219651,-3.571037 -2.708061,-4.537235 -1.201291,-2.376458 -3.137108,-8.412651 -2.897881,-9.036067 0.121393,-0.316345 0.681023,-0.503038 1.507904,-0.503038 1.206932,0 1.384118,0.130535 2.158445,1.590155 1.784371,3.363574 4.874534,5.01356 9.3896,5.01356 2.240273,0 2.830451,-0.130831 3.915172,-0.867918 0.702491,-0.477355 1.34164,-0.751062 1.420332,-0.608237 0.07869,0.142825 -0.01823,1.384917 -0.215379,2.760204 -0.311535,2.173223 -0.275618,2.684223 0.274405,3.903955 l 0.63286,1.403432 -2.482965,2.613917 c -2.532347,2.665902 -2.904676,3.530715 -1.936794,4.498597 0.941611,0.941611 2.669456,0.609036 7.222742,-1.390229 l 4.410114,-1.936401 3.207822,0.387526 c 1.764302,0.21314 4.195051,0.615309 5.401663,0.89371 2.748998,0.634273 3.018579,0.631351 3.68992,-0.03999 0.738104,-0.738102 0.688892,-2.09162 -0.104909,-2.88542 -0.358095,-0.358094 -2.19584,-1.242952 -4.083877,-1.966351 -1.888037,-0.723399 -3.4898,-1.360672 -3.559473,-1.416163 -0.06967,-0.05549 0.204034,-0.78405 0.608237,-1.619022 0.867983,-1.793013 0.930912,-3.436263 0.209858,-5.479948 -0.288781,-0.818494 -0.455665,-1.557563 -0.370851,-1.642376 0.08481,-0.08481 0.751199,0.04706 1.480857,0.293058 0.729659,0.245995 2.448923,0.457088 3.820587,0.469095 2.006703,0.01757 2.685724,-0.119988 3.47564,-0.704085 1.541311,-1.139714 2.598301,-3.396184 3.040465,-6.490812 l 0.399101,-2.793257 1.551581,-0.463863 c 1.915105,-0.572544 3.708639,-0.60696 3.886102,-0.07457 0.07331,0.219915 -0.316714,2.761476 -0.866706,5.647914 -0.853158,4.477482 -1.307223,5.937024 -3.092391,9.940183 -3.809284,8.542138 -12.577121,22.260234 -13.937638,21.806729 -0.205949,-0.06865 -0.542575,-0.724035 -0.74806,-1.456411 -0.323146,-1.151747 -0.569861,-1.389544 -1.826647,-1.760627 -0.799172,-0.235968 -1.84087,-0.354894 -2.314885,-0.26428 -0.631241,0.12067 -0.96935,-0.03612 -1.263626,-0.585981 -0.220979,-0.412904 -0.634669,-0.702197 -0.91931,-0.642874 -0.486775,0.10145 -2.063724,3.341508 -2.463037,5.060646 -0.32306,1.39085 -1.540603,0.935687 -4.183743,-1.564038 z"
     id="path3426"
     inkscape:connector-curvature="0" /><path
     style="fill:#f4d7d7"
     d="m 55.359733,74.101231 c -1.433701,-0.646423 -2.810215,-1.179919 -3.05892,-1.185547 -0.511184,-0.01157 -1.283169,-1.669084 -1.623834,-3.486508 l -0.228139,-1.21711 5.322849,0.121775 5.322849,0.121775 1.836005,-1.264254 c 1.009802,-0.695341 1.973717,-1.179144 2.142032,-1.07512 0.543911,0.336156 0.785212,2.913809 0.386003,4.123421 -0.385139,1.166985 -2.078458,2.630579 -4.994265,4.316716 -1.710475,0.989125 -1.948373,0.967913 -5.10458,-0.455148 z"
     id="path3428"
     inkscape:connector-curvature="0" /><path
     style="fill:#f4d7d7"
     d="M 30.813881,24.434613 C 30.575691,23.8139 31.184938,21.86622 32.334614,19.573034 34.839228,14.577239 43.152075,9.2326998 51.831776,7.0378149 c 3.9708,-1.0041186 11.856402,-1.9073356 16.652132,-1.9073356 2.971095,0 3.656769,0.1167866 5.199602,0.885612 4.066345,2.0263449 7.048392,7.2523727 7.048392,12.3522837 0,1.902718 -0.228381,2.134955 -2.834005,2.88187 -2.865783,0.821491 -3.585143,0.728239 -5.126857,-0.664605 -1.041674,-0.941091 -1.914643,-1.345604 -3.737314,-1.731784 -4.706923,-0.997285 -6.606043,-0.628021 -8.718007,1.695123 -1.111714,1.222877 -1.154715,1.23653 -3.301858,1.048323 -1.880651,-0.164846 -2.410985,-0.06911 -3.913294,0.706452 -2.009042,1.037159 -2.524173,1.092984 -3.53733,0.383341 -1.049651,-0.735204 -4.481202,-1.568674 -6.458525,-1.568674 -1.938615,0 -3.139054,0.538789 -4.582073,2.056554 -1.205603,1.268051 -2.746574,1.762051 -5.504798,1.764711 -1.441605,0.0014 -2.064378,-0.141327 -2.20396,-0.505073 z"
     id="path3430"
     inkscape:connector-curvature="0" /><path
     style="fill:#f4d7d7"
     d="m 53.898236,41.564875 c -1.112794,-0.866681 -1.405913,-2.509833 -1.582478,-8.87097 l -0.175537,-6.32406 1.061675,-1.061674 c 0.863732,-0.863733 1.348219,-1.061674 2.598579,-1.061674 1.02868,0 1.713403,0.201132 2.070647,0.608237 1.13673,1.295386 3.124762,12.960915 2.578672,15.131325 -0.284844,1.132094 -1.1007,1.509809 -3.928065,1.818563 -1.447153,0.158032 -2.201236,0.08912 -2.623493,-0.239747 z"
     id="path3432"
     inkscape:connector-curvature="0" /><path
     style="fill:#f4d7d7"
     d="m 28.923531,41.229281 c -2.698565,-1.995956 -3.454298,-2.928884 -3.454298,-4.264216 0,-2.58404 1.351125,-4.481372 2.550486,-3.581547 0.535367,0.40166 3.358101,7.499089 3.358101,8.443544 0,0.915577 -0.60863,0.767335 -2.454289,-0.597781 z"
     id="path3434"
     inkscape:connector-curvature="0" /><path
     style="fill:#e3dedb"
     d="m 83.488864,34.976977 c -0.671304,-1.254342 0.36341,-7.900793 1.430075,-9.186047 0.581723,-0.700932 2.196502,-0.625985 2.884156,0.133863 0.903306,0.998142 0.641961,4.887568 -0.524731,7.809212 -0.385242,0.964727 -1.857102,1.982102 -2.867552,1.982102 -0.289508,0 -0.704384,-0.332608 -0.921948,-0.73913 z"
     id="path3436"
     inkscape:connector-curvature="0" /><path
     style="fill:#e3dedb"
     d="M 83.873594,12.510057 C 83.799199,12.403844 83.73833,12.13955 83.73833,11.92274 c 0,-0.389934 0.01474,-0.409716 1.36143,-1.8271 1.748839,-1.8406448 1.958245,-2.1120047 2.286326,-2.9627446 0.303045,-0.7858228 0.294938,-1.0529108 -0.04303,-1.4175813 -0.159334,-0.1719245 -0.292144,-0.2240932 -0.57049,-0.2240932 -0.428168,0 -0.828755,0.2762567 -2.929424,2.0202155 -0.733955,0.6093231 -1.412708,1.1078601 -1.508342,1.1078601 -0.208022,0 -0.681857,-0.4502288 -0.681857,-0.6478871 0,-0.249025 0.406715,-0.9474828 0.838627,-1.4401856 1.03146,-1.1766379 1.44813,-1.8375507 1.773399,-2.8129304 0.354114,-1.061874 0.309869,-1.05318 2.303796,-0.4526913 3.044337,0.9168283 3.293973,1.0021199 3.772724,1.2890022 0.563059,0.3374025 0.976193,0.9539766 1.144781,1.7085124 0.132036,0.5909365 0.13204,2.8253778 7e-6,3.1553771 -0.05158,0.1289233 -0.19237,0.2990005 -0.312861,0.3779495 -0.205903,0.1349124 -0.25156,0.1325733 -0.759324,-0.038901 -0.297137,-0.1003446 -0.640184,-0.1822266 -0.762327,-0.1819601 -0.630356,0.00138 -1.374491,0.4118303 -3.579612,1.974465 -0.747472,0.529688 -1.438943,1.005832 -1.536602,1.058098 -0.276581,0.148021 -0.514246,0.112805 -0.66196,-0.09809 z"
     id="path3438"
     inkscape:connector-curvature="0" /><path
     style="fill:#e3dedb"
     d="M 79.483627,4.5570077 C 78.883653,4.2543452 78.707115,3.5486465 79.177734,3.3342181 c 0.585556,-0.2667968 1.98337,-0.1790332 2.102734,0.1320229 0.0914,0.2381893 -1.058765,1.2434908 -1.421919,1.242826 -0.04057,-7.43e-5 -0.209282,-0.068501 -0.374922,-0.1520593 z"
     id="path3440"
     inkscape:connector-curvature="0" /><path
     style="fill:#e3dedb"
     d="m 84.642341,16.720551 c -0.125604,-0.0842 -0.218147,-0.475078 -0.140099,-0.591752 0.05555,-0.08304 0.98411,-0.739827 4.272259,-3.021833 0.595448,-0.413247 1.132184,-0.751357 1.192748,-0.751357 0.06056,0 0.172559,0.0953 0.248877,0.211775 0.153909,0.234895 0.109769,0.485606 -0.355649,2.02007 -0.322175,1.062194 -0.76229,1.413425 -1.777598,1.418601 -0.511116,0.0026 -1.356558,0.185028 -2.386414,0.51492 -0.907728,0.290771 -0.915797,0.292299 -1.054124,0.199576 z"
     id="path3442"
     inkscape:connector-curvature="0" /><path
     style="fill:#f4d7d7"
     d="m 83.696974,35.504287 c -0.332463,-0.332462 -0.424734,-0.83905 -0.421222,-2.312599 0.0045,-1.882478 0.387703,-4.223064 1.062295,-6.488217 0.28546,-0.958521 0.901324,-1.419338 1.895608,-1.418379 0.610731,5.9e-4 1.036838,0.111596 1.420293,0.370006 0.53154,0.358205 0.606817,0.597275 0.682411,2.167244 0.06253,1.298736 0.05082,1.509209 -0.141711,2.545389 -0.300756,1.618674 -0.693873,3.125728 -0.94422,3.619764 -0.513613,1.013567 -1.697962,1.720663 -2.886088,1.723091 -0.369795,7.82e-4 -0.500812,-0.03974 -0.667366,-0.206299 z"
     id="path3446"
     inkscape:connector-curvature="0" /><path
     style="fill:#e3dedb"
     d="m 84.393018,21.989434 -0.253989,-0.253989 0,-1.140416 c 0,-1.10282 0.0071,-1.147008 0.2158,-1.340412 0.2235,-0.207133 0.856386,-0.420016 2.347484,-0.789622 1.492511,-0.369955 1.558409,-0.234307 0.676613,1.392776 -1.071414,1.976962 -1.159002,2.093776 -1.68764,2.250764 -0.692944,0.205783 -1.00171,0.177457 -1.298268,-0.119101 z"
     id="path3448"
     inkscape:connector-curvature="0" /><path
     style="fill:#e3dedb"
     d="m 22.780959,30.823908 c -0.826408,-0.823031 -1.470802,-1.696833 -1.946409,-2.639338 -0.232869,-0.461475 -0.253084,-0.553415 -0.15206,-0.691574 0.10822,-0.148001 0.171316,-0.109843 0.886413,0.536067 0.423444,0.382476 0.930984,0.820014 1.127867,0.972307 0.434659,0.336219 1.355589,0.781561 1.770861,0.856349 0.415814,0.07489 0.521346,0.178677 0.521346,0.512745 0,0.22557 -0.09653,0.387647 -0.459398,0.771379 -0.656844,0.694603 -0.748698,0.677902 -1.74862,-0.317935 z"
     id="path3450"
     inkscape:connector-curvature="0" /><path
     style="fill:#e3dedb"
     d="m 23.794344,26.114809 c -0.713157,-0.670887 -1.390943,-1.699111 -1.120023,-1.699111 0.101844,0 1.61627,0.412618 2.424223,0.660499 0.19558,0.06001 0.411779,0.475918 0.411779,0.792162 0,0.13465 -0.09916,0.390748 -0.22036,0.569107 -0.181474,0.267063 -0.272202,0.324289 -0.514136,0.324289 -0.245892,0 -0.405868,-0.105449 -0.981483,-0.646946 z"
     id="path3452"
     inkscape:connector-curvature="0" /><path
     style="fill:#e3dedb"
     d="m 24.033176,21.221385 c -1.051315,-1.079448 -1.882878,-2.267885 -2.519647,-3.600977 -0.530707,-1.11105 -0.601577,-1.430056 -0.377648,-1.699889 0.279532,-0.336832 0.467286,-0.176313 1.177015,1.006281 0.983909,1.639451 1.667091,2.561692 2.616726,3.532368 0.95434,0.975485 1.095036,1.264662 0.745908,1.533082 -0.445346,0.342395 -0.653061,0.2449 -1.642354,-0.770865 z"
     id="path3454"
     inkscape:connector-curvature="0" /><path
     style="fill:#e3dedb"
     d="m 27.879873,15.162227 c -0.488875,-0.502417 -0.952621,-1.010793 -1.030548,-1.129725 -0.277502,-0.423521 -0.14349,-0.560294 1.306641,-1.333568 l 1.348351,-0.719002 0.616037,0.398512 c 0.744418,0.481562 1.009399,0.754738 1.119745,1.154379 0.134364,0.486625 0.01865,0.782598 -0.539025,1.378758 -0.714992,0.764329 -1.276102,1.162393 -1.639862,1.163357 -0.25752,6.77e-4 -0.398716,-0.108407 -1.181339,-0.912711 z"
     id="path3456"
     inkscape:connector-curvature="0" /><path
     style="fill:#d5f6ff"
     d="m 43.599725,34.838277 c -1.986468,-0.728872 -3.834863,-2.88067 -4.364543,-5.080955 -0.479619,-1.99233 1.382298,-4.749642 3.581146,-5.303319 1.411223,-0.35535 3.77382,-0.148948 4.742976,0.414357 0.405052,0.23543 0.99624,0.809154 1.31375,1.274943 0.509879,0.747994 0.56521,1.062134 0.473829,2.690126 -0.118707,2.114821 -1.027219,4.448851 -2.150647,5.525163 -0.845787,0.810316 -2.202314,0.991243 -3.596511,0.479685 z"
     id="path3466"
     inkscape:connector-curvature="0" /><path
     style="fill:#d5f6ff"
     d="m 65.376498,32.290273 c -2.394247,-0.728297 -3.459348,-2.130274 -3.629209,-4.777074 -0.134935,-2.102573 0.29136,-3.281671 1.514943,-4.190212 1.697332,-1.26031 5.104518,-1.771821 6.874901,-1.032108 1.892254,0.790635 2.460144,2.833287 1.752404,6.303255 -0.52328,2.565582 -0.784163,3.137225 -1.631793,3.575552 -0.724457,0.37463 -3.796588,0.450525 -4.881246,0.120587 z"
     id="path3468"
     inkscape:connector-curvature="0" /></svg>