<?xml version="1.0" encoding="iso-8859-1"?>
<!-- Generator: Adobe Illustrator 19.0.0, SVG Export Plug-In . SVG Version: 6.00 Build 0)  -->
<svg version="1.1" id="Capa_1" xmlns="http://www.w3.org/2000/svg" xmlns:xlink="http://www.w3.org/1999/xlink" x="0px" y="0px"
	 viewBox="0 0 127.559 127.559" style="enable-background:new 0 0 127.559 127.559;" xml:space="preserve">
<g id="_x30_103-walking-dead-arrow">
	<g>
		<path style="fill-rule:evenodd;clip-rule:evenodd;" d="M127.28,91.639c-0.517-1.202-0.714-2.567-1.192-3.814
			c-1.186-3.104-2.968-6.344-4.749-9.134c-1.963-3.08-3.871-7.113-7.215-8.715c-1.506-0.722-3.904,0.56-4.157,2.156
			c-0.232,1.46-0.017,3.261-0.837,4.564c-2.818-1.912-5.814-3.538-8.714-5.318c-0.865-0.532-1.722-1.076-2.562-1.648
			c0.267-0.564,0.554-1.117,0.861-1.659c0.747-1.327,1.597-2.593,2.443-3.858c1.621-2.42,3.66-4.982,3.66-7.97
			c0-3.846-4.651-2.474-6.965-2.432c-0.139-0.985,0.107-1.863,0.276-2.819c0.287-1.635,0.104-1.493,1.754-2.182
			c1.071-0.446,1.908-1.189,3.021-1.413c0.83-0.165,1.689-0.501,2.169-1.242c1.265-1.949-1.235-3.159-2.841-2.889
			c-1.715,0.291-3.062,1.455-4.711,1.922c-0.148-1.635-1.04-3.045-1.327-4.644c0.695-1.186,1.938-1.332,2.918-2.14
			c1.657-1.367,4.112-1.851,5.606-3.43c1.919-2.025-0.488-3.253-2.405-2.99c-1.916,0.261-4.056,1.68-5.549,2.829
			c-1.024,0.789-2.173,2.321-3.055,1.003c-0.695-1.039-1.327-2.399-2.276-3.225c-0.827-0.72-1.928-1.437-1.218-2.607
			c0.579-0.953,1.406-1.708,2.124-2.549c1.382-1.615,2.453-4.317-0.644-4.274c-1.975,0.028-3.296,1.882-4.355,3.309
			c-0.646,0.872-1.308,2.453-2.291,1.671c-0.972-0.775-1.566-1.456-2.629-2.079c-1.982-1.16-0.568-3.318-0.622-5.121
			c-0.033-1.102-0.893-2.186-2.06-1.7c-1.15,0.479-1.257,2.073-1.539,3.107c-0.173,0.637,0.08,0.77-0.604,0.67
			c-0.493-0.071-1.082-0.666-1.561-0.859c-0.788-0.317-1.604-0.559-2.344-0.982c-2.16-1.234,0.03-3.959-1.718-5.495
			c-2.121-1.86-2.683,1.25-2.963,2.524c-0.448,2.049-5.209,0.31-6.796-0.021c-1.448-0.301-0.84-2.403-0.982-3.739
			c-0.119-1.122-0.362-2.275-1.439-2.856c-0.011-0.006-0.023-0.012-0.033-0.018c-2.903-1.532-2.766,2.853-2.699,4.473
			c0.032,0.758,0.065,1.523-0.003,2.28c-0.929-0.064-1.858-0.031-2.783,0.08c-1.104,0.129-4.082,1.183-4.301-0.05
			c-0.227-1.274-0.374-2.936-1.465-3.812c-1.262-1.012-2.864-0.274-3.072,1.316c-0.153,1.175,0.207,2.445,0.482,3.573
			c0.344,1.396-0.432,1.009-1.541,1.472c-1.591,0.666-3.034,1.619-4.567,2.397c-0.692-1.51-0.559-3.803-2.025-4.863
			c-2.081-1.507-3.086,1.027-2.726,2.75c0.359,1.716,1.944,4.359,0.53,5.918c-0.677,0.746-1.551,1.155-2.11,2.024
			c-0.41,0.638-0.824,1.301-1.628,1.468c-0.066-1.202-2.5-6.857-4.094-4.432c-0.838,1.273-0.49,2.769,0.042,4.085
			c0.246,0.604,0.455,1.23,0.768,1.797c0.115,0.208,1.224,1.468,1.14,1.622c-0.479,0.885-0.752,1.985-1.254,2.9
			c-0.234,0.427-0.634,1.072-0.997,1.075c-0.616,0.005-1.178-0.674-1.656-0.981c-0.615-0.394-1.303-0.757-1.956-1.087
			c-0.784-0.396-1.557-0.823-2.274-1.332c-0.251-0.177-0.421-1.661-0.519-2.003c-0.222-0.783-0.391-1.575-0.529-2.386
			c-0.205-1.206-0.371-2.42-0.491-3.637c-0.057-0.583-0.035-2.874-0.45-3.25c-0.65-0.591-1.369-1.103-2.112-1.57
			c-1.532-0.96-3.17-1.731-4.742-2.621c-2.451-1.387-4.565-2.984-7.262-3.817c-2.066-0.637-3.276-1.229-2.964,1.541
			c0.347,3.077,0.998,5.989,1.668,8.982c0.312,1.394-1.504,0.943-2.553,1.575c-0.744,0.451-1.592,2.13-0.708,2.828
			c1.219,0.96,4.339-1.219,4.743,1.042c-1.035,0.842-1.954-0.223-3.017-0.352c-0.85-0.104-0.675,0.389-1.388,0.591
			c-0.953,0.27-0.349,0.396-0.874,1.116c-1.554,2.132,2.132,4.905,3.638,5.925c2.607,1.764,5.14,3.528,7.664,5.397
			c2.351,1.743,4.611,1.97,6.984,0.239c1.255-0.914,2.287-2.153,3.686-2.865c0.57-0.292,1.309-0.568,1.964-0.521
			c0.254,0.018,2.187,0.717,2.313,0.437c-0.791,1.757-0.822,4.4-0.737,6.284c-2.509-0.077-5.001,2.575-1.673,3.662
			c2.621,0.856,2.251,4.862,2.668,7.283c-1.922-0.273-3.528,0.7-4.455,2.262c-1.272,2.146-0.495,3.518-0.189,5.698
			c1.485,1.475,3.341,2.509,5.316,3.176c2.413,0.814,4.28,2.333,6.516,3.565c2.233,1.231,3.763,3.022,5.484,4.93
			c0.825,0.913,1.605,1.872,2.252,2.921c0.031,1.406,0.096,2.81,0.185,4.214c0.324,5.123,0.955,10.222,1.142,15.354
			c-5.294,0-10.671-0.366-15.397,2.291c-1.321,0.742-3.381,0.938-3.771,2.696c-0.435,1.958,1.786,2.474,3.248,2.309
			c-1.423,1.444-3.72,3.683-4.312,5.637c-1.044,3.447,3.14,2.69,4.312,0.664c1.974-1.655,3.363-3.884,5.303-5.531
			c1.484-1.258,3.247-3.181,5.311-3.424c-1.554,1.616-3.323,3.766-4.2,5.859c-0.459,1.099-0.77,4.947,1.587,3.469
			c1.077-0.677,1.231-2.022,2.188-2.786c0.983-0.785,1.422-1.896,2.357-2.652c1.713-1.385,2.53-3.718,4.701-4.553
			c0.128,0.741,0.415,1.482,0.994,1.991c-0.306,0.55-0.691,1.05-1.104,1.525c-0.818,0.94-1.741,1.8-2.371,2.887
			c-0.558,0.96-1.537,3.301-0.242,3.857c0.97,0.417,1.943,0.277,2.753-0.393c0.946-0.784,1.556-1.902,2.282-2.874
			c0.973-1.3,1.321-1.559,2.558-0.319c1.281,1.284,2.512,1.678,4,2.615c1.4,0.884,2.357,2.054,3.961,2.423
			c3.719,0.859,7.629-0.054,11.477,0.067c3.383,0.107,6.792,0.034,10.148-0.441c3.141-0.446,6.37-1.238,9.078-2.958
			c1.085-0.689,2.073-1.539,2.86-2.559c0.784-1.016,0.481-3.405,0.358-4.703c-0.24-2.515,2.663-0.898,4.142-0.45
			c1.796,0.544,3.563,1.182,5.3,1.895c2.46,1.009,4.446,2.803,6.591,4.322c1.542,1.09,5.801,4.848,7.137,1.392
			c1.158-2.993-4.596-5.824-6.535-6.987c-3.283-1.97-6.53-3.817-10.352-4.829c-1.389-0.367-2.863-0.578-4.281-0.771
			c-1.216,0.501-2.601,1.071-2.703-0.571c-0.468-7.517-2.356-15.432-0.424-22.882c0.33-1.276,0.321-2.248,1.628-2.423
			c0.661-0.089,1.204-0.423,1.802-0.686c1.765-0.777,3.48,0.955,4.921,1.881c1.453,0.934,2.902,1.922,4.394,2.792
			c0.813,0.639,2.178,0.737,2.322,1.99c-2.459,0.695-6.522,0.591-7.745,3.342c-1.504,3.381,4.499,4.094,6.482,4.884
			c2.559,1.019,5.465,1.084,8.15,2.032c1.965,0.693,3.884,1.534,5.839,2.238c1.084,0.39,2.306,0.547,3.44,0.801
			c1.585,0.355,3.849,1.226,5.423,0.453C127.79,93.249,127.662,92.528,127.28,91.639z M13.862,30.342
			c0.011-2.024,0.415-4.011,0.415-6.048c3.083,0.262,2.308,3.242,2.524,5.569c0.06,0.643,0.937,2.474-0.468,1.973
			c-0.577-0.206-1.14-0.467-1.723-0.662c-0.15-0.051-0.271-0.081-0.367-0.102C13.853,30.984,13.858,31.029,13.862,30.342z
			 M6.782,18.777c0.678,0.429,1.228,1.02,1.857,1.538c1.031,0.848,1.978,0.891,1.95,2.278c-0.04,2.015,0.236,4.009,0.372,6.013
			c-2.022,0.144-2.83-2.369-3.244-3.912c-0.275-1.03-0.39-2.027-0.856-2.972c-0.521-1.057-1.009-2.177-1.025-3.386
			C6.184,18.441,6.494,18.593,6.782,18.777z M5.905,36.069c-0.296-0.12-1.257-0.582-1.333-0.908
			c-0.157-0.674,0.75-0.692,1.165-0.831c1.125-0.378,2.179-0.815,3.327-1.106c0.365-0.092,0.607-0.217,0.898-0.227
			c0.145-0.005,0.302,0.017,0.493,0.088c0.171,0.063,1.091,0.906,1.168,0.829c-0.943,0.962-2.046,1.062-3.215,1.598
			C7.506,35.925,6.85,36.452,5.905,36.069z M14.839,40.884c-1.068-0.544-2.349-1.436-3.242-2.19
			c-0.942-0.797,2.615-2.236,3.26-2.459c0.267-0.092,0.525-0.117,0.774-0.095c1.2,0.106,2.23,1.329,3.289,1.753
			C18.123,38.999,16.215,41.585,14.839,40.884z M26.216,62.766c1.857,0.244,3.829,0.372,3.98,2.322
			C28.629,64.554,26.255,64.828,26.216,62.766z M91.707,57.836c-0.523,0.355-0.693,0.36-0.761,1.008
			c-0.317,2.993-1.219,6.771-2.252,9.798c-0.543,1.596-1.208,3.15-1.99,4.643c-0.916,1.747-1.043,3.398-1.323,5.354
			c-0.585,4.078-1.095,8.211-0.463,12.318c-1.87-0.356-1.375-3.549-1.975-4.848c-0.975-2.111-0.807-3.928-3.016-5.284
			c-3.45-2.118-9.923,0.786-13.074,2.845c-1.974,1.29-3.916,2.85-6.04,3.951c-1.774,0.92-5.84,2.292-6.661,4.01
			c-1.086,2.273-1.425,3.495,0.699,5.225c0.93,0.758,1.788,1.682,2.986,2.002c0.795,0.212,1.452-0.016,1.982,0.685
			c0.701,0.923,0.673,1.2,2.026,1.026c0.873-0.113,1.783-0.404,2.348,0.5c0.328,0.524,0.284,1.13,1.075,1.164
			c0.659,0.028,1.051-0.558,1.391-1.078c0.382-0.585,2.105-3.208,2.257-0.995c0.122,1.771-0.704,3.18,1.076,4.455
			c1.322,0.946,2.349-0.313,2.407-1.638c0.04-0.915,0.234-1.231,1.105-1.104c0.65,0.095,1.022,0.911,1.554,0.665
			c0.329-0.153,0.599-0.748,0.745-1.055c0.381-0.799,1.161-1.727,2.152-0.927c0.893,0.72-0.098,1.6-0.646,2.197
			c-0.87,0.946-0.348,2.364,0.513,3.148c0.794,0.724,1.828,0.803,2.852,0.601c2.127-0.422,1.911-3.967,1.262-5.434
			c-0.23-0.522-0.784-0.732-1.063-1.176c-0.651-1.04,0.506-1.522,1.23-1.976c0.708-0.446,1.074-0.819,1.372-1.607
			c0.366-0.967-0.073-3.737,1.444-3.693c0.49,5.302,1.172,10.582,0.995,15.919c-4.862,0.986-9.865,1.276-14.817,1.345
			c-2.642,0.038-5.284-0.002-7.923-0.103c-2.653-0.101-4.94,0.096-7.063-1.703c-3.696-3.131-6.371-6.988-6.384-11.957
			c-0.008-3.469,0.223-6.933,0.342-10.399c0.051-1.515,0.092-2.945-0.16-4.423c-0.228-1.332-0.016-2.718-0.85-3.892
			c-0.547-0.77-1.23-1.423-1.843-2.138c-0.619-0.725-1.163-1.476-1.599-2.324c-0.538-1.047-1.735-1.536-2.767-2.006
			c-1.116-0.509-2.28-0.908-3.452-1.266c-1.359-0.415-2.497-1.547-3.311-2.674c-0.75-1.037-1.096-2.248-1.638-3.399
			c-0.621-1.318-0.908-2.599-1.266-3.986c-0.278-1.076-0.989-1.947-1.251-3.036c-0.298-1.252-0.532-2.485-0.739-3.756
			c1.364,0.268,4.035,0.882,4.811-0.771c0.836-1.779-1.793-2.857-3.052-3.147c-1.715-0.393-2.216-0.088-2.118-2.079
			c0.104-2.079-0.396-4.211-0.059-6.276c0.15-0.912,0.248-1.252,1.081-0.974c1.362,0.455,1.722,2.151,3.386,1.568
			c1.519-0.533,1.572-2.23,0.797-3.42c-0.82-1.26-1.045-1.783,0.118-3.028c0.768-0.823,1.776-1.426,2.331-2.436
			c1.618,2.018,3.773,8.577,6.953,4.133c2.012-2.813-6.11-5.544-1.093-8.167c0.685-0.358,1.395-0.691,2.115-0.992
			c1.358-0.567,1.354-0.124,1.662,1.094c0.422,1.668,1.034,3.572,2.966,3.932c4.791,0.309,0.107-6.287,1.327-6.633
			c-0.259,0.073,1.19-0.689,0,0c1.07-0.62,5.26-0.785,5.402,0.318c0.2,1.547,0.108,3.544,1.141,4.83
			c0.983,1.221,3.085,1.025,3.686-0.475c0.576-1.441,0.037-3.233-0.279-4.673c1.421-0.085,2.721,0.294,4.073,0.666
			c1.752,0.482,1.272,0.326,1.779,1.972c0.696,2.261,3.414,2.293,4.098,0.015c1.282,0.567,3.985,0.909,3.942,2.442
			c-0.032,1.109-0.04,2.76,1.129,3.349c0.692,0.348,2.146,0.141,2.429-0.745c0.483-1.509,0.746-1.036,2.116-0.235
			c1.008,0.589,2.072,1.086,3.184,1.441c0.41,0.131,0.827,0.275,1.206,0.483c0.542,0.296,0.622,0.574,0.862,1.104
			c0.572,1.268,1.237,2.535,2.017,3.689c1.964,2.905,3.014,6.559,3.014,10.03v5.97C92.215,56.506,92.387,57.374,91.707,57.836z
			 M76.558,92.297c1.143-0.058,3.055-0.434,3.055,1.148c0,0.825-1.217,1.565-1.952,1.577c-0.375,0.005-0.633-0.118-0.807-0.32
			C76.382,94.153,76.52,93.021,76.558,92.297z M76.417,88.619c-0.193-0.051-0.329-0.1-0.372-0.147
			c-0.513-0.57-1.135-3.673-0.082-3.9c1.18-0.252,2.153-0.437,2.415,0.931c0.249,1.299,0.917,2.439,0.902,3.796
			C79.283,89.09,77.279,88.843,76.417,88.619z M73.31,88.635h-2.736c-0.94,0.305-1.243-0.028-0.911-0.994
			c0.269-0.788,0.185-1.081,0.98-1.521c0.27-0.149,1.193-0.662,1.681-0.737c0.102-0.015,0.185-0.011,0.239,0.018
			C73.553,85.956,72.523,87.964,73.31,88.635z M70.326,92.284C69.374,92.94,70.876,91.728,70.326,92.284
			c0.672-0.679,2.148-0.278,2.984-0.332c0.408,1.036,0.388,2.225,0.332,3.317c-1.105,0-3.125,0.509-3.363-0.599
			C70.128,93.971,69.528,92.834,70.326,92.284z M65.828,91.936c-0.603,0.827-2.384,0.966-3.279,1.165
			c-0.5,0.111-0.134-1.633-0.063-1.791c0.292-0.653,0.782-1.202,1.371-1.593c0.109-0.074,0.258-0.189,0.426-0.31
			c0.605-0.439,1.226-0.786,1.615-0.034C66.169,89.899,66.184,91.448,65.828,91.936z M60.708,94.605
			c-1.547,0.22-2.131-0.522-3.317-0.664C58.091,92.543,61.035,91.92,60.708,94.605z M93.875,67.408
			c-0.019,0.028-0.356-1.488-0.342-1.687c0.057-0.784,0.383-1.534,0.571-2.292c0.247-0.995,0.619-1.988,0.994-2.986
			c0.548-1.462,0.963-1.396,2.344-1.735c0.439-0.108,1.357-0.699,1.775-0.313c0.118,0.108,0.166,0.229,0.166,0.356
			c-0.001,0.551-0.923,1.222-1.179,1.528C96.471,62.354,95.447,65.181,93.875,67.408z M117.772,88.018
			c-1.654-0.597-3.308-1.201-4.98-1.75c-1.607-0.529-3.231-1.017-4.881-1.398c-0.458-0.106-2.446-0.254-2.328-0.957
			c0.066-0.391,1.962-0.935,2.287-1.046c1.169-0.398,2.38-0.403,3.482,0.201c1.664,0.91,3.085,1.933,5.073,1.92
			c1.843-0.66,2.152-2.728,0.643-3.96c-0.742-0.607-1.805-1.06-2.722-1.325c-0.391-0.113-1.002-0.148-1.409-0.391
			c-0.218-0.132-0.378-0.325-0.413-0.625c-0.031-0.274,1.227-4.711,0.916-4.644c1.142-0.247,4.488,6.61,4.975,7.629
			c1.496,2.577,3.182,5.049,3.98,7.959C122.276,89.193,118.342,88.222,117.772,88.018z M69.664,35.239
			c0.461-1.019,0.369-2.282-0.498-3.059c-0.645-0.576-1.436-0.895-2.095-0.485c-0.188,0.118-0.367,0.297-0.527,0.546
			c-0.57,0.886-0.623,1.731,0.1,2.555C67.414,35.678,68.66,35.728,69.664,35.239z M84.042,38.78
			c0.449,0.005,1.026-0.198,1.247-0.627c0.115-0.222,0.121-0.549,0.053-0.879c-0.095-0.463-0.335-0.934-0.627-1.134
			c-0.673-0.462-1.723,0.033-2.02,0.708C82.26,37.841,83.004,38.769,84.042,38.78z M54.51,39.77
			c0.506-0.065,1.154-0.399,1.332-0.918c0.092-0.269,0.088-0.59,0.008-0.903c-0.136-0.543-0.496-1.059-0.961-1.228
			c-0.836-0.304-1.875,0.172-2.131,1.024C52.403,38.926,53.295,39.924,54.51,39.77z M58.533,53.071
			c-0.357-2.855-4.375-4.073-6.475-5.34c-1.334-0.805-2.994-1.299-4.462-1.795c-0.891-0.303-1.714-0.397-2.467-0.321
			c-2.488,0.254-4.195,2.385-5.005,5.108c-0.627,2.111-1.972,6.307-0.616,8.25c2.781,3.989,6.249,6.444,11.299,6.188
			c2.372-0.12,4.814-2.773,6.061-4.657C58.323,58.302,58.86,55.68,58.533,53.071z M54.186,55.389
			c-0.388,0.986-1.46,1.544-2.338,1.918c-1.89,0.805-5.748-0.946-5.403-3.297c0.161-1.088,0.522-2.64,1.265-3.496
			c1.004-1.155,3.384-0.609,4.375,0.313c0.47,0.438,1.016,0.932,1.459,1.489C54.223,53.175,54.657,54.187,54.186,55.389z
			 M85.243,51.396c-0.517-2.219-1.654-4.08-3.474-4.73c-0.834-0.298-1.81-0.341-2.935-0.05c-1.946,0.505-3.976,1.179-5.854,1.89
			c-2.051,0.775-4.225,1.456-5.691,3.178c-1.268,1.49-0.92,3.913-0.103,5.549c0.993,1.986,2.653,3.754,4.474,5.007
			c1.528,1.055,5.989,1.437,7.952,1.189c0.697-0.088,1.91-0.837,2.553-1.185C86.316,60.001,86.184,55.442,85.243,51.396z
			 M75.632,56.796c-5.409,1.182-5.516-7.18-0.331-6.301C76.749,51.43,77.335,55.645,75.632,56.796z M87.38,62.917
			c-0.51-0.206-1.23-0.13-1.853,0.151c-1.191,0.536-2.218,1.658-3.499,1.972c-1.712,0.419-2.678,1.548-1.31,2.922
			c2.044,2.05,6.586-1.307,7.222-3.388C88.222,63.657,87.918,63.133,87.38,62.917z M60.071,64.561
			c-1.309,0.441-1.734,3.602-1.925,4.742c-0.323,1.929,2.176,2.498,3.558,2.087c0.795-0.237,1.288-3.586,1.338-4.263
			c0.035-0.473-0.028-0.922-0.172-1.313C62.471,64.739,61.443,64.099,60.071,64.561z M67.202,64.09
			c-0.636-0.128-1.247,0.007-1.733,0.451c-2.205,2.022,0.394,7.011,3.321,6.658c0.081-0.01,0.158-0.024,0.232-0.045
			c1.36-0.358,1.688-2.302,1.387-3.479C70.035,66.207,68.786,64.41,67.202,64.09z"/>
	</g>
</g>
<g>
</g>
<g>
</g>
<g>
</g>
<g>
</g>
<g>
</g>
<g>
</g>
<g>
</g>
<g>
</g>
<g>
</g>
<g>
</g>
<g>
</g>
<g>
</g>
<g>
</g>
<g>
</g>
<g>
</g>
</svg>
