<?xml version="1.0" encoding="iso-8859-1"?>
<!-- Generator: Adobe Illustrator 16.0.0, SVG Export Plug-In . SVG Version: 6.00 Build 0)  -->
<!DOCTYPE svg PUBLIC "-//W3C//DTD SVG 1.1//EN" "http://www.w3.org/Graphics/SVG/1.1/DTD/svg11.dtd">
<svg version="1.1" id="Capa_1" xmlns="http://www.w3.org/2000/svg" xmlns:xlink="http://www.w3.org/1999/xlink" x="0px" y="0px"
	 width="45.165px" height="45.165px" viewBox="0 0 45.165 45.165" style="enable-background:new 0 0 45.165 45.165;"
	 xml:space="preserve">
<g>
	<g>
		<path d="M44.159,43.286l-2.641-10.047c1.551-1.195,2.562-3.119,2.562-5.291c0-2.103-0.943-3.976-2.409-5.177
			c-0.065-0.631-0.157-1.296-0.271-1.969c0.556-0.173,1.11-0.342,1.662-0.53c0.783-0.268,1.201-1.121,0.933-1.904
			c-0.144-0.42-0.456-0.729-0.834-0.891c-0.329-0.14-0.707-0.168-1.071-0.043c-0.448,0.154-0.903,0.291-1.358,0.434
			c-0.52,0.164-1.037,0.323-1.562,0.473c-0.413,0.118-0.826,0.231-1.241,0.34c-0.352,0.092-0.701,0.183-1.054,0.269
			c-0.044,0.01-0.087,0.019-0.13,0.029c-0.998,0.24-2.002,0.451-3.011,0.64c-7.371,1.378-14.972,1.372-22.342-0.018
			c-0.994-0.188-1.986-0.397-2.973-0.636c-0.023-0.005-0.047-0.01-0.07-0.016c-0.384-0.094-0.766-0.193-1.146-0.294
			c-0.403-0.106-0.807-0.215-1.208-0.33c-0.503-0.145-1.005-0.3-1.503-0.458c-0.453-0.143-0.908-0.278-1.357-0.433
			c-0.363-0.125-0.74-0.096-1.07,0.043c-0.377,0.161-0.69,0.471-0.834,0.891c-0.27,0.783,0.148,1.637,0.933,1.904
			c0.55,0.188,1.106,0.357,1.661,0.53c-0.109,0.651-0.199,1.299-0.266,1.912c-1.504,1.2-2.478,3.1-2.478,5.23
			c0,2.197,1.036,4.144,2.618,5.335l-2.691,9.995c-0.121,0.449-0.025,0.933,0.258,1.304c0.284,0.369,0.725,0.586,1.19,0.586h40.25
			c0.465,0,0.903-0.215,1.188-0.584C44.181,44.214,44.276,43.734,44.159,43.286z M22.583,39.177c-1.043,0-1.979,0.189-2.645,0.488
			l0.486-2.113h4.347l0.474,2.123C24.577,39.37,23.636,39.177,22.583,39.177z M5.083,27.948c0-0.593,0.182-1.13,0.475-1.563
			c0.407-0.604,1.041-1,1.764-1c0.015,0.023,0.025,0.049,0.039,0.072c0.328,0.553,0.705,1.084,1.125,1.594
			c0.006,0.008,0.011,0.016,0.017,0.021c-0.004-0.016-0.007-0.029-0.011-0.045c-0.272-0.939-0.454-1.9-0.551-2.863
			c-0.049-0.48-0.082-0.965-0.082-1.447c0-0.019,0.002-0.033,0.002-0.053c0.002-0.254,0.024-0.496,0.039-0.743
			c1.186,0.282,2.377,0.53,3.574,0.743c0.848,0.15,1.697,0.284,2.549,0.4c-0.242,0.312-0.401,0.688-0.453,1.1
			c-0.012,0.092-0.027,0.182-0.027,0.273c0,0.453,0.137,0.873,0.368,1.227c0.401,0.615,1.094,1.023,1.882,1.023
			s1.48-0.408,1.882-1.023c0.231-0.354,0.368-0.771,0.368-1.227c0-0.095-0.018-0.185-0.027-0.273
			c-0.031-0.246-0.097-0.479-0.199-0.693c1.598,0.121,3.199,0.188,4.801,0.188c1.58,0,3.16-0.066,4.736-0.185
			c-0.104,0.213-0.168,0.445-0.199,0.689c-0.01,0.09-0.026,0.18-0.026,0.273c0,0.453,0.139,0.873,0.368,1.227
			c0.4,0.613,1.094,1.023,1.882,1.023s1.479-0.41,1.883-1.023c0.229-0.354,0.367-0.771,0.367-1.227c0-0.095-0.017-0.185-0.025-0.273
			c-0.053-0.408-0.209-0.781-0.447-1.092c0.869-0.117,1.738-0.254,2.604-0.408c1.179-0.209,2.349-0.452,3.515-0.729
			c0.014,0.242,0.037,0.479,0.037,0.729c0,0.02,0.004,0.034,0.004,0.053c0,0.481-0.033,0.965-0.082,1.448
			c-0.09,0.892-0.256,1.778-0.498,2.651c-0.021,0.086-0.039,0.17-0.063,0.254c0.034-0.041,0.063-0.086,0.1-0.127
			c0.402-0.5,0.766-1.02,1.082-1.561c0.021,0,0.041,0.006,0.062,0.008c0.835,0.025,1.545,0.572,1.909,1.363
			c0.131,0.283,0.215,0.596,0.244,0.928c0.008,0.088,0.021,0.174,0.021,0.264c0,0.867-0.378,1.632-0.955,2.097
			c-0.363,0.291-0.806,0.467-1.286,0.467c-0.051,0-0.098-0.014-0.146-0.018c-0.235-0.019-0.463-0.07-0.674-0.164
			c-1.319,3.83-4.168,6.959-7.823,8.694l-0.871-3.907c-0.204-0.914-1.017-1.564-1.952-1.564H18.84c-0.932,0-1.738,0.644-1.949,1.552
			l-0.898,3.899c-3.643-1.744-6.477-4.869-7.786-8.692c-0.198,0.096-0.415,0.146-0.64,0.174c-0.078,0.01-0.153,0.026-0.234,0.026
			c-0.449,0-0.864-0.153-1.214-0.411c-0.584-0.431-0.972-1.16-1.015-2C5.095,28.048,5.083,27.999,5.083,27.948z"/>
		<ellipse cx="22.583" cy="30.573" rx="2.5" ry="1"/>
		<path d="M2.164,14.565c0.071,0.025,0.146,0.046,0.219,0.07c0.71,0.24,1.425,0.469,2.142,0.683c0.304,0.091,0.609,0.17,0.914,0.256
			c0.412,0.116,0.824,0.231,1.238,0.339c0.012,0.003,0.022,0.006,0.033,0.009c0.884,0.229,1.77,0.44,2.661,0.631
			c0.037,0.008,0.073,0.019,0.11,0.025c0.002,0,0.002,0,0.004,0.001c4.32,0.912,8.725,1.373,13.129,1.373
			c4.386,0,8.771-0.456,13.073-1.36c0.015-0.003,0.026-0.007,0.043-0.01c0.015-0.003,0.027-0.007,0.043-0.011
			c0.899-0.19,1.797-0.403,2.688-0.634c0.003-0.001,0.006-0.002,0.011-0.003c0.438-0.113,0.877-0.235,1.312-0.359
			c0.278-0.079,0.562-0.149,0.841-0.232c0.744-0.221,1.482-0.459,2.222-0.708c0.07-0.024,0.146-0.045,0.217-0.069
			c0.783-0.268,1.201-1.121,0.934-1.904c-0.268-0.784-1.121-1.202-1.905-0.934c-0.199,0.069-0.402,0.127-0.604,0.193
			c0-0.058,0.014-0.113,0.014-0.171C41.501,5.161,33.191,0,22.584,0C11.979,0,3.667,5.162,3.667,11.75c0,0.051,0.012,0.1,0.012,0.15
			c-0.18-0.06-0.361-0.111-0.541-0.173c-0.783-0.269-1.638,0.149-1.904,0.934C0.962,13.444,1.38,14.298,2.164,14.565z"/>
	</g>
</g>
<g>
</g>
<g>
</g>
<g>
</g>
<g>
</g>
<g>
</g>
<g>
</g>
<g>
</g>
<g>
</g>
<g>
</g>
<g>
</g>
<g>
</g>
<g>
</g>
<g>
</g>
<g>
</g>
<g>
</g>
</svg>
