<?xml version="1.0" encoding="iso-8859-1"?>
<!-- Generator: Adobe Illustrator 19.0.0, SVG Export Plug-In . SVG Version: 6.00 Build 0)  -->
<svg version="1.1" id="Capa_1" xmlns="http://www.w3.org/2000/svg" xmlns:xlink="http://www.w3.org/1999/xlink" x="0px" y="0px"
	 viewBox="0 0 463.001 463.001" style="enable-background:new 0 0 463.001 463.001;" xml:space="preserve">
<g>
	<path d="M151.5,263c4.142,0,7.5-3.357,7.5-7.5v-16c0-4.143-3.358-7.5-7.5-7.5s-7.5,3.357-7.5,7.5v16
		C144,259.643,147.358,263,151.5,263z"/>
	<path d="M311.5,263c4.142,0,7.5-3.357,7.5-7.5v-16c0-4.143-3.358-7.5-7.5-7.5s-7.5,3.357-7.5,7.5v16
		C304,259.643,307.358,263,311.5,263z"/>
	<path d="M456.188,360.032c-20.397-1.878-38.012-3.041-54.814-3.035c0.91-1.83,1.788-3.681,2.605-5.57
		c13.478-31.148,13.908-70.783,1.243-114.618c-7.09-24.543-16.3-43.823-20.687-52.322c24.444-28.946,41.484-59.091,49.39-87.44
		c7.277-26.094,6.728-50.478-1.548-68.661C424.168,10.346,409.269,0,391.5,0c-34.502,0-57.128,23.003-77.091,43.298
		C299.26,58.7,286.177,72,271.5,72h-40h-40c-14.677,0-27.76-13.301-42.909-28.702C128.629,23.003,106.003,0,71.5,0
		C53.732,0,38.832,10.346,30.623,28.384c-8.275,18.184-8.825,42.567-1.548,68.661c7.906,28.35,24.946,58.494,49.39,87.44
		c-4.386,8.499-13.596,27.779-20.687,52.322c-12.665,43.835-12.234,83.47,1.243,114.618c0.817,1.889,1.695,3.74,2.605,5.57
		c-16.802-0.005-34.417,1.157-54.814,3.036c-4.125,0.38-7.16,4.032-6.78,8.156c0.38,4.125,4.034,7.168,8.156,6.781
		c23.95-2.207,43.576-3.412,62.433-2.894c5.955,8.409,13.089,16.052,21.384,22.919c-20.995,8.695-41.196,22.195-57.87,39.266
		c-2.895,2.963-2.838,7.711,0.125,10.605C35.719,446.29,37.61,447,39.5,447c1.949,0,3.896-0.755,5.366-2.26
		c17.653-18.073,39.507-31.75,61.685-39.255c15.518,9.778,34.075,17.496,55.62,23.096C176.243,449.859,202.6,463,231.5,463
		c29.11,0,55.268-13.095,69.33-34.418c21.545-5.601,40.102-13.319,55.62-23.097c22.177,7.505,44.032,21.181,61.685,39.255
		c1.469,1.505,3.417,2.26,5.366,2.26c1.89,0,3.781-0.71,5.24-2.135c2.963-2.895,3.019-7.643,0.125-10.605
		c-16.674-17.071-36.876-30.571-57.87-39.266c8.296-6.866,15.429-14.51,21.384-22.919c18.857-0.518,38.483,0.687,62.433,2.894
		c4.13,0.388,7.776-2.656,8.156-6.781C463.349,364.064,460.313,360.411,456.188,360.032z M72.808,345.518
		c-29.415-67.887,20.7-157.411,21.208-158.304c1.579-2.771,1.233-6.235-0.861-8.64C37.691,114.901,32.16,61.22,44.275,34.598
		C50.027,21.96,59.696,15,71.5,15c19.273,0,34.437,9.209,48.095,21.127c0.122,0.169,0.246,0.337,0.384,0.498
		c13.025,15.233,16.952,34.548,11.673,57.406c-1.199,5.19-2.793,10.202-4.615,14.956c-7.794-12.152-21.79-19.754-30.546-20.921
		c-4.109-0.548-7.878,2.338-8.425,6.443c-0.547,4.106,2.337,7.878,6.443,8.426c7.099,0.946,23.241,11.303,23.241,24.815
		c0,0.234,0.014,0.465,0.035,0.694c-4.756,8.382-9.428,14.849-12.224,18.476c-2.529,3.28-1.92,7.99,1.36,10.52
		c1.364,1.052,2.975,1.561,4.574,1.561c2.246,0,4.467-1.004,5.945-2.92c6.558-8.505,22.494-31.246,28.828-58.674
		c2.714-11.752,3.306-22.953,1.833-33.4C161.362,76.783,174.813,87,191.5,87h40h40c16.688,0,30.139-10.218,43.399-22.993
		c-1.473,10.447-0.881,21.648,1.833,33.4c6.334,27.428,22.271,50.169,28.828,58.674c1.478,1.916,3.699,2.92,5.945,2.92
		c1.599,0,3.21-0.509,4.574-1.561c3.28-2.529,3.889-7.239,1.36-10.52c-2.796-3.626-7.468-10.094-12.224-18.476
		c0.021-0.229,0.035-0.46,0.035-0.694c0-13.513,16.142-23.869,23.241-24.815c4.105-0.548,6.99-4.319,6.443-8.426
		c-0.547-4.105-4.315-6.993-8.425-6.443c-8.757,1.168-22.753,8.769-30.546,20.921c-1.822-4.754-3.416-9.765-4.615-14.956
		c-5.279-22.858-1.352-42.173,11.673-57.406c0.138-0.161,0.262-0.329,0.384-0.498C357.064,24.209,372.227,15,391.5,15
		c11.805,0,21.473,6.96,27.225,19.598c12.116,26.622,6.584,80.303-48.88,143.977c-2.094,2.404-2.439,5.869-0.861,8.64
		c0.51,0.895,50.652,90.255,21.229,158.256c-1.797,4.154-3.866,8.146-6.193,11.981c-20.856,1.111-41.507,4.354-65.926,10.669
		c-2.08-4.628-5.036-9.212-9.019-13.637c-2.771-3.079-7.514-3.327-10.592-0.558c-3.079,2.771-3.329,7.514-0.558,10.593
		c14.447,16.052,9.804,34.581-1.207,45.823c-17.005,17.364-39.62,14.097-55.533,3.168C258.021,408.313,271,390.504,271,375.5
		c0-17.369-17.72-31.5-39.5-31.5S192,358.131,192,375.5c0,15.004,12.979,32.813,29.815,38.009
		c-15.912,10.928-38.527,14.196-55.533-3.168c-11.011-11.242-15.654-29.771-1.207-45.823c2.771-3.079,2.521-7.821-0.558-10.593
		c-3.079-2.771-7.821-2.521-10.592,0.558c-3.983,4.426-6.939,9.009-9.019,13.637c-24.419-6.315-45.069-9.558-65.926-10.67
		C76.663,353.63,74.601,349.654,72.808,345.518z M231.5,400c-13.288,0-24.5-15.049-24.5-24.5c0-8.944,11.22-16.5,24.5-16.5
		s24.5,7.556,24.5,16.5C256,384.952,244.788,400,231.5,400z M90.988,373.354c15.665,1.56,31.693,4.51,50.142,9.281
		c-0.039,0.469-0.08,0.937-0.104,1.404c-10.45,0.237-21.238,1.966-32.013,5.022C102.256,384.296,96.248,379.056,90.988,373.354z
		 M142.777,399.012c0.899,3.135,2.118,6.151,3.584,9.015c-6.531-2.356-12.687-4.958-18.457-7.808
		C132.925,399.455,137.897,399.049,142.777,399.012z M192.817,437.527c0.835,0.038,1.669,0.072,2.502,0.072
		c12.589,0,24.944-4.284,36.181-12.521c11.237,8.236,23.591,12.521,36.181,12.521c0.78,0,1.562-0.034,2.344-0.067
		C259.067,444.183,245.599,448,231.5,448C217.217,448,203.756,444.219,192.817,437.527z M316.641,408.027
		c1.466-2.864,2.684-5.88,3.584-9.015c4.879,0.037,9.851,0.443,14.873,1.207C329.327,403.069,323.171,405.67,316.641,408.027z
		 M353.987,389.062c-10.775-3.057-21.563-4.785-32.013-5.022c-0.024-0.467-0.064-0.936-0.104-1.404
		c18.449-4.771,34.477-7.721,50.142-9.281C366.752,379.056,360.744,384.296,353.987,389.062z"/>
</g>
<g>
</g>
<g>
</g>
<g>
</g>
<g>
</g>
<g>
</g>
<g>
</g>
<g>
</g>
<g>
</g>
<g>
</g>
<g>
</g>
<g>
</g>
<g>
</g>
<g>
</g>
<g>
</g>
<g>
</g>
</svg>
