<?xml version="1.0" encoding="UTF-8" standalone="no"?>
<!-- Generator: Adobe Illustrator 19.0.0, SVG Export Plug-In . SVG Version: 6.00 Build 0)  -->

<svg
   xmlns:dc="http://purl.org/dc/elements/1.1/"
   xmlns:cc="http://creativecommons.org/ns#"
   xmlns:rdf="http://www.w3.org/1999/02/22-rdf-syntax-ns#"
   xmlns:svg="http://www.w3.org/2000/svg"
   xmlns="http://www.w3.org/2000/svg"
   xmlns:sodipodi="http://sodipodi.sourceforge.net/DTD/sodipodi-0.dtd"
   xmlns:inkscape="http://www.inkscape.org/namespaces/inkscape"
   version="1.1"
   id="Capa_1"
   x="0px"
   y="0px"
   viewBox="0 0 117.319 138.319"
   xml:space="preserve"
   inkscape:version="0.91 r13725"
   sodipodi:docname="CFO.svg"
   width="117.319"
   height="138.319"><metadata
     id="metadata42"><rdf:RDF><cc:Work
         rdf:about=""><dc:format>image/svg+xml</dc:format><dc:type
           rdf:resource="http://purl.org/dc/dcmitype/StillImage" /><dc:title /></cc:Work></rdf:RDF></metadata><defs
     id="defs40" /><sodipodi:namedview
     pagecolor="#ffffff"
     bordercolor="#666666"
     borderopacity="1"
     objecttolerance="10"
     gridtolerance="10"
     guidetolerance="10"
     inkscape:pageopacity="0"
     inkscape:pageshadow="2"
     inkscape:window-width="1440"
     inkscape:window-height="897"
     id="namedview38"
     showgrid="false"
     inkscape:zoom="4.0232187"
     inkscape:cx="29.723756"
     inkscape:cy="54.181127"
     inkscape:window-x="-8"
     inkscape:window-y="-8"
     inkscape:window-maximized="1"
     inkscape:current-layer="Capa_1" /><g
     id="_x30_304-death-scythe"
     transform="translate(0.30274528,5.6240603)"><g
       id="g4"><path
         style="clip-rule:evenodd;fill-rule:evenodd"
         d="m 114.295,17.233 c -3.003,-1.311 -6.868,-0.677 -9.688,-2.383 0.837,-1.123 0.659,-4.205 -0.032,-5.28 C 102.84,6.873 98.481,4.498 95.456,6.585 94.333,7.36 94.02,8.887 93.083,9.625 92.761,9.878 92.381,9.961 91.967,9.929 90.348,9.803 88.212,7.905 87.082,7.45 83.838,6.147 80.09,5.587 76.633,5.228 69.047,4.441 61.394,5.203 53.87,6.231 47.194,7.142 40.962,9.081 34.675,11.454 29.22,13.513 23.368,15.741 18.31,18.65 c -2.885,1.66 -5.131,3.947 -7.892,5.816 -1.325,1.176 -4.49,3.47 -3.989,5.575 0.685,2.88 4.431,0.263 5.773,-0.377 2.788,-1.333 6.115,-2.012 9.07,-2.907 6.572,-1.998 13.221,-3.755 19.99,-4.943 l 5.159,0 c 1.193,0 3.758,0.505 4.592,-0.422 1.489,-1.653 3.218,-3.602 5.505,-4.222 0.359,1.384 1.061,2.628 1.94,3.747 0.914,1.162 1.041,1.28 2.456,0.871 2.346,-0.681 3.957,0.304 6.217,0.359 0.677,0.97 3.506,0.95 4.351,0.536 0.274,-0.134 2.612,-2.308 2.816,-2.181 0.832,0.516 -0.965,4.583 0.302,5.881 2.662,2.734 6.578,4.043 9.887,5.624 1.177,0.561 2.273,0.909 3.563,1.274 1.192,0.338 2.496,0.567 2.653,1.714 0.207,1.515 -0.368,3.274 -0.556,4.789 -0.206,1.663 -0.762,3.221 -1.097,4.858 -0.565,2.768 -1.134,5.535 -1.766,8.289 -1.135,4.945 -1.753,9.918 -2.763,14.892 -1.456,7.163 -3.271,28.174 -4.777,35.293 -0.427,2.02 -1.306,9.834 -1.717,11.85 -0.381,1.868 -0.744,3.741 -1.048,5.622 -0.317,1.973 -0.569,3.957 -0.725,5.948 -0.156,1.977 -0.408,3.095 1.033,4.524 2.053,2.039 5.896,0.447 6.136,-2.314 0.324,-3.724 0.98,-7.64 1.807,-11.291 0.861,-3.794 1.292,-13.636 2.031,-17.479 0.734,-3.818 1.947,-21.502 2.747,-25.3 0.91,-4.314 1.518,-8.684 2.175,-13.041 0.5,-3.317 1.79,-6.634 2.244,-9.983 0.291,-2.143 1.094,-4.171 1.434,-6.305 0.262,-1.647 1.443,-3.15 2.054,-4.758 0.451,-1.188 1.01,-4.159 2.479,-3.58 1.7,0.667 3.365,1.989 5.26,1.959 1.969,-0.029 3.729,-1.315 5.141,-2.569 1.524,-1.349 2.051,-3.121 2.536,-5.025 0.578,-2.271 1.806,-4.454 2.901,-6.533 1.68,-3.187 1.683,-6.029 -1.937,-7.608 z M 95.564,9.484 c 1.371,-1.187 4.092,-0.141 2.941,1.826 -1.12,1.916 -2.905,1.16 -3.39,-0.031 -0.237,-0.582 -0.164,-1.267 0.449,-1.795 z m 14.567,16.194 c -0.946,2.809 -2.209,5.506 -2.871,8.407 -2.682,-0.805 -5.214,-2.053 -7.96,-2.654 0.182,-1.195 1.696,-1.023 2.362,-1.765 1.197,-1.333 -0.645,-2.157 -1.699,-2.214 -1.668,0.247 -3.31,0.763 -4.774,1.623 -1.758,1.033 -2.395,0.157 -4.181,-0.296 2.184,-2.803 6.896,-1.694 8.955,-4.644 -1.014,-3.873 -7.746,0.196 -9.578,1.176 -1.239,0.66 -3.062,2.09 -4.339,1.431 -0.953,-0.491 -1.988,-0.809 -3.017,-1.095 -1.068,-0.3 -2.15,-0.56 -3.204,-0.909 -1.478,-0.491 -0.706,-3.486 -0.944,-4.672 -0.225,-1.117 0.141,-4.065 -1.082,-4.521 -0.836,-0.312 -2.514,0.83 -3.187,1.182 -0.962,0.506 -2.76,2.077 -3.835,2.102 C 69.658,18.853 60.414,17.017 60.496,17.832 58.248,15.7 58.469,12.921 54.64,14.57 c -1.463,0.63 -2.736,1.588 -4.062,2.448 -1.51,0.983 -2.691,0.746 -4.453,0.744 -6.59,-0.012 -13.117,0.946 -19.458,2.723 0.621,-2.171 5.297,-2.897 7.045,-3.9 3.039,-1.741 7.075,-2.724 10.468,-3.661 7.617,-2.102 15.6,-3.272 23.488,-3.5 4.513,-0.133 10.34,-1.021 14.493,1.129 1.07,0.552 1.777,1.584 2.894,2.053 0.997,0.42 1.926,0.734 2.9,1.315 2.738,1.631 5.906,2.55 8.844,3.523 1.751,0.577 3.34,1.688 5.107,2.157 1.338,0.355 2.694,0.497 4.052,0.63 1.773,0.173 3.549,0.33 5.282,0.917 -0.218,1.546 -0.612,3.054 -1.109,4.53 z M 64.298,62.641 c -0.302,-0.426 -0.577,-0.87 -0.824,-1.331 -0.652,-1.203 -1.15,-2.481 -1.633,-3.757 -1.313,-3.466 -0.997,-4.766 -2.752,-8.03 -1.472,-2.738 -2.787,-6.156 -5.141,-8.228 -5.181,-4.558 -5.483,-7.595 -12.736,-7.591 -4.318,0 -8.394,0.23 -12.465,1.676 -3.459,1.227 -6.336,2.693 -9.314,4.736 -3.186,2.183 -6.181,4.664 -8.933,7.375 -2.629,2.589 -5.489,5.402 -7.17,8.721 -0.837,1.657 -1.762,3.323 -2.383,5.076 -0.718,2.028 -0.48,4.187 -0.48,6.293 0,3.209 1.045,6.311 2.64,9.071 3.054,5.286 7.367,9.328 7.985,15.658 0.317,3.235 -5.543,4.721 -7.273,6.88 -0.551,0.689 -6.087,24.688 -2.766,24.615 0.605,-0.012 1.989,-1.484 2.398,-1.089 0.849,1.219 -0.635,2.764 0.332,3.979 1.477,0.141 2.466,-0.524 3.317,-1.657 1.227,-0.624 1.996,-1.831 2.985,-2.75 0.354,-0.326 0.915,-1.168 1.43,-1.166 -0.262,1.568 -1.703,2.936 -2.493,4.267 -0.482,0.813 -0.772,1.751 -0.265,2.634 3.377,1.39 3.826,-4.391 6.214,-3.394 1.63,0.679 3.192,-1.627 4.088,-2.628 0.565,-0.63 1.188,-1.193 1.752,-1.818 0.299,-0.332 1.26,-1.543 1.814,-1.213 -0.611,1.651 -1.43,3.262 -1.947,4.948 -0.403,1.313 -0.25,2.503 1.422,2.079 0.85,-0.218 1.373,-1.034 1.988,-1.588 1.166,-1.054 0.836,0.028 1.363,0.518 0.346,0.324 1.061,0.238 1.216,0.777 -0.436,0.459 -0.416,1.178 -0.24,1.737 0.42,1.333 1.897,1.146 2.813,0.369 0.757,-0.64 1.164,-1.637 2.071,-2.106 1.584,-0.041 2.826,-0.95 4.312,-1.327 -1.894,2 0.35,5.265 2.447,2.776 0.877,-1.04 1.714,-2.089 2.661,-3.07 0.928,-0.958 1.467,-2.283 2.286,-3.347 0.444,-0.575 1.092,-1.356 1.064,-0.179 -0.023,1.003 -0.55,1.963 -0.587,2.978 -0.063,1.755 1.842,1.366 2.893,0.62 2.133,-1.513 2.322,-4.154 3.345,-6.356 0.119,-0.257 0.699,-1.798 1.15,-1.607 0.395,0.169 0.124,1.134 -0.238,2.051 -0.3,0.762 -0.663,1.49 -0.759,1.702 -0.851,1.89 -1.328,3.645 0.34,5.251 1.139,1.095 3.213,0.82 3.935,-0.565 0.22,-0.422 1.143,-3.062 1.845,-2.73 0.426,0.202 0.302,1.142 0.252,1.476 -0.105,0.701 -0.477,2.02 -0.046,2.681 0.448,0.687 5.538,4.277 6.135,4.022 1.119,-0.471 2.369,-1.137 3.035,-2.183 0.312,-0.489 0.877,-2.55 1.587,-1.368 0.655,1.091 -0.408,2.151 -0.117,3.237 0.308,1.162 1.902,2.155 2.959,1.272 0.766,-0.638 0.789,-1.859 1.32,-2.662 1.294,1.056 2.927,0.338 3.899,-0.775 0.827,-0.946 -0.157,-2.554 -0.702,-3.521 -1.162,-2.059 -2.842,-4.193 -4.435,-5.924 -1.954,-2.124 -3.413,-20.654 -4.399,-23.359 0.711,-0.699 -3.647,-5.912 -3.005,-6.654 0.329,-0.993 0.921,-2.187 1.658,-2.819 1.79,-1.537 -4.644,-7.235 -2.916,-8.699 0.752,-0.64 1.492,-1.144 1.86,-1.947 0.422,-0.92 0.983,-2.412 1.68,-3.137 1.33,-1.39 0.498,-5.107 0.121,-6.688 -0.227,-0.947 -0.01,-1.397 -0.593,-2.212 z M 49.251,39.689 c -32.834,73.08667 -16.417,36.543334 0,0 z m 2.169,35.254 c -0.804,1.154 -1.867,2.084 -2.905,3.017 -0.997,0.895 -1.732,1.89 -2.611,2.886 -0.297,0.965 -1.502,1.144 -1.635,2.195 0.005,0.14 0.009,0.407 0.01,0.675 0.207,2.475 1.359,8.659 -0.095,9.723 -1.704,1.248 -4.041,1.576 -6.091,1.692 -2.328,0.133 -4.73,-0.047 -6.986,-0.66 -2.071,-0.565 -2.272,-3.659 -2.467,-5.594 -0.493,-4.899 -4.134,-8.05 -6.416,-12.211 -1.566,-2.856 -2.812,-5.967 -2.001,-9.249 0.617,-2.501 1.659,-4.888 3.14,-6.998 2.98,-4.246 7.481,-7.051 12.128,-9.165 4.82,-2.195 9.478,0.443 12.374,4.469 3.077,4.277 4.551,9.475 4.382,14.728 -0.045,1.457 0.026,3.269 -0.827,4.492 z m -7.173,8.226 c 0.002,-0.047 0.017,-0.083 0.022,-0.127 -0.005,-0.141 -0.013,-0.153 -0.022,0.127 z m 0.032,0.549 c -0.017,-0.208 -0.03,-0.399 -0.032,-0.549 0.024,1.914 0.035,1.253 0.032,0.549 z M 43.578,66.559 c -2.565,1.301 -6.032,5.27 -2.907,7.83 1.705,1.398 4.95,-0.397 6.169,-1.894 1.338,-1.641 1.601,-3.877 0.868,-5.253 -0.638,-1.201 -2.032,-1.747 -4.13,-0.683 z m -9.822,8.009 c 1.125,-1.496 0.31,-3.957 -0.773,-5.51 -1.041,-1.494 -3.225,-2.905 -5.114,-2.799 -1.821,0.106 -3.366,1.733 -2.948,3.58 0.33,1.453 2.213,3.37 3.274,4.418 0.967,0.954 2.591,1.777 3.992,1.343 0.725,-0.224 1.234,-0.585 1.569,-1.032 z m 5.584,9.582 c 0.045,-0.408 -0.118,-0.952 -0.326,-1.492 -0.208,-0.542 -0.46,-1.083 -0.59,-1.478 -0.292,-0.897 -0.659,-3.16 -1.993,-2.713 -0.974,0.324 -1.717,2.193 -2.109,3.041 -0.986,2.13 -0.218,3.082 1.985,3.137 0.377,0.008 2.985,-0.067 3.033,-0.495 z m 1.33,3.858 c -0.263,-0.1 -0.481,-0.1 -0.661,-0.026 -0.738,0.298 -0.839,1.798 -0.751,2.462 0.169,1.268 1.187,1.113 2.162,0.801 0.302,-0.904 0.343,-2.821 -0.75,-3.237 z m -6.706,3.452 c 0.648,-0.746 0.29,-2.493 0,-3.317 -2.96,-1.042 -2.591,4.242 0,3.317 z m 3.359,-3.317 c -0.487,-0.124 -0.846,-0.026 -1.098,0.2 -0.546,0.493 -0.624,2.004 -0.355,2.664 0.164,0.402 0.995,0.454 1.343,0.302 0.472,-0.212 0.558,-1.011 0.587,-1.466 0.03,-0.452 0.084,-1.553 -0.477,-1.7 z"
         id="path6"
         inkscape:connector-curvature="0"
         sodipodi:nodetypes="cccccccccsccccccsccccccccccccccccccccccccccccccccccccsccccccccccccccccccccccccccccccccccccccccccccsccccccccccccccccccccccccccccccccccccccccccccccccccccccccccccccccccccccccccccccccccccccccccccccccccccccccccccccccc" /></g></g><g
     id="g8"
     transform="translate(0,20.999997)" /><g
     id="g10"
     transform="translate(0,20.999997)" /><g
     id="g12"
     transform="translate(0,20.999997)" /><g
     id="g14"
     transform="translate(0,20.999997)" /><g
     id="g16"
     transform="translate(0,20.999997)" /><g
     id="g18"
     transform="translate(0,20.999997)" /><g
     id="g20"
     transform="translate(0,20.999997)" /><g
     id="g22"
     transform="translate(0,20.999997)" /><g
     id="g24"
     transform="translate(0,20.999997)" /><g
     id="g26"
     transform="translate(0,20.999997)" /><g
     id="g28"
     transform="translate(0,20.999997)" /><g
     id="g30"
     transform="translate(0,20.999997)" /><g
     id="g32"
     transform="translate(0,20.999997)" /><g
     id="g34"
     transform="translate(0,20.999997)" /><g
     id="g36"
     transform="translate(0,20.999997)" /><path
     style="fill:#f2f2f2"
     d="m 33.409347,100.40827 c -3.014703,-0.499596 -3.7499,-1.36202 -4.225722,-4.956985 -0.453956,-3.429754 -1.084537,-4.927629 -3.770113,-8.955479 -2.681865,-4.022284 -3.926006,-6.326583 -4.538422,-8.405703 -1.005969,-3.415207 -0.07136,-7.400299 2.720663,-11.600698 2.325304,-3.498253 6.119687,-6.541788 11.198528,-8.98252 2.351374,-1.129996 2.554673,-1.18216 4.573495,-1.173495 1.856502,0.008 2.311359,0.105161 3.750446,0.801393 6.387099,3.090082 10.651205,13.639209 9.006802,22.282246 -0.08975,0.471728 -1.0552,1.685667 -2.781141,3.496959 -2.451652,2.572887 -4.416081,4.814381 -4.838997,5.521494 -0.09732,0.162711 -0.0067,1.594534 0.201384,3.181833 0.752853,5.743081 0.478344,7.1581 -1.558642,8.034388 -2.217647,0.954007 -6.526755,1.288777 -9.738281,0.756567 z m 1.186434,-4.618045 c 0.120672,-2.091204 -0.596057,-2.821601 -1.883744,-1.919672 -0.402549,0.281956 -0.55242,0.637838 -0.55242,1.311761 0,1.327072 0.596737,2.076698 1.57736,1.981495 0.758533,-0.07364 0.786359,-0.118144 0.858804,-1.373584 z m 3.138619,1.031167 c 0.547334,-0.547333 0.534721,-2.735292 -0.01755,-3.044358 -0.977888,-0.547254 -1.828877,0.356388 -1.828877,1.942032 0,0.752855 0.554462,1.492916 1.118507,1.492916 0.185531,0 0.513094,-0.175764 0.727918,-0.39059 z m 3.788545,0.197876 c 0.482779,-0.307099 0.644186,-1.466363 0.334723,-2.404047 -0.349708,-1.059627 -1.295246,-1.438538 -1.951675,-0.78211 -0.545615,0.545615 -0.57514,2.797986 -0.0411,3.135574 0.446303,0.282127 1.255259,0.306806 1.658055,0.05058 z m -1.920241,-7.123301 c 0.185166,-0.223113 0.01611,-0.99965 -0.594402,-2.730324 -0.964302,-2.73359 -1.214637,-3.127193 -1.988927,-3.127193 -0.723793,0 -1.453695,0.81318 -2.231028,2.485572 -0.722894,1.55527 -0.818521,2.773884 -0.254411,3.242054 0.803495,0.666842 4.543596,0.762685 5.068768,0.129891 z M 32.832233,81.18648 c 1.011567,-0.290161 1.812977,-1.537649 1.81276,-2.821777 -2.49e-4,-1.490606 -1.126618,-3.916853 -2.264071,-4.876916 -2.740907,-2.313451 -6.179089,-2.10844 -7.143689,0.425962 -0.312882,0.82207 -0.30592,1.052178 0.06089,2.012664 0.433426,1.134907 2.623201,3.738167 3.922884,4.663623 0.798868,0.568844 2.062464,0.958791 2.690051,0.830153 0.205059,-0.04203 0.619587,-0.147201 0.921173,-0.233709 z m 11.432852,-0.927752 c 3.117068,-1.344706 4.876445,-4.282081 4.055222,-6.770413 -0.440068,-1.333417 -1.142304,-1.877725 -2.422536,-1.877725 -2.720853,0 -6.285024,3.416293 -6.2798,6.019249 0.0017,0.86371 0.592583,1.952097 1.38537,2.551953 0.584273,0.442085 2.320393,0.483035 3.261744,0.07694 z"
     id="path3350"
     inkscape:connector-curvature="0" /><path
     style="fill:#f2f2f2"
     d="m 104.61404,38.552268 c -1.36706,-0.527453 -3.01686,-1.089889 -3.66622,-1.249858 -0.64935,-0.15997 -1.180643,-0.397838 -1.180643,-0.528597 0,-0.130758 0.501843,-0.459731 1.115203,-0.73105 2.6802,-1.185581 1.69487,-3.242843 -1.378813,-2.878811 -0.682588,0.08084 -2.15642,0.560279 -3.275183,1.065415 -1.938918,0.875445 -2.086922,0.904357 -3.162439,0.617778 -0.620575,-0.165358 -1.223341,-0.394722 -1.339474,-0.509697 -0.341008,-0.337602 1.780609,-1.414743 4.100838,-2.08199 2.393022,-0.68818 3.059053,-0.985527 3.877729,-1.731194 0.720762,-0.656486 0.707312,-1.191211 -0.04781,-1.900612 -0.532302,-0.500071 -0.800153,-0.557314 -2.174875,-0.464792 -1.734485,0.116735 -3.304509,0.744802 -7.239361,2.896009 -1.946029,1.063904 -2.60051,1.307868 -3.231243,1.204475 -1.334191,-0.218708 -6.78812,-2.012589 -7.219668,-2.37466 -0.303249,-0.254425 -0.410566,-0.791421 -0.422231,-2.112736 -0.0086,-0.974383 -0.105672,-2.71493 -0.21571,-3.867882 -0.321375,-3.367267 -1.04157,-3.595013 -4.565899,-1.44387 -3.522528,2.150045 -2.823406,2.030566 -7.69606,1.315245 C 64.51874,23.427013 62.12466,23.141935 61.572,23.141935 c -0.94616,0 -1.065903,-0.08706 -2.050671,-1.490945 -0.575211,-0.820019 -1.25517,-1.602974 -1.511017,-1.7399 -1.147415,-0.614077 -3.35208,0.03191 -5.781953,1.694156 -2.363399,1.616776 -2.389986,1.622787 -8.013718,1.811885 -6.13488,0.206286 -9.876283,0.738205 -16.529054,2.349951 -1.347089,0.326356 0.887655,-1.297091 2.759432,-2.004609 1.011382,-0.382295 3.013309,-1.226123 4.448727,-1.875172 5.547546,-2.508422 15.620551,-5.024334 24.234328,-6.052955 3.842359,-0.458838 11.495877,-0.893445 15.659104,-0.889205 4.629226,0.0047 6.603504,0.54397 9.217744,2.51774 0.696755,0.526057 1.35614,0.956467 1.465299,0.956467 0.109157,0 1.553053,0.665536 3.208657,1.478969 1.655605,0.813433 4.474925,1.977222 6.265158,2.586197 1.790234,0.608976 3.803547,1.385026 4.47403,1.724555 1.868244,0.946068 3.651444,1.393308 7.183454,1.801665 1.77772,0.205534 3.5957,0.491676 4.03994,0.635873 0.70712,0.229523 0.78955,0.344909 0.66184,0.926463 -0.38061,1.733158 -0.97412,3.646647 -1.97926,6.381103 -0.60301,1.640478 -1.27063,3.569903 -1.48361,4.287612 -0.21298,0.717709 -0.46679,1.296952 -0.56403,1.287206 -0.0972,-0.0097 -1.29529,-0.449271 -2.66236,-0.976723 z"
     id="path3352"
     inkscape:connector-curvature="0" /><path
     style="fill:#ffffff"
     d="m 96.035285,17.472239 c -0.66107,-0.535302 -0.735188,-1.651937 -0.148586,-2.238539 0.58637,-0.58637 2.338458,-0.542539 2.786138,0.0697 0.489618,0.669593 0.440162,0.980616 -0.29482,1.854092 -0.735194,0.873729 -1.521893,0.979423 -2.342732,0.314748 z"
     id="path3354"
     inkscape:connector-curvature="0" /></svg>