<?xml version="1.0" encoding="iso-8859-1"?>
<!-- Generator: Adobe Illustrator 19.0.0, SVG Export Plug-In . SVG Version: 6.00 Build 0)  -->
<svg version="1.1" id="Capa_1" xmlns="http://www.w3.org/2000/svg" xmlns:xlink="http://www.w3.org/1999/xlink" x="0px" y="0px"
	 viewBox="0 0 110 110" style="enable-background:new 0 0 110 110;" xml:space="preserve">
<g id="_x0A_alien">
	<g>
		<path style="fill-rule:evenodd;clip-rule:evenodd;" d="M90.237,26.616c-0.307-2.606-1.058-4.995-2.343-7.277
			c-2.101-3.729-5.274-6.569-7.953-9.819c-0.258-0.311-0.63-0.527-0.944-0.794c-0.786-0.665-1.602-1.3-2.347-2.009
			c-2.282-2.175-4.952-3.674-7.934-4.639c-0.881-0.283-1.805-0.464-2.652-0.821c-2.827-1.188-5.779-1.41-8.791-1.171
			c-1.237,0-2.48-0.085-3.707,0.023c-1.325,0.118-2.65,0.349-3.949,0.649c-3.72,0.86-7.31,2.159-10.792,3.689
			c-5.53,2.428-9.937,6.269-12.966,11.495c-4.151,7.165-6.363,14.911-6.314,23.246c0.021,3.719,0.282,7.415,1.276,11.008
			c0.491,1.776,1.198,3.499,1.87,5.22c1.875,4.805,4.047,9.488,6.655,13.922c3.35,5.691,7.445,10.867,11.887,15.76
			c0.758,0.835,1.7,1.613,2.124,2.604c0.323,0.752-0.063,1.799-0.089,2.717c-0.035,1.235-0.02,2.473-0.037,3.709
			c-0.008,0.618,0.018,1.244-0.083,1.849c-0.065,0.38-0.24,0.862-0.529,1.06c-1.855,1.264-3.5,2.868-5.87,3.293
			c-1.085,0.195-2.237,0.617-3.111,1.271c-1.725,1.29-3.298,2.785-4.889,4.249c-0.774,0.71-0.511,1.964,0.496,2.231
			c0.992,0.265,1.896,0.406,2.484,1.465c0.402,0.726,1.604,0.529,2.102-0.207c0.226-0.334,0.369-0.724,0.538-1.095
			c0.169-0.371,0.298-0.761,0.485-1.12c0.278-0.532,0.88-0.614,1.225-0.168c0.186,0.24,0.274,0.56,0.47,0.789
			c0.47,0.55,1.256,0.475,1.499-0.165c0.325-0.854,0.542-1.752,0.884-2.597c0.064-0.158,0.499-0.18,0.77-0.229
			c0.074-0.015,0.175,0.097,0.257,0.159c1.736,1.311,1.826,1.314,2.496-0.486c0.194-0.525,0.375-0.922,0.951-1.049
			c0.703-0.158,1.416-0.294,2.098-0.519c0.372-0.124,0.879-0.339,0.996-0.64c0.419-1.081,1.135-0.91,1.995-0.728
			c0.587,0.125,1.231,0.079,1.833-0.005c0.211-0.029,0.427-0.371,0.54-0.617c0.046-0.098-0.148-0.421-0.293-0.473
			c-0.768-0.268-1.569-0.451-2.334-0.732c-0.366-0.133-0.741-0.359-0.989-0.648c-0.154-0.179-0.136-0.564-0.083-0.836
			c0.026-0.137,0.304-0.317,0.468-0.316c0.923,0.002,1.846,0.096,2.768,0.078c1.082-0.021,1.631-0.813,1.359-1.91
			c-0.073-0.292-0.322-0.543-0.378-0.835c-0.052-0.269,0.021-0.572,0.084-0.85c0.279-1.206,0.266-1.307-0.487-1.749
			c-0.619-0.363-1.257-0.693-1.879-1.05c-0.081-0.047-0.121-0.163-0.181-0.247c0.087-0.046,0.17-0.118,0.262-0.131
			c1.21-0.181,2.458-0.041,3.631-0.587c0.733-0.341,1.558-0.489,2.342-0.724c0.706,0.816,0.25,1.771,0.294,2.66
			c0.064,1.337,0.022,2.679,0.088,4.016c0.036,0.714,0.121,1.444,0.324,2.127c0.631,2.115,1.93,3.676,4.181,4.033
			c2.279,0.361,4.349,1.175,6.381,2.208c1.094,0.555,2.281,0.935,3.448,1.329c0.822,0.279,1.586-0.146,1.997-0.995
			c0.286-0.593,0.023-1.358-0.733-1.828c-0.961-0.597-1.939-1.18-2.962-1.662c-2.418-1.142-4.85-2.255-7.308-3.306
			c-1.02-0.438-1.644-0.928-1.788-2.182c-0.282-2.465-0.598-4.904-0.027-7.363c-0.298-1.588,0.643-2.371,1.833-3.186
			c3.332-2.279,6.351-4.919,8.664-8.282c0.231-0.336,0.495-0.69,0.827-0.911c2.18-1.453,3.687-3.582,5.476-5.424
			c2.46-2.53,4.432-5.425,6.019-8.568c2.231-4.416,3.783-9.119,5.659-13.686c0.116-0.281,0.117-0.607,0.203-0.904
			c0.948-3.268,1.295-6.654,1.944-9.979C90.414,34.176,90.687,30.445,90.237,26.616z M84.466,36.578
			c-0.742,6.021-1.751,11.995-3.651,17.791c-1.701,5.192-4.659,9.6-8.19,13.678c-0.202,0.233-0.398,0.485-0.643,0.666
			c-3.086,2.279-5.338,5.389-8.042,8.048c-3.329,3.272-7.06,5.99-11.117,8.276c-0.624,0.352-1.282,0.677-1.962,0.896
			c-1.639,0.531-3.047,0.096-4.118-1.246c-2.313-2.896-4.625-5.794-6.885-8.73c-1.507-1.958-2.958-3.961-4.369-5.989
			c-0.82-1.181-1.58-2.415-2.249-3.688c-2.544-4.829-4.862-9.765-6.842-14.855c-0.675-1.739-1.132-3.515-1.28-5.379
			c-0.177-2.253-0.425-4.5-0.608-6.395c0.245-5.547,1.21-10.559,3.099-15.398c1.169-2.994,2.605-5.806,4.671-8.3
			c2.69-3.247,5.917-5.722,9.921-7.069c3.702-1.247,7.427-2.406,11.33-2.924c3.115-0.41,6.166-0.117,9.177,0.613
			c1.693,0.412,3.325,1.079,4.984,1.631c1.389,0.463,2.615,1.223,3.73,2.144c1.349,1.114,2.796,2.163,3.933,3.473
			c2.422,2.789,5.146,5.339,6.982,8.619c0.925,1.65,1.521,3.354,1.635,5.248c0.061,1.018,0.369,2.021,0.417,3.038
			C84.483,32.677,84.701,34.66,84.466,36.578z M77.03,38.714c-0.989-1.142-2.137-1.407-3.591-1.209
			c-2.61,0.356-4.923,1.415-7.2,2.647c-2.892,1.565-5.184,3.693-6.644,6.678c-0.36,0.736-0.825,1.422-1.227,2.142
			c-0.661,1.189-0.95,2.469-1.055,3.83c-0.134,1.751,0.638,2.968,1.997,3.912c1.597,1.109,3.46,1.214,5.173,1.393
			c2.734-0.218,5.24-0.679,7.288-2.491c1.08-0.955,2.216-1.851,3.276-2.828c1.065-0.982,1.99-2.088,2.526-3.469
			c0.445-1.148,0.881-2.301,1.366-3.434c0.69-1.609,0.623-3.188,0.018-4.81C78.574,40.047,77.698,39.482,77.03,38.714z
			 M74.498,42.442c-0.695,1.574-1.37,3.161-2.131,4.702c-0.31,0.627-0.758,1.219-1.255,1.713c-0.909,0.899-2.037,0.738-2.801-0.351
			c-0.158-0.225-0.264-0.564-0.229-0.829c0.08-0.599,0.41-1.194,0.374-1.774c-0.107-1.711,0.87-2.587,2.215-3.292
			c1.078-0.564,2.084-1.322,3.404-1.076c0.18,0.033,0.333,0.209,0.499,0.319C74.551,42.052,74.573,42.269,74.498,42.442z
			 M47.902,56.101c1.833-3.868,1.543-7.619-0.98-11.057c-1.208-1.649-2.684-3.12-4.146-4.562c-2.99-2.948-7.616-3.711-11.688-1.567
			c-0.483,0.255-0.822,0.603-0.959,1.133c-0.154,0.597-0.366,1.188-0.442,1.794c-0.309,2.449-0.606,4.923,0.169,7.331
			c1.758,5.466,6.667,8.948,12.65,9.017c0.72,0,1.452,0.084,2.156-0.019C46.034,57.973,47.269,57.439,47.902,56.101z M43.621,49.38
			c-1.304-0.544-2.606-1.098-3.895-1.68c-0.793-0.358-1.26-1.067-1.56-1.828c-0.257-0.649-0.465-1.379-0.426-2.059
			c0.023-0.392,0.536-0.804,0.907-1.109c0.175-0.143,0.651-0.181,0.798-0.049c1.835,1.631,3.637,3.3,5.065,5.317
			c0.115,0.163,0.154,0.377,0.228,0.568C44.816,48.861,43.971,49.525,43.621,49.38z M49.843,38.473
			c0.106,0.887,0.885,1.476,1.774,1.184c0.859-0.282,1.622-0.81,2.576-0.189c0.179,0.116,0.873-0.183,1.017-0.455
			c0.408-0.776,0.876-0.92,1.65-0.572c0.191,0.087,0.625-0.076,0.786-0.264c0.516-0.598,0.479-1.327,0.253-2.034
			c-0.198-0.62-0.665-0.69-1.226-0.497c-0.414,0.143-0.496-0.205-0.604-0.463c-0.308-0.747-0.814-1.2-1.657-1.051
			c-0.569,0.101-0.953-0.229-1.419-0.422c-1.178-0.486-2.069-0.228-2.554,0.875c-0.401,0.917-0.545,1.947-0.64,2.305
			c0,0.865-0.003,1.072,0.002,1.277C49.806,38.269,49.83,38.371,49.843,38.473z M47.218,66.768c0.55,0.468,1.194,0.77,1.976,0.536
			c1.15-0.342,2.037-1.041,2.428-2.15c0.401-1.14,0.597-2.352,0.728-2.887c0-0.889,0.005-1.093-0.002-1.297
			c-0.018-0.519-0.454-0.963-0.968-0.967c-0.828-0.005-1.726-0.016-2.202,0.779c-0.835,1.394-1.607,2.831-2.312,4.295
			C46.596,65.635,46.702,66.332,47.218,66.768z M55.607,73.928c-0.3-0.057-0.615-0.111-0.916-0.089
			c-2.36,0.178-4.722,0.349-7.076,0.586c-0.484,0.05-0.976,0.312-1.399,0.579c-0.218,0.137-0.412,0.508-0.398,0.76
			c0.016,0.262,0.24,0.607,0.474,0.74c0.343,0.194,0.77,0.309,1.166,0.32c1.236,0.039,2.474,0.014,3.71,0.014v-0.057
			c0.515,0,1.031,0.004,1.546,0c0.927-0.006,1.855,0.012,2.781-0.035c0.641-0.032,1.137-0.562,1.226-1.192
			C56.825,74.814,56.324,74.068,55.607,73.928z M55.353,60.899c-0.467,0.314-0.624,0.799-0.587,1.333
			c0.084,1.242,0.391,2.426,0.959,3.537c0.511,0.996,1.349,1.417,2.245,1.135c0.691-0.218,1.139-1.03,1.101-2.076
			c0.04-1.541-1.032-2.537-2.041-3.561C56.544,60.775,55.774,60.617,55.353,60.899z"/>
	</g>
</g>
<g>
</g>
<g>
</g>
<g>
</g>
<g>
</g>
<g>
</g>
<g>
</g>
<g>
</g>
<g>
</g>
<g>
</g>
<g>
</g>
<g>
</g>
<g>
</g>
<g>
</g>
<g>
</g>
<g>
</g>
</svg>
