<?xml version="1.0" encoding="iso-8859-1"?>
<!-- Generator: Adobe Illustrator 19.0.0, SVG Export Plug-In . SVG Version: 6.00 Build 0)  -->
<svg version="1.1" id="Capa_1" xmlns="http://www.w3.org/2000/svg" xmlns:xlink="http://www.w3.org/1999/xlink" x="0px" y="0px"
	 viewBox="0 0 463 463" style="enable-background:new 0 0 463 463;" xml:space="preserve">
<g>
	<path d="M398.901,293.619l-76.691-19.173c-0.738-6.717-4.331-13.04-10.3-17.019l-5.417-3.611C328.26,241.544,343,218.217,343,191.5
		v-79.82c0-0.004,0-0.008,0-0.012V71.5C343,32.075,310.925,0,271.5,0h-80C152.075,0,120,32.075,120,71.5v40.17
		c0,0.001,0,0.002,0,0.003V191.5c0,26.717,14.74,50.044,36.506,62.316l-5.417,3.611c-5.969,3.979-9.561,10.302-10.3,17.02
		l-76.691,19.173C35.779,300.699,16,326.032,16,355.224V439.5c0,12.958,10.542,23.5,23.5,23.5h384c12.958,0,23.5-10.542,23.5-23.5
		v-84.276C447,326.032,427.221,300.699,398.901,293.619z M342.158,338.104l-24.478,6.119c-2.207,0.552-4.044,2.075-4.994,4.143
		c-0.951,2.066-0.912,4.453,0.105,6.488l14.811,29.622L313.552,448h-41.953l6.853-89.083c0.347,0.049,0.696,0.083,1.049,0.083
		c0.399,0,0.802-0.032,1.202-0.097c3.788-0.615,5.043-3.116,6.495-6.013l31.88-63.765l9.786,2.447L342.158,338.104z M239,448
		V330.925c6.472,3.3,15.623,8.778,25.761,17.291c-0.402,0.826-0.664,1.738-0.739,2.709L256.555,448H239z M206.445,448l-7.467-97.075
		c-0.075-0.971-0.337-1.883-0.739-2.709c10.141-8.515,19.292-13.993,25.761-17.292V448H206.445z M149.439,448l-14.042-63.523
		l14.812-29.622c1.018-2.035,1.057-4.422,0.105-6.488c-0.95-2.067-2.787-3.591-4.994-4.143l-24.478-6.119l13.294-46.532l9.786-2.447
		l31.881,63.765c1.452,2.896,2.707,5.397,6.495,6.013c0.4,0.064,0.803,0.097,1.202,0.097c0.353,0,0.702-0.033,1.049-0.083
		L191.401,448H149.439z M306.483,280.773c-6.096,12.198-21.539,43.104-29.199,58.413c-12.863-11.311-24.587-18.251-32.629-22.235
		l51.801-51.8l7.135,4.756C307.149,272.28,308.393,276.951,306.483,280.773z M255,133.217c13.507-3.256,27.491-3.256,41,0v24.356
		c-13.509,3.256-27.493,3.254-41,0V133.217z M305.705,120.332c-19.761-6.08-40.651-6.08-60.41,0
		C242.147,121.3,240,124.207,240,127.5v2.097c-2.638-1.027-5.503-1.597-8.5-1.597s-5.862,0.57-8.5,1.597V127.5
		c0-3.293-2.147-6.2-5.295-7.168c-19.761-6.08-40.651-6.08-60.41,0C154.147,121.3,152,124.207,152,127.5v0.5h-17v-15.339
		c1.441-4.32,8.408-23.13,24-35.389c10.168-7.995,16-19.561,16-31.729V33.792C185.443,46.491,206.573,55,231.5,55
		s46.057-8.509,56.5-21.208v11.751c0,12.169,5.832,23.734,16,31.729c15.594,12.26,22.56,31.072,24,35.388V128h-17v-0.5
		C311,124.207,308.853,121.3,305.705,120.332z M167,133.217c13.507-3.256,27.491-3.256,41,0v24.356c-13.509,3.256-27.493,3.254-41,0
		V133.217z M328,71.5v9.281c-3.951-5.312-8.811-10.646-14.729-15.299C306.744,60.349,303,53.081,303,45.543V24.619
		C318.069,34.777,328,52,328,71.5z M271.5,15c2.886,0,5.722,0.22,8.492,0.639C279.831,28.633,257.245,40,231.5,40
		s-48.331-11.367-48.492-24.361C185.778,15.22,188.614,15,191.5,15H271.5z M160,24.619v20.924c0,7.538-3.744,14.806-10.271,19.938
		c-5.918,4.653-10.778,9.987-14.729,15.299V71.5C135,52,144.931,34.777,160,24.619z M135,191.5V143h17v20.29
		c0,3.293,2.147,6.2,5.295,7.169c9.881,3.039,20.041,4.559,30.205,4.559c10.161,0,20.326-1.521,30.205-4.559
		c3.147-0.969,5.295-3.876,5.295-7.169V151.5c0-4.687,3.813-8.5,8.5-8.5s8.5,3.813,8.5,8.5v11.79c0,3.293,2.147,6.2,5.295,7.169
		c9.881,3.039,20.041,4.559,30.205,4.559c10.161,0,20.326-1.521,30.205-4.559c3.147-0.969,5.295-3.876,5.295-7.169V143h17v48.5
		c0,31.154-25.346,56.5-56.5,56.5h-80C160.346,248,135,222.654,135,191.5z M191.5,263h80c2.082,0,4.139-0.109,6.177-0.284
		L231.5,308.893l-46.177-46.177C187.361,262.891,189.418,263,191.5,263z M159.409,269.907l7.135-4.756l51.801,51.8
		c-8.042,3.984-19.766,10.925-32.629,22.235c-7.66-15.31-23.104-46.215-29.199-58.412
		C154.607,276.951,155.851,272.28,159.409,269.907z M31,439.5v-84.276c0-22.296,15.106-41.645,36.737-47.052l49.6-12.4
		l-13.048,45.668c-0.559,1.954-0.3,4.052,0.717,5.812c1.016,1.76,2.703,3.032,4.675,3.525l22.93,5.732l-11.818,23.637
		c-0.77,1.538-0.986,3.294-0.615,4.974l13.9,62.881H39.5C34.813,448,31,444.187,31,439.5z M432,439.5c0,4.687-3.813,8.5-8.5,8.5
		h-94.585l13.908-62.88c0.371-1.68,0.154-3.436-0.615-4.975l-11.818-23.637l22.93-5.732c1.972-0.493,3.659-1.766,4.675-3.525
		c1.017-1.76,1.275-3.857,0.717-5.812l-13.048-45.668l49.6,12.4C416.894,313.579,432,332.928,432,355.224V439.5z"/>
	<path d="M230.934,220.181c0.201-0.214,0.375-0.438,0.566-0.655c0.192,0.218,0.365,0.441,0.566,0.655
		c5.617,5.98,13.502,9.013,23.434,9.013c11.104,0,20.405-2.327,27.642-6.916c6.182-3.92,10.439-9.372,11.68-14.957
		c0.898-4.044-1.651-8.05-5.694-8.948c-4.043-0.902-8.05,1.651-8.948,5.694c-0.178,0.799-1.199,2.563-3.524,4.397
		c-2.759,0.496-3.87-0.337-7.905-7.134c-2.313-3.895-4.935-8.31-9.168-11.575c-9.828-7.581-20.894-6.547-27.385-3.357
		c-0.238,0.117-0.467,0.241-0.696,0.365c-0.229-0.124-0.458-0.248-0.696-0.365c-6.491-3.191-17.556-4.227-27.385,3.357
		c-4.233,3.266-6.854,7.681-9.168,11.575c-4.037,6.797-5.146,7.63-7.905,7.134c-2.325-1.835-3.347-3.599-3.524-4.397
		c-0.898-4.042-4.898-6.596-8.948-5.694c-4.043,0.898-6.593,4.904-5.694,8.948c1.24,5.585,5.498,11.037,11.68,14.957
		c7.236,4.589,16.537,6.916,27.642,6.916C217.432,229.193,225.316,226.161,230.934,220.181z M250.419,201.632
		c1.963,1.514,3.648,4.353,5.433,7.357c0.911,1.534,1.969,3.315,3.248,5.096c-1.143,0.07-2.342,0.108-3.6,0.108
		c-5.581,0-9.766-1.418-12.437-4.214c-3.098-3.244-3.853-7.842-4.029-10.233C241.064,198.861,245.811,198.077,250.419,201.632z
		 M207.148,208.989c1.784-3.005,3.47-5.844,5.433-7.357c4.607-3.556,9.353-2.772,11.384-1.887
		c-0.179,2.378-0.928,6.935-3.963,10.165c-2.67,2.842-6.876,4.283-12.502,4.283c-1.258,0-2.457-0.038-3.601-0.109
		C205.179,212.305,206.237,210.523,207.148,208.989z"/>
</g>
<g>
</g>
<g>
</g>
<g>
</g>
<g>
</g>
<g>
</g>
<g>
</g>
<g>
</g>
<g>
</g>
<g>
</g>
<g>
</g>
<g>
</g>
<g>
</g>
<g>
</g>
<g>
</g>
<g>
</g>
</svg>
