<?xml version="1.0" encoding="UTF-8" standalone="no"?>
<svg
   xmlns:dc="http://purl.org/dc/elements/1.1/"
   xmlns:cc="http://creativecommons.org/ns#"
   xmlns:rdf="http://www.w3.org/1999/02/22-rdf-syntax-ns#"
   xmlns:svg="http://www.w3.org/2000/svg"
   xmlns="http://www.w3.org/2000/svg"
   xmlns:sodipodi="http://sodipodi.sourceforge.net/DTD/sodipodi-0.dtd"
   xmlns:inkscape="http://www.inkscape.org/namespaces/inkscape"
   id="Capa_1"
   style="enable-background:new 0 0 121.376 121.376;"
   x="0px"
   y="0px"
   viewBox="0 0 121.376 121.376"
   version="1.1"
   inkscape:version="0.91 r13725"
   sodipodi:docname="p.svg">
  <metadata
     id="metadata42">
    <rdf:RDF>
      <cc:Work
         rdf:about="">
        <dc:format>image/svg+xml</dc:format>
        <dc:type
           rdf:resource="http://purl.org/dc/dcmitype/StillImage" />
      </cc:Work>
    </rdf:RDF>
  </metadata>
  <sodipodi:namedview
     pagecolor="#ffffff"
     bordercolor="#666666"
     borderopacity="1"
     objecttolerance="10"
     gridtolerance="10"
     guidetolerance="10"
     inkscape:pageopacity="0"
     inkscape:pageshadow="2"
     inkscape:window-width="999"
     inkscape:window-height="792"
     id="namedview40"
     showgrid="false"
     inkscape:zoom="5.4995123"
     inkscape:cx="60.688"
     inkscape:cy="38.026395"
     inkscape:window-x="0"
     inkscape:window-y="40"
     inkscape:window-maximized="0"
     inkscape:current-layer="Capa_1" />
  <defs
     id="defs3" />
  <g
     id="_x0A_character01"
     transform="matrix(-1, 0, 0, 1, 117.42198944091797, 0)">
    <g
       id="g6">
      <path
         style="fill-rule:evenodd;clip-rule:evenodd;"
         d="M92.013,89.708c-0.298-0.4-0.599-0.822-0.981-1.133    c-1.641-1.326-3.264-2.684-4.984-3.898c-2.133-1.508-4.353-2.893-6.545-4.318c-0.674-0.438-1.324-1-2.069-1.219    c-2.029-0.594-3.133-2.072-4.021-3.814c-0.638-1.254-1.269-2.512-1.889-3.775c-0.742-1.506-1.107-3.002,0.233-4.402    c1.215-2.649,2.503-5.268,3.626-7.955c1.122-2.686,2.147-5.416,3.07-8.174c0.296-0.885,0.608-1.605,1.274-2.295    c2.738-2.84,4.983-6.043,6.65-9.637c0.386-0.832,0.684-1.664,0.672-2.6c-0.014-1.18-0.619-1.881-1.833-1.928    c-1.507-0.057-3.011-0.062-4.482,0.402c-0.567,0.178-0.931-0.275-0.736-0.867c0.882-2.678,1.505-5.416,1.861-8.211    c0.153-1.195,0.304-2.396,0.36-3.598c0.057-1.184-0.556-1.877-1.718-2.107c-0.295-0.059-0.6-0.1-0.897-0.09    c-2.129,0.066-4.17-0.568-6.263-0.785c-0.455-0.047-0.69-0.35-0.746-0.795c-0.025-0.199-0.042-0.398-0.067-0.598    c-0.416-3.26-0.754-3.777-3.939-4.338c-2.037-0.359-4.062-1.055-6.238-0.42c-1.153,0.336-2.355-0.328-3.465-0.773    c-0.324-0.129-0.659-0.537-0.753-0.881c-0.236-0.869-0.431-1.8,0.23-2.588c0.472-0.562,0.708-1.174,0.825-1.896    c0.076-0.469,0.361-0.93,0.639-1.334c0.428-0.623,0.988-1.018,1.787-0.584c0.483,0.26,1,0.32,1.387-0.092    c0.518-0.551,1.176-0.68,1.849-0.877c0.653-0.189,0.808-0.816,0.563-1.455c-0.562-1.471-1.659-2.246-3.164-2.438    c-0.69-0.088-1.402,0.01-2.105,0.019c-0.489,0.006-1.024,0.137-1.461-0.014c-1.584-0.545-3.004-0.101-4.326,0.676    c-3.889,2.289-6.405,5.432-6.207,10.232c0.059,1.416,0.223,2.781,0.68,4.141c0.307,0.909,0.949,1.774,0.688,2.829    c0.015-0.001,0.03-0.003,0.046-0.004c0.009,0.038,0.015,0.079,0.022,0.118c0.078,0.064,0.156,0.128,0.234,0.192    c-0.064-0.018-0.16-0.016-0.188-0.057c-0.025-0.039-0.037-0.087-0.047-0.136c-0.025-0.021-0.051-0.042-0.077-0.063    c0.005-0.017,0.004-0.033,0.009-0.05c-0.283,0.025-0.566,0.069-0.849,0.058c-1.714-0.062-3.468-0.299-4.577,1.516    c-0.121,0.197-0.527,0.244-0.814,0.307c-0.391,0.086-0.805,0.072-1.187,0.182c-1.024,0.293-1.602,0.93-1.599,1.932    c0.006,2.012-0.144,4.064,0.205,6.023c0.465,2.607,0.344,5.207,0.418,7.813c0.035,1.228-0.049,1.376-1.321,1.462    c-1.914,0.127-2.906,1.231-3.399,2.908c-0.473,1.613-0.387,3.168,0.729,4.568c1.003,1.256,1.924,2.578,2.923,3.84    c1.333,1.682,2.338,3.525,2.729,5.642c0.261,1.416,0.813,2.705,1.573,3.889c1.964,3.061,3.268,6.453,4.956,9.652    c0.358,0.678,0.381,1.324,0.008,2.004c-0.969,1.769-1.583,3.687-2.332,5.55c-1.213,3.016-3.328,5.479-5.314,8.008    c-0.12,0.154-0.312,0.252-0.466,0.381c-3.622,3.031-7.232,6.076-10.874,9.082c-0.643,0.531-0.904,1.004-0.439,1.779    c0.104,0.172,0.006,0.607-0.154,0.773c-0.744,0.771-1.021,1.498-0.025,2.268c0.457,0.354,0.436,0.865,0.443,1.369    c0.014,0.803,0.006,1.609,0.072,2.41c0.049,0.592,0.617,1.059,1.241,1.127c0.629,0.07,1.263-0.258,1.45-0.836    c0.152-0.471,0.27-0.969,0.287-1.459c0.024-0.699-0.092-1.402-0.088-2.105c0.004-0.557,0.732-1.051,1.326-0.943    c0.512,0.096,0.529,0.52,0.549,0.908c0.041,0.801,0.025,1.607,0.093,2.406c0.05,0.592,0.679,0.984,1.342,0.914    c0.514-0.057,1.011-0.455,1.026-0.932c0.056-1.607,0.034-3.217,0.121-4.822c0.031-0.574,0.277-1.141,0.444-1.703    c0.021-0.072,0.169-0.168,0.233-0.152c0.15,0.039,0.398,0.127,0.406,0.217c0.06,0.594,0.078,1.195,0.088,1.793    c0.021,1.207-0.027,2.417,0.062,3.619c0.062,0.848,0.551,1.488,1.383,1.816c0.576,0.229,1.358-0.135,1.424-0.703    c0.045-0.396,0.049-0.799,0.047-1.197c-0.011-2.314-0.037-4.629-0.039-6.943c0-0.6,0.002-1.217,0.142-1.791    c0.086-0.354,0.372-0.803,0.682-0.926c0.612-0.24,0.45,0.426,0.595,0.715c0.266,0.533,0.451,1.111,0.77,1.609    c0.117,0.184,0.536,0.305,0.771,0.25c0.241-0.057,0.527-0.328,0.606-0.566c0.123-0.371,0.105-0.793,0.111-1.193    c0.011-0.805,0.052-1.615-0.022-2.414c-0.117-1.248,0.446-2.109,1.389-2.816c0.338-0.252,0.836-0.156,0.973,0.25    c0.355,1.045,0.673,2.105,1.037,3.148c0.432,1.234,1.125,1.566,2.311,1.197c0.543-0.17,0.978-0.951,1.589-0.523    c0.461,0.322,0.728,0.93,1.065,1.42c0.342,0.496,0.627,1.035,1.01,1.498c0.639,0.771,1.334,1.496,2.006,2.24    c-0.336,1.041-0.688,2.078-1.004,3.125c-0.262,0.863-0.473,1.744-0.722,2.611c-0.925,3.201-1.117,6.527-1.673,9.792    c-0.252,1.478-0.385,2.978-0.684,4.447c-0.211,1.041-0.057,1.729,1.039,2.113c0.514,0.182,0.666,0.672,0.408,1.238    c-0.164,0.363-0.269,0.76-0.336,1.152c-0.11,0.646,0.127,1.162,0.662,1.564c1.195,0.898,1.618,0.934,2.943,0.064    c0.418-0.273,0.804-0.729,1.328-0.438c0.926,0.514,1.748-0.188,2.639-0.125c1.049,0.074,1.506-0.844,2.125-1.49    c0.245-0.258,0.676-0.414,1.042-0.465c0.775-0.105,1.32-0.529,1.671-1.156c0.388-0.693,0.705-1.436,0.964-2.186    c0.184-0.533,0.429-0.564,0.848-0.316c0.085,0.051,0.185,0.092,0.282,0.104c1.243,0.16,2.102-0.521,1.864-1.658    c-0.242-1.165-0.626-2.329-1.133-3.405c-1.034-2.193-1.778-4.477-2.458-6.793c-0.481-1.637-0.995-3.264-1.538-4.881    c-0.444-1.326-0.955-2.629-1.436-3.941c0.881-1.09,1.754-2.188,2.645-3.268c0.254-0.309,0.528-0.539,1.013-0.318    c1.148,0.529,1.92-0.027,2.506-0.984c0.316-0.514,0.622-1.035,0.926-1.555c1.166-1.998,2.309-4.008,3.498-5.99    c0.59-0.984,0.904-1.018,1.947-0.391c0.086,0.051,0.189,0.08,0.268,0.141c4.188,3.287,9.027,5.691,12.832,9.502    c0.338,0.34,0.817,0.596,1.279,0.742c0.605,0.191,1.189,0.02,1.624-0.498C92.407,90.917,92.422,90.263,92.013,89.708z     M79.872,37.566c1.168-0.191,2.338-0.373,3.514-0.492c0.186-0.018,0.404,0.32,0.57,0.461c-0.051,0.297-0.041,0.51-0.122,0.678    c-0.899,1.879-1.897,3.701-3.229,5.315c-0.161,0.195-0.473,0.266-0.713,0.393c-0.083-0.275-0.258-0.559-0.232-0.824    c0.143-1.506-0.115-2.955-0.471-4.402C79.053,38.148,79.37,37.65,79.872,37.566z M41.741,41.37    c-0.029,0.496-0.06,0.992-0.094,1.524c0,0.164,0.033,0.369-0.007,0.561c-0.11,0.519,0.317,1.279-0.382,1.488    c-0.257,0.078-0.765-0.529-1.094-0.883c-0.334-0.361-0.607-0.783-0.872-1.203c-0.555-0.877-0.257-1.766,0.18-2.533    c0.329-0.578,1.051-0.465,1.64-0.369c0.426,0.068,0.668,0.365,0.662,0.82C41.771,40.974,41.753,41.171,41.741,41.37z     M48.649,60.398c-0.318-0.627-0.584-1.285-0.949-1.885c-2.614-4.297-3.205-9.033-3.022-13.932    c0.017-0.428,0.226-0.848,0.345-1.271c0.131,0.371,0.256,0.746,0.397,1.115c0.071,0.186,0.165,0.365,0.262,0.539    c0.366,0.658,0.952,0.971,1.461,0.779c0.612-0.232,1.055-0.676,1.074-1.322c0.049-1.607,0.016-3.217,0.016-4.824    c0.027,0,0.054-0.002,0.08-0.002c0-1.408-0.094-2.824,0.028-4.223c0.104-1.188,0.246-2.455,0.745-3.512    c1.371-2.908,3.047-5.662,4.945-8.27c0.271-0.371,0.695-0.361,0.953,0.01c0.514,0.744,0.986,1.522,1.535,2.24    c1.141,1.49,2.526,1.918,4.249,1.236c1.314-0.521,2.511-1.24,3.379-2.436c0.944-1.303,1.933-2.576,3.262-3.533    c0.485-0.35,0.873-0.301,1.229,0.232c0.773,1.164,1.348,2.465,2.516,3.348c0.287,0.219,0.422,0.68,0.553,1.057    c0.525,1.514,0.975,3.057,1.547,4.551c0.332,0.865,0.477,1.728,0.518,2.641c0.115,2.607,0.275,5.213,0.409,7.82    c0.032,0.629,0.151,1.199,0.784,1.5c0.66,0.314,0.695,0.898,0.713,1.518c0.062,2.34-0.455,4.58-1.061,6.822    c-1.24,4.582-3.121,8.904-5.196,13.154c-0.527,1.078-1.147,2.106-1.282,3.356c-0.062,0.574-0.392,1.141-0.688,1.66    c-1.496,2.617-3.01,5.223-4.543,7.816c-0.249,0.42-0.574,0.842-0.965,1.123c-1.836,1.33-3.363,1.119-4.629-0.766    c-0.946-1.41-1.748-2.925-2.527-4.439C52.715,68.48,50.691,64.435,48.649,60.398z M61.696,97.732    c-0.059,0.184-0.062,0.461-0.184,0.531c-1.033,0.592-2.086,1.148-3.146,1.689c-0.035,0.018-0.338-0.279-0.312-0.381    c0.254-1.059,0.496-2.127,0.871-3.145c0.092-0.248,0.662-0.473,0.996-0.451C60.787,96.032,61.598,96.911,61.696,97.732z     M55.378,87.558c-0.188-0.162-0.297-0.211-0.317-0.283c-0.045-0.172-0.133-0.432-0.053-0.52c0.246-0.27,0.562-0.477,0.853-0.709    c0.058,0.08,0.184,0.189,0.163,0.232C55.828,86.7,55.608,87.111,55.378,87.558z M56.556,81.421    c-1.25,1.16-2.493,2.336-3.818,3.406c-0.653,0.527-1.007,1.568-2.124,1.412c-0.317-0.724-0.65-1.443-0.947-2.176    c-0.152-0.371-0.209-0.781-0.365-1.148c-0.365-0.856-0.604-1.692-0.139-2.606c0.117-0.23,0.018-0.568,0.018-0.857h-0.15    c0-0.383-0.162-0.9,0.026-1.129c1.105-1.354,1.6-2.998,2.323-4.535c0.281-0.598,0.811-0.643,1.132-0.089    c0.554,0.957,1.116,1.912,1.591,2.908c0.65,1.365,1.269,2.73,2.455,3.748C56.901,80.65,56.881,81.118,56.556,81.421z     M65.734,109.929c0.076,0.164,0.027,0.385,0.038,0.58c-0.122,0.145-0.221,0.385-0.367,0.42c-3.088,0.727-5.943,2.201-9.07,2.799    c-0.52,0.098-0.675-0.031-0.547-0.523c0.441-1.705,1.521-2.961,2.896-3.972c0.638-0.471,1.367-0.815,2.054-1.219    C65.116,105.435,63.714,105.611,65.734,109.929z M64.297,88.663c-1.092,1.164-2.207,2.309-3.322,3.449    c-0.059,0.061-0.17,0.068-0.257,0.1c-0.059-0.08-0.185-0.188-0.165-0.24c0.24-0.645,0.477-1.293,0.765-1.918    c0.431-0.932,0.423-1.727-0.537-2.338c-0.554-0.354-0.443-0.844-0.127-1.277c0.225-0.307,0.53-0.637,0.974-0.299    c0.873,0.666,1.741,1.34,2.59,2.035C64.318,88.257,64.37,88.587,64.297,88.663z M72.28,79.482    c-1.307,2.257-2.621,4.511-3.94,6.763c-0.411,0.699-0.756,0.811-1.457,0.336c-2.238-1.52-4.452-3.074-6.672-4.619    c-0.062-0.045-0.084-0.148-0.123-0.227c0.09-0.043,0.176-0.115,0.27-0.129c0.398-0.051,0.797-0.096,1.195-0.123    c1.334-0.09,2.541-0.58,3.693-1.201c1.112-0.602,1.933-1.379,1.826-2.836c-0.1-1.34,0.971-2.105,1.745-2.99    c0.059-0.066,0.429,0,0.507,0.109c0.98,1.383,1.734,2.932,3.032,4.082c0.065,0.059,0.077,0.18,0.114,0.271    C72.409,79.107,72.378,79.314,72.28,79.482z M58.066,55.153c0.589,0.533,1.22,1.035,1.888,1.463    c0.734,0.473,1.641,0.336,2.16-0.326c0.924-1.18,1.801-2.396,2.672-3.615c0.168-0.234,0.298-0.543,0.311-0.822    c0.012-0.268-0.078-0.615-0.256-0.795c-0.18-0.18-0.574-0.33-0.785-0.252c-0.445,0.164-0.916,0.41-1.226,0.756    c-0.663,0.742-1.208,1.59-1.858,2.346c-0.108,0.125-0.562,0.102-0.758-0.017c-0.73-0.445-1.156-1.094-1.021-1.998    c0.088-0.59,0.197-1.176,0.303-1.764c0.316-1.764,0.635-3.527,0.904-5.02c-0.029-0.484,0.014-0.707-0.065-0.875    c-0.114-0.246-0.273-0.564-0.491-0.646c-0.227-0.084-0.662-0.019-0.801,0.149c-0.373,0.451-0.787,0.957-0.916,1.506    c-0.48,2.035-0.826,4.104-1.277,6.146C56.513,52.905,56.952,54.144,58.066,55.153z M54.21,35.98    c0.236,0.189,0.469,0.387,0.725,0.541c0.477,0.287,0.951,0.268,1.385-0.105c0.414-0.356,0.6-0.819,0.464-1.344    c-0.409-1.582-1.477-2.463-3.286-2.51c-0.287,0.078-0.957,0.096-1.414,0.416c-1.176,0.822-1.916,2.029-2.442,3.354    c-0.196,0.492,0.19,1.184,0.759,1.494c0.5,0.27,1.019,0.219,1.395-0.15c0.499-0.486,0.877-1.094,1.351-1.609    C53.439,35.747,53.825,35.673,54.21,35.98z M64.764,37.044c0.328-0.221,0.648-0.475,0.91-0.77    c0.521-0.586,1.139-0.769,2.006-0.541c0.167,0.047,0.451,0.18,0.744,0.197c0.534,0.033,0.945-0.232,1.244-0.674    c0.265-0.391,0.182-0.953-0.195-1.361c-0.965-1.049-2.166-1.484-3.515-1.035c-1.513,0.504-2.54,1.58-2.809,3.197    c-0.05,0.305,0.28,0.725,0.53,1.008C64.001,37.433,64.424,37.271,64.764,37.044z M65.426,38.823    c-0.078,0.182-0.193,0.369-0.197,0.557c-0.024,1.195-0.04,2.391-0.016,3.586c0.004,0.283,0.137,0.584,0.271,0.844    c0.241,0.461,0.617,0.797,1.165,0.807c0.562,0.01,0.972-0.33,1.114-0.826c0.219-0.756,0.318-1.547,0.469-2.322    c0.047-1.158-0.1-2.203-1.027-3.019C66.692,37.993,65.692,38.189,65.426,38.823z M55.37,43.632    c0.199-1.193,0.238-2.416-0.311-3.547c-0.164-0.338-0.469-0.639-0.773-0.871c-0.577-0.441-1.57-0.092-1.682,0.601    c-0.125,0.791-0.15,1.594-0.225,2.45c0.076,0.75,0.121,1.55,0.25,2.338c0.091,0.551,0.941,0.863,1.478,0.619    C54.804,44.903,55.251,44.335,55.37,43.632z M62.544,59.044c-1.897-0.762-3.502-0.105-4.909,1.162    c-0.222,0.201-0.249,0.736-0.185,1.082c0.033,0.178,0.476,0.406,0.724,0.396c1.089-0.045,2.175-0.168,3.262-0.264    c0.001,0.041,0.003,0.082,0.005,0.123c0.495,0,1.016,0.092,1.479-0.033c0.328-0.086,0.724-0.418,0.823-0.727    c0.098-0.307-0.05-0.781-0.253-1.064C63.276,59.419,62.897,59.187,62.544,59.044z"
         id="path8" />
    </g>
  </g>
  <g
     transform="matrix(-1, 0, 0, 1, 102.42198944091797, 0)"
     id="g10" />
  <g
     transform="matrix(-1, 0, 0, 1, 102.42198944091797, 0)"
     id="g12" />
  <g
     transform="matrix(-1, 0, 0, 1, 102.42198944091797, 0)"
     id="g14" />
  <g
     transform="matrix(-1, 0, 0, 1, 102.42198944091797, 0)"
     id="g16" />
  <g
     transform="matrix(-1, 0, 0, 1, 102.42198944091797, 0)"
     id="g18" />
  <g
     transform="matrix(-1, 0, 0, 1, 102.42198944091797, 0)"
     id="g20" />
  <g
     transform="matrix(-1, 0, 0, 1, 102.42198944091797, 0)"
     id="g22" />
  <g
     transform="matrix(-1, 0, 0, 1, 102.42198944091797, 0)"
     id="g24" />
  <g
     transform="matrix(-1, 0, 0, 1, 102.42198944091797, 0)"
     id="g26" />
  <g
     transform="matrix(-1, 0, 0, 1, 102.42198944091797, 0)"
     id="g28" />
  <g
     transform="matrix(-1, 0, 0, 1, 102.42198944091797, 0)"
     id="g30" />
  <g
     transform="matrix(-1, 0, 0, 1, 102.42198944091797, 0)"
     id="g32" />
  <g
     transform="matrix(-1, 0, 0, 1, 102.42198944091797, 0)"
     id="g34" />
  <g
     transform="matrix(-1, 0, 0, 1, 102.42198944091797, 0)"
     id="g36" />
  <g
     transform="matrix(-1, 0, 0, 1, 102.42198944091797, 0)"
     id="g38" />
  <path
     style="fill:#ffe6d5"
     d="m 56.241921,77.928946 c -0.821053,-0.478278 -6.56005,-9.668768 -6.56005,-10.505336 0,-0.198491 -1.141742,-2.940819 -2.537205,-6.094062 -4.269616,-9.647789 -6.124303,-17.421812 -4.481654,-18.785089 0.455817,-0.378294 0.815188,-2.42532 1.042187,-5.93643 0.384767,-5.95139 1.641532,-10.333661 3.647061,-12.717096 0.71555,-0.850383 1.301001,-1.759832 1.301001,-2.020997 0,-1.156 1.515027,-0.263035 3.95925,2.333605 3.88166,4.12371 6.751555,4.439931 9.088111,1.00138 l 1.246997,-1.835121 1.525627,2.227053 c 3.560151,5.196974 3.951211,6.410213 4.232462,13.130965 0.288442,6.892596 0.752502,8.098371 2.658634,6.907972 1.076953,-0.672568 1.082859,-0.647351 0.838187,3.579208 -0.244174,4.21796 -0.298851,4.360599 -6.031197,15.733967 -3.420538,6.786583 -6.319066,11.897683 -7.092043,12.505704 -1.487336,1.169942 -1.608387,1.190174 -2.837368,0.474277 z m 3.726052,-16.923332 c 0,-1.174721 -1.852493,-2.580557 -3.400443,-2.580557 -0.612892,0 -1.660723,0.462721 -2.328513,1.028268 -1.091463,0.924354 -1.130946,1.09327 -0.390702,1.671492 0.452903,0.353772 2.015105,0.692023 3.471559,0.751668 2.298765,0.09414 2.648099,-0.02075 2.648099,-0.870871 z m -1.217381,-5.034942 c 1.99126,-1.612982 2.367025,-2.956979 1.729236,-6.184953 -0.979902,-4.95948 -1.527024,-6.275509 -2.608961,-6.275509 -1.173738,0 -1.222305,0.701853 -0.395152,5.710455 0.456433,2.763803 0.451893,3.735903 -0.01965,4.207444 -0.474758,0.474758 -0.907522,0.237174 -1.916611,-1.052204 -1.430749,-1.828155 -3.286062,-2.244906 -3.286062,-0.738133 0,0.51001 0.714334,1.898633 1.587408,3.08583 1.743935,2.371383 3.097402,2.715159 4.909788,1.24707 z m 6.257707,-13.628868 c 0.120421,-2.306985 -0.02259,-3.026406 -0.649431,-3.266947 -2.014766,-0.773138 -3.534968,3.053121 -2.089509,5.25917 1.451965,2.215979 2.561401,1.409008 2.73894,-1.992223 z M 51.63623,44.435959 c 0.931995,-0.931995 0.803882,-6.029433 -0.160841,-6.399632 -1.381459,-0.530116 -2.307823,0.825328 -2.307823,3.376776 0,2.133306 0.63866,3.640022 1.542915,3.640022 0.169721,0 0.586308,-0.277725 0.925749,-0.617166 z m 16.024189,-6.813592 c 0.798701,-0.962376 -0.193843,-3.123446 -2.072828,-4.513179 -1.655596,-1.22451 -3.925155,-0.780396 -4.699752,0.91966 -0.872337,1.914571 -0.161101,2.977941 1.737784,2.598164 1.263235,-0.252647 1.769919,-0.09889 2.335616,0.708754 0.851992,1.216389 1.840421,1.321341 2.69918,0.286601 z M 54.310617,36.052786 c 0,-1.831527 -1.715515,-3.342983 -3.794314,-3.342983 -1.923698,0 -3.078075,1.002142 -2.785596,2.418243 0.141508,0.685146 0.603853,0.89296 1.784473,0.802081 0.915695,-0.07049 1.863722,0.202962 2.228822,0.642881 1.05103,1.266413 2.566615,0.959223 2.566615,-0.520222 z"
     id="path3370"
     inkscape:connector-curvature="0" />
  <path
     style="fill:#ffe6d5"
     d="m 35.399946,40.938685 c -0.908534,-1.555773 -1.654052,-3.032538 -1.656706,-3.2817 -0.0048,-0.452935 3.484844,-0.08603 3.990429,0.419554 0.14722,0.14722 0.05403,1.487882 -0.207085,2.979248 l -0.474757,2.711576 -1.651881,-2.828678 z"
     id="path3372"
     inkscape:connector-curvature="0" />
  <path
     style="fill:#ffe6d5"
     d=""
     id="path3374"
     inkscape:connector-curvature="0" />
  <path
     style="fill:#ffe6d5"
     d="m 75.816614,42.359102 c 0,-2.076728 0.04325,-2.182012 0.896376,-2.182012 0.829375,0 1.649304,0.878208 1.649304,1.766532 0,0.486566 -1.799546,2.597491 -2.214339,2.597491 -0.182238,0 -0.331341,-0.981905 -0.331341,-2.182011 z"
     id="path3378"
     inkscape:connector-curvature="0" />
  <path
     style="fill:#afe9dd;fill-opacity:1"
     d="M 52.950496,121.81378 C 44.913774,119.5646 37.03728,111.12811 29.969445,97.198818 l -2.569632,-5.064232 1.713937,-1.522034 c 1.615364,-1.434498 11.029239,-8.180472 12.555734,-8.997427 0.387557,-0.207414 0.848226,-0.288382 1.023708,-0.179928 0.175483,0.108454 1.401756,2.061682 2.725053,4.340507 1.323297,2.278824 2.640532,4.337965 2.927189,4.575869 0.286656,0.237904 0.960664,0.378793 1.497795,0.313086 0.784895,-0.09601 1.258685,0.212906 2.413602,1.573721 l 1.437,1.693186 -1.686228,5.216517 c -0.927426,2.869087 -2.259535,6.715747 -2.960242,8.548137 -2.376284,6.21412 -2.371078,7.03294 0.04471,7.03294 0.942812,0 1.233046,0.17594 1.402243,0.85008 0.301023,1.19937 1.626326,2.7866 2.326751,2.7866 0.324569,0 1.021837,0.41361 1.549485,0.91913 0.696548,0.66733 1.499002,0.97441 2.929249,1.12093 2.543472,0.26057 4.135913,0.84891 3.639996,1.34483 -0.623554,0.62355 -5.839436,0.66471 -7.989304,0.063 z"
     id="path4182"
     inkscape:connector-curvature="0" />
  <path
     style="fill:#afe9dd;fill-opacity:1"
     d="m 63.614511,118.91273 c -0.01527,-1.58915 0.11019,-2.03914 0.613045,-2.19874 0.347738,-0.11037 0.686301,-0.47937 0.752363,-0.82 0.239373,-1.23426 -1.941379,-14.33124 -2.952625,-17.732625 l -1.036756,-3.487191 1.321589,-1.605959 c 0.726874,-0.883277 1.65829,-2.039484 2.069813,-2.56935 0.661923,-0.852272 0.844102,-0.91208 1.579464,-0.518526 1.536785,0.822462 2.480405,0.223223 3.189178,-2.025262 1.093964,-3.470454 2.665677,-2.853117 2.665677,1.047023 0,3.524501 1.26948,4.718923 2.429659,2.286005 0.329751,-0.691495 0.73623,-1.17279 0.903287,-1.069543 0.167057,0.103247 0.30374,2.398109 0.30374,5.099693 0,5.068275 0.279271,6.318835 1.411106,6.318835 1.33497,0 1.861912,-1.15991 1.861912,-4.09845 0,-2.872125 0.54009,-4.084588 0.892283,-2.00311 0.110932,0.655616 0.241939,2.25576 0.291126,3.555875 l 0.08943,2.363845 1.091006,0 c 1.031616,0 1.109587,-0.10466 1.432348,-1.922715 0.255408,-1.438659 0.484298,-1.895505 0.909172,-1.814628 1.127604,0.214644 0.791144,1.683058 -1.078989,4.709033 -3.877594,6.27415 -7.957054,11.10169 -12.307984,14.56497 -2.128725,1.69443 -5.712652,3.92131 -6.307634,3.91926 -0.05665,-2e-4 -0.111648,-0.89949 -0.122211,-1.99844 z"
     id="path4184"
     inkscape:connector-curvature="0" />
  <path
     style="fill:#afe9dd;fill-opacity:1"
     d="m 63.49592,83.530584 -2.683476,-2.453008 1.410636,-2.184404 c 0.775849,-1.201423 1.721879,-2.876092 2.102287,-3.721487 0.380409,-0.845396 0.871362,-1.527872 1.091006,-1.516615 0.219645,0.01126 0.931219,1.136211 1.581277,2.499899 0.896281,1.880212 1.177143,2.951918 1.162145,4.434473 -0.02022,1.998324 -0.962949,5.077771 -1.616731,5.281066 -0.200017,0.0622 -1.571232,-0.99077 -3.047144,-2.339924 z"
     id="path4186"
     inkscape:connector-curvature="0" />
  <path
     style="fill:#afe9dd;fill-opacity:1"
     d="m 49.128435,85.908418 c -1.412823,-2.219731 -3.859984,-6.552269 -3.859984,-6.833849 0,-0.440466 2.950988,-4.348961 3.283548,-4.348961 0.46183,0 1.452497,1.765696 1.684211,3.001822 0.121694,0.649202 0.550096,1.543237 0.952003,1.986744 0.71435,0.788289 3.17623,1.771094 4.990296,1.992172 0.777014,0.09469 0.397463,0.467625 -2.611105,2.565563 -1.936153,1.35012 -3.609802,2.454763 -3.71922,2.454763 -0.109418,0 -0.433305,-0.368214 -0.719749,-0.818254 z"
     id="path4188"
     inkscape:connector-curvature="0" />
  <path
     style="fill:#afe9dd;fill-opacity:1"
     d=""
     id="path4190"
     inkscape:connector-curvature="0" />
  <path
     style="fill:#e5ff80;fill-opacity:1"
     d="m 57.536733,98.938673 c -1.885993,-1.138244 -1.923843,-1.203353 -1.178407,-2.02705 1.099029,-1.214414 1.853755,-0.922128 2.368783,0.917371 0.253613,0.905815 0.396645,1.711407 0.317849,1.790202 -0.07879,0.0788 -0.757497,-0.22744 -1.508225,-0.680523 z"
     id="path4200"
     inkscape:connector-curvature="0" />
  <path
     style="fill:#e5ff80;fill-opacity:1"
     d="m 56.360343,112.13738 c -2.400213,-0.81379 -4.42633,-1.53957 -4.502482,-1.61286 -0.07615,-0.0733 0.229452,-1.03972 0.679121,-2.14764 l 0.817581,-2.01439 2.17772,1.18307 c 2.826514,1.53553 5.204241,3.62795 5.682887,5.00099 0.489873,1.40525 0.498979,1.40602 -4.854827,-0.40917 z"
     id="path4202"
     inkscape:connector-curvature="0" />
  <path
     style="fill:#e5ff80;fill-opacity:1"
     d="m 54.715694,90.173229 -1.599287,-1.629555 1.258299,-1.075555 c 0.692065,-0.591556 1.453205,-1.082207 1.691423,-1.090336 0.753875,-0.02572 0.932848,0.734213 0.32984,1.400529 -0.673737,0.744472 -0.749477,1.954632 -0.187996,3.00377 0.688702,1.286851 0.154176,1.068763 -1.492279,-0.608853 z"
     id="path4204"
     inkscape:connector-curvature="0" />
</svg>
