<?xml version="1.0" encoding="UTF-8" standalone="no"?>
<svg
   xmlns:dc="http://purl.org/dc/elements/1.1/"
   xmlns:cc="http://creativecommons.org/ns#"
   xmlns:rdf="http://www.w3.org/1999/02/22-rdf-syntax-ns#"
   xmlns:svg="http://www.w3.org/2000/svg"
   xmlns="http://www.w3.org/2000/svg"
   xmlns:sodipodi="http://sodipodi.sourceforge.net/DTD/sodipodi-0.dtd"
   xmlns:inkscape="http://www.inkscape.org/namespaces/inkscape"
   id="Capa_1"
   style="enable-background:new 0 0 114.781 114.781;"
   x="0px"
   y="0px"
   viewBox="0 0 114.781 114.781"
   version="1.1"
   inkscape:version="0.91 r13725"
   sodipodi:docname="projectManager.svg">
  <metadata
     id="metadata42">
    <rdf:RDF>
      <cc:Work
         rdf:about="">
        <dc:format>image/svg+xml</dc:format>
        <dc:type
           rdf:resource="http://purl.org/dc/dcmitype/StillImage" />
      </cc:Work>
    </rdf:RDF>
  </metadata>
  <sodipodi:namedview
     pagecolor="#ffffff"
     bordercolor="#666666"
     borderopacity="1"
     objecttolerance="10"
     gridtolerance="10"
     guidetolerance="10"
     inkscape:pageopacity="0"
     inkscape:pageshadow="2"
     inkscape:window-width="1024"
     inkscape:window-height="708"
     id="namedview40"
     showgrid="false"
     inkscape:zoom="1.4538748"
     inkscape:cx="85.723501"
     inkscape:cy="73.353236"
     inkscape:window-x="0"
     inkscape:window-y="0"
     inkscape:window-maximized="0"
     inkscape:current-layer="Capa_1" />
  <defs
     id="defs3" />
  <g
     id="_x0A_character02"
     transform="matrix(-1, 0, 0, 1, 114.5539739380256, 0)">
    <g
       id="g6">
      <path
         style="fill-rule:evenodd;clip-rule:evenodd;"
         d="M114.467,57.536c-0.689-0.853-1.41-1.71-2.249-2.409    c-1.385-1.154-2.879-2.177-4.317-3.268c-1.04-0.787-1.994-1.715-3.11-2.371c-3.899-2.299-7.922-4.35-12.438-5.175    c-2.368-0.433-4.725-0.968-7.154-0.956c-1.008,0.006-2.037-0.041-2.938,0.477c-0.298,0.17-0.654,0.623-0.626,0.914    c0.172,1.806-0.178,3.592-0.135,5.391c0.021,0.943-0.084,1.663-1.363,1.922c-0.803,0.161-1.474,0.978-2.19,1.565    c-0.021,0.063-0.041,0.128-0.064,0.191c-0.026,0.014-0.056,0.025-0.084,0.038c-0.006,0.361,0.025,0.733-0.066,1.073    c-0.746,2.792-1.514,5.578-2.293,8.361c-0.295,1.057-0.6,2.113-0.971,3.143c-0.229,0.631-0.277,1.574-1.078,1.643    c-0.469,0.04-0.99-0.559-1.49-0.865c-1.895-1.158-4.01-1.771-6.089-2.477c-0.464-0.158-0.921-0.348-1.356-0.57    c-0.099-0.051-0.115-0.305-0.123-0.465c-0.002-0.049,0.15-0.123,0.242-0.154c5.269-1.791,9.582-4.875,12.808-9.44    c0.085-0.12,0.26-0.177,0.416-0.248c0-0.036-0.001-0.073,0-0.109c0.05-0.038,0.098-0.08,0.148-0.12    c0.136-0.408,0.25-0.828,0.458-1.194c1.61-2.861,2.457-5.914,2.467-9.207c0.003-0.787-0.042-1.699,0.326-2.322    c0.288-0.488,1.189-0.601,1.801-0.919c0.354-0.183,0.686-0.419,1.004-0.661c0.735-0.561,1.365-1.244,1.574-2.152    c0.297-1.283,0.316-2.6-0.126-3.865c-0.347-0.992-1.015-1.699-2.035-2.088c-0.387-0.149-0.551-0.529-0.272-0.977    c0.213-0.34,0.443-0.693,0.541-1.074c0.827-3.205,1.639-6.416,2.418-9.635c0.113-0.473,0.076-0.996,0.029-1.49    c-0.053-0.562-0.668-1.211-1.234-1.109c-0.99,0.176-1.719-0.189-2.505-0.682c-0.673-0.422-1.437-0.713-2.185-0.998    c-1.404-0.533-2.82-1.042-4.246-1.516c-0.564-0.189-1.17-0.359-1.758-0.361c-1.613-0.004-2.902-0.654-4.045-1.733    c-0.582-0.552-1.201-1.075-1.851-1.545c-2.279-1.649-4.505-3.388-6.889-4.869c-3.419-2.124-7.835-2.198-11.543-0.526    c-1.736,0.781-3.503,1.51-5.296,2.148c-4.16,1.482-7.01,4.559-9.596,7.904c-0.626,0.809-1.029,1.689-2.153,1.846    c-0.095,0.014-0.183,0.082-0.272,0.127c-1.69,0.855-3.208,2.092-5.184,2.322c-0.176,0.021-0.424,0.177-0.48,0.328    c-0.535,1.449-2.033,2.504-1.639,4.35c0.25,1.168,0.207,2.397,0.387,3.584c0.211,1.388,0.521,2.76,0.79,4.138    c0.101,0.516,0.057,0.989-0.328,1.398c-0.345,0.365-0.724,0.715-0.991,1.133c-1.803,2.816-0.432,5.555,1.906,6.517    c0.463,0.19,0.947,0.329,1.422,0.491c1.207,0.406,1.223,0.404,1.246,1.649c0.023,1.207,0.027,2.414,0.009,3.621    c-0.016,1.057-0.128,1.256-1.112,1.434c-1.617,0.289-3.076,0.928-4.422,1.828c-1.598,1.07-3.334,1.848-5.117,2.525    c-2.453,0.935-4.734,2.199-6.961,3.572c-1.625,1-3.293,1.939-4.857,3.029c-1.061,0.738-2.219,1.531-2.895,2.584    c-0.928,1.443-2.082,2.699-3.013,4.125c-0.328,0.503-0.681,0.998-0.944,1.535c-0.68,1.373-0.428,2.484,0.738,3.494    c0.639,0.553,1.572,0.625,2.221,0.113c0.471-0.371,0.885-0.814,1.332-1.219c3.135-2.832,6.304-5.621,9.771-8.045    c0.936-0.653,1.251-0.533,1.266,0.5c0.048,3.316,0.072,6.631-0.378,9.934c-0.163,1.188-0.183,2.412-0.118,3.61    c0.1,1.86,0.996,2.655,2.874,2.78c0.886,0.058,1.77,0.154,2.654,0.235c0.307,1.104-0.489,1.882-0.923,2.708    c-0.934,1.773-1.947,3.525-3.123,5.145c-0.863,1.189-1.709,2.222-1.048,3.8c0.137,0.326,0.032,0.813-0.097,1.181    c-0.476,1.348,0.138,2.332,1,3.246c1.547,1.645,3.407,2.799,5.537,3.531c2.192,0.758,4.265,1.768,6.236,2.986    c1.965,1.215,3.945,2.41,5.879,3.674c3.289,2.15,6.838,3.826,10.293,5.672c1.152,0.615,2.406,1.023,3.749,1.016    c0.624-0.002,1.208-0.137,1.565-0.707c0.082-0.133,0.105-0.445,0.023-0.514c-0.297-0.244-0.633-0.463-0.988-0.613    c-4.469-1.9-8.652-4.24-12.125-7.717c-0.627-0.627-1.403-1.125-2.162-1.602c-3.408-2.137-6.945-4.039-10.516-5.893    c-1.686-0.875-3.234-2.02-4.824-3.072c-0.367-0.244-0.4-0.647-0.172-1.057c1.133-2.015,2.275-4.024,3.377-6.055    c0.62-1.147,1.158-2.338,1.75-3.502c0.566-1.116,0.691-2.279,0.533-3.516c-0.18-1.418-0.57-1.992-1.891-2.375    c-0.475-0.139-0.984-0.164-1.478-0.232c-1.608-0.221-2.475-1.271-2.41-2.812c0.133-3.111,0.24-6.223,0.324-9.335    c0.039-1.407-0.033-2.816,0.019-4.222c0.014-0.354,0.221-0.829,0.497-1.021c1.56-1.094,3.159-2.132,4.766-3.158    c0.678-0.433,1.437,0.002,1.467,0.818c0.058,1.506-0.048,3.031,0.153,4.518c0.562,4.178,1.363,8.32,2.402,12.406    c0.74,2.918,1.537,5.834,2.912,8.535c0.544,1.066,1.122,2.17,1.919,3.041c0.965,1.057,1.759,2.188,2.394,3.445    c1.926,3.816,4.802,6.932,7.615,10.06c1.109,1.233,2.754,1.985,4.145,2.972c0.572,0.408,1.211,0.771,1.659,1.293    c1.04,1.213,2.497,1.648,3.861,2.258c0.671,0.301,1.014-0.004,1.419-0.645c0.64-1.012-0.105-1.882-0.123-2.814    c-0.027-0.003-0.054-0.004-0.08-0.008c-0.003-0.036-0.005-0.072-0.008-0.107c-0.308-0.137-0.642-0.245-0.883-0.457    c-0.115-0.102-0.061-0.486,0.029-0.695c0.057-0.135,0.316-0.236,0.488-0.242c0.088-0.002,0.242,0.227,0.267,0.367    c0.059,0.338,0.072,0.684,0.098,1.027c0.027,0.012,0.056,0.022,0.082,0.035c-0.001,0.027,0.005,0.054,0.006,0.081    c0.83,0.112,1.686-0.192,2.495,0.474c0.786,0.646,0.917,0.553,1.625-0.395c0.278-0.371,0.383-0.689,0.718-0.082    c0.143,0.262,0.33,0.51,0.541,0.719c0.467,0.463,1.214,0.291,1.488-0.32c0.082-0.182,0.207-0.361,0.231-0.551    c0.218-1.689,0.429-3.381,0.618-5.076c0.081-0.727-0.088-1.397-0.598-1.955c-0.275-0.301-0.559-0.652-0.333-1.057    c0.747-1.344,0.644-2.69,0.128-4.062c-0.018-0.045,0.105-0.198,0.18-0.213c0.164-0.031,0.453-0.064,0.489,0.006    c0.544,1.07,1.017,2.18,1.589,3.236c0.377,0.695,0.824,1.379,1.359,1.955c0.419,0.451,1.031,0.572,1.666,0.26    c0.57-0.279,1.082-0.633,1.113-1.297c0.027-0.586,0.014-1.234-0.21-1.757c-0.706-1.661-1.528-3.274-2.288-4.911    c-0.816-1.758-1.885-3.305-3.416-4.531c-0.854-0.684-0.824-0.735-0.381-1.736c0.861-1.939,1.789-3.854,0.799-6.054    c-0.145-0.319-0.016-0.79,0.061-1.176c0.266-1.319-0.379-2.083-1.486-2.628c-0.62-0.307-1.17-0.902-1.928-0.623    c-0.867,0.32-1.506,0.164-2.166-0.497c-0.31-0.31-0.902-0.465-1.367-0.468c-1.103-0.004-2.217,0.053-3.305,0.223    c-0.781,0.123-1.557,0.406-2.282,0.733c-0.774,0.35-1.438,1.398-1.227,2.506c0.55,2.887,1.837,5.512,2.806,8.248    c0.142,0.402,0.654,0.764,1.08,0.951c0.516,0.228,0.846,0.531,0.933,1.057c0.079,0.477,0.156,0.977,0.089,1.445    c-0.085,0.59-0.273,1.177-0.492,1.734c-0.844,2.148-1.648,4.314-2.6,6.412c-0.645,1.422-1.22,2.771-0.399,4.295    c0.043,0.08,0.009,0.197,0.019,0.296c0.036,0.337-0.499,0.731-0.837,0.628c-1.304-0.401-2.294-1.233-3.085-2.303    c-1.672-2.26-3.355-4.514-4.958-6.822c-1.256-1.809-2.503-3.639-3.568-5.561c-1.958-3.533-3.208-7.354-4.12-11.277    c-0.246-1.057-0.326-2.152-0.483-3.23c1.085,0.473,1.249,1.646,1.858,2.477c1.483,2.023,3.006,4.025,4.024,6.353    c0.188,0.431,0.62,0.782,1.001,1.095c0.76,0.621,1.793,0.465,2.405-0.316c0.124-0.158,0.282-0.31,0.345-0.492    c0.7-2.037,2.162-3.602,3.295-5.371c0.7-1.092,1.311-2.245,1.915-3.394c0.214-0.404,0.487-0.619,0.919-0.627    c2.207-0.041,4.426,0.055,6.582-0.584c0.18-0.053,0.4-0.017,0.59,0.025c4.307,0.968,8.537,2.187,12.635,3.841    c1.04,0.422,1.969,0.979,2.649,1.912c0.901,1.236,2.256,1.611,3.675,1.8c0.766,0.103,1.381-0.237,1.771-0.897    c0.203-0.342,0.332-0.73,0.463-1.109c0.559-1.606,1.098-3.219,1.672-4.82c0.04-0.111,0.223-0.169,0.376-0.239    c0.002-0.037,0.003-0.074,0.005-0.111c0.036-0.022,0.061-0.047,0.092-0.07c0.028-0.55,0.054-1.1,0.092-1.649    c0.006-0.093,0.076-0.182,0.117-0.271c0.07,0.131,0.201,0.262,0.203,0.395c0.004,0.547,0.107,1.137-0.412,1.526    c-0.002,0.046-0.005,0.092-0.008,0.138c-0.026,0.015-0.059,0.029-0.089,0.042c-0.038,0.663-0.007,1.343-0.157,1.981    c-1.384,5.869-3.166,11.611-5.57,17.15c-0.764,1.758-1.632,3.457-2.785,4.988c-0.543,0.721-1.24,1.32-1.79,2.035    c-1.099,1.43-2.21,2.857-3.197,4.363c-0.98,1.494-1.726,3.139-2.871,4.535c-0.241,0.295-0.36,0.713-0.469,1.092    c-0.181,0.633,0.327,1.545,0.954,1.68c0.582,0.125,0.916-0.275,1.194-0.713c0.378-0.594,0.745-1.193,1.124-1.785    c2.822-4.396,5.627-8.803,8.482-13.176c0.711-1.09,1.484-2.18,2.42-3.066c1.363-1.295,2.176-2.824,2.778-4.57    c1.741-5.039,3.073-10.188,3.983-15.43c0.771-4.445,1.387-8.926,1.354-13.465c-0.029-3.82-0.385-3.352,3.41-3.188    c1.088,0.047,2.17,0.375,3.24,0.639c1.375,0.34,1.629,0.666,1.748,2.059c0.197,2.3,0.414,4.598,0.564,6.9    c0.117,1.807,0.165,3.617,0.211,5.426c0.019,0.73-0.367,1.125-1.08,1.159c-0.803,0.037-1.609,0.007-2.412,0.04    c-1.779,0.074-2.514,0.857-2.58,2.625c-0.031,0.859,0.201,1.596,0.803,2.191c0.715,0.705,1.432,1.415,2.205,2.055    c1.78,1.47,3.599,2.893,5.393,4.348c0.467,0.379,0.908,0.792,1.344,1.209c0.33,0.316,0.32,0.686,0.127,1.088    c-0.969,2.012-2.352,3.742-3.774,5.434c-1.682,1.998-3.492,3.891-5.148,5.91c-2.365,2.889-5.048,5.455-7.754,8.008    c-2.705,2.551-5.379,5.135-8.035,7.734c-0.493,0.484-0.873,1.096-1.237,1.689c-0.327,0.531-0.181,1.131,0.292,1.648    c0.572,0.625,1.264,0.854,1.878,0.481c0.679-0.414,1.356-0.873,1.913-1.432c3.191-3.207,6.354-6.441,9.818-9.361    c0.767-0.646,1.469-1.379,2.131-2.133c2.186-2.494,4.402-4.965,6.488-7.541c1.893-2.338,3.853-4.637,5.209-7.37    c0.735-1.482,1.357-2.927,0.674-4.593c0.473-1.576-0.566-2.434-1.602-3.245c-1.344-1.053-2.744-2.032-4.096-3.075    c-0.552-0.426-1.045-0.93-1.539-1.424c-0.055-0.055,0.039-0.399,0.111-0.418c1.164-0.291,2.338-0.537,3.503-0.824    c0.772-0.191,1.19-0.796,1.306-1.508c0.111-0.682,0.062-1.4,0.006-2.096c-0.088-1.1-0.24-2.194-0.365-3.29    c-0.172-1.493-0.342-2.989-0.513-4.483c-0.206-1.791-0.431-3.58-0.604-5.375c-0.026-0.279,0.21-0.59,0.587-0.51    c3.556,0.753,6.396,2.801,9.1,5.08c0.291,0.244,0.439,0.66,0.652,0.998c0.438,0.693,0.974,1.248,1.767,1.568    c0.544,0.221,1.089,0.527,1.525,0.915c0.951,0.846,2.182,0.97,3.295,1.38c0.584,0.215,1.445-0.406,1.629-1.045    C114.836,58.668,114.858,58.019,114.467,57.536z M81.571,34.763c0.073-0.057,0.394,0.045,0.452,0.152    c0.313,0.578,0.241,1.137-0.221,1.619c-0.058,0.06-0.17,0.067-0.258,0.1c-0.088-0.019-0.209-0.006-0.259-0.061    C80.879,36.136,81.012,35.199,81.571,34.763z M29.576,36.896c-0.072,0.369-0.601,0.621-0.914,0.383    c-0.293-0.223-0.622-0.52-0.718-0.848c-0.135-0.461,0.5-1.122,1.074-1.201c0.142-0.02,0.387,0.114,0.45,0.244    c0.123,0.25,0.149,0.549,0.189,0.721C29.623,36.506,29.614,36.705,29.576,36.896z M57.838,75.05    c0.229,0.025,0.445,0.148,0.686,0.242c-0.142,0.248-0.231,0.402-0.32,0.561c-0.213-0.146-0.425-0.291-0.637-0.436    C57.657,75.289,57.761,75.043,57.838,75.05z M56.802,83.906c0.673-1.117,1.592-1.4,2.643-0.812    c0.104,0.057,0.176,0.432,0.12,0.474c-0.569,0.438-2.161,0.902-2.632,0.808C56.884,84.216,56.744,84.002,56.802,83.906z     M43.948,66.162c-0.862,1.574-1.773,3.118-3.077,4.379c-0.098,0.096-0.355,0.05-0.532,0.029c-0.083-0.01-0.171-0.105-0.226-0.182    c-2.233-3.068-4.368-6.199-6.117-9.576c-0.086-0.168-0.113-0.375-0.125-0.567c-0.002-0.065,0.121-0.155,0.205-0.204    c0.073-0.045,0.216-0.096,0.249-0.062c0.343,0.336,0.711,0.66,0.994,1.045c0.795,1.078,1.783,1.811,3.075,2.258    c1.782,0.619,3.504,1.41,5.242,2.15c0.144,0.062,0.22,0.29,0.316,0.427C43.953,65.969,43.989,66.086,43.948,66.162z     M61.118,59.531c-2.097,0.299-4.097,0.895-6.031,1.766c-0.618,0.277-1.359,0.375-2.047,0.385    c-2.104,0.029-4.212,0.117-6.291-0.422c-0.764-0.197-1.599-0.233-2.392-0.176c-1.063,0.078-1.98-0.248-2.855-0.757    c-0.607-0.353-1.174-0.774-1.762-1.159c-2.294-1.502-3.764-3.499-4.129-6.307c-0.428-3.277-1.254-6.5-1.317-9.83    c-0.024-1.213-0.104-2.381,0.97-3.309c0.49-0.424,0.466-1.225-0.014-1.639c-0.89-0.768-0.914-1.689-0.889-2.725    c0.066-2.732,0.717-5.364,1.347-7.994c0.419-1.752,1.028-3.459,1.515-5.195c1.389-4.955,4.545-8.66,8.428-11.818    c0.754-0.611,1.727-1.049,2.668-1.316c3.904-1.105,7.73-0.906,11.408,0.947c1.699,0.859,3.355,1.843,5.131,2.501    c1.284,0.476,2.27,1.233,3.223,2.124c2.205,2.062,4.385,4.139,5.771,6.893c0.268,0.529,0.736,0.951,1.08,1.445    c1.045,1.502,1.936,3.065,1.813,4.992c0.772,2.752,0.644,5.566,0.503,8.375c0,1.206-0.059,2.415,0.014,3.616    c0.111,1.882-0.484,3.556-1.323,5.183c-0.78,1.518-1.62,3.008-2.313,4.564c-2.244,5.028-6.141,8.061-11.338,9.569    C61.901,59.357,61.513,59.474,61.118,59.531z M70.034,107.974c-0.266,0.271-0.567,0.508-0.815,0.793    c-0.068,0.076-0.04,0.379,0.01,0.398c0.156,0.057,0.379,0.092,0.515,0.02c0.432-0.23,0.75-0.566,0.71-1.08    C70.366,107.787,70.242,107.765,70.034,107.974z M67.614,52.939c-1.655,0.703-3.295,1.443-4.949,2.152    c-1.935,0.828-3.905,1.658-6.027,1.689c-3.493,0.053-7.009,0.359-10.465-0.504c-0.677-0.168-1.383-0.303-2.075-0.303    c-0.574,0.002-1.185,0.146-1.709,0.383c-0.308,0.137-0.659,0.578-0.659,0.881c0,0.26,0.436,0.678,0.745,0.754    c3.405,0.824,6.82,1.627,9.804,1.283c1.47,0,2.372-0.023,3.272,0.004c3.744,0.118,7.068-1.157,10.185-3.085    c1.026-0.634,1.96-1.397,2.449-2.553c0.063-0.149,0.013-0.413-0.088-0.546C68.009,52.98,67.738,52.886,67.614,52.939z     M67.217,27.261c-0.688-0.082-1.389-0.078-2.002-0.107c-0.879,0.041-1.697-0.027-2.463,0.143    c-0.855,0.191-1.697,0.529-2.479,0.934c-0.664,0.344-0.854,1.4-0.522,2.137c0.274,0.609,0.97,0.979,1.733,0.812    c2.168-0.475,4.318-0.557,6.484,0.039c0.66,0.18,1.331-0.279,1.688-0.961c0.318-0.609,0.139-1.16-0.201-1.68    C68.929,27.773,68.139,27.375,67.217,27.261z M48.898,31.265c0.64-0.613,0.561-1.48-0.138-2.07    c-0.843-0.711-1.831-0.709-2.837-0.715c-2.137,0.033-4.148,0.517-5.955,1.701c-0.732,0.479-0.961,1.357-0.58,2.09    c0.324,0.623,1.059,1.023,1.76,0.822c2.021-0.58,4.054-1.041,6.168-1.072C47.943,32.012,48.45,31.696,48.898,31.265z     M51.994,44.668c0.771,0.186,1.584,0.195,2.351,0.281c0.733-0.076,1.468-0.035,2.112-0.254c0.633-0.216,1.219-0.645,1.744-1.078    c0.441-0.365,0.51-1.249,0.123-1.648c-0.321-0.332-0.788-0.604-1.234-0.707c-0.349-0.078-0.77,0.133-1.152,0.232    c-1.408,0.365-2.768,0.418-3.996-0.545c-0.153-0.123-0.342-0.223-0.53-0.273c-0.515-0.139-0.985-0.033-1.391,0.328    c-0.482,0.429-0.658,1.08-0.449,1.626C50.004,43.757,50.879,44.398,51.994,44.668z M57.126,49.017    c-1.692,0.15-3.38,0.372-5.067,0.574c-0.196,0.023-0.396,0.08-0.575,0.16c-0.489,0.221-0.801,0.578-0.812,1.145    c-0.011,0.516,0.339,0.984,0.871,1.054c0.892,0.116,1.79,0.181,2.413,0.241c1.08-0.082,1.883-0.123,2.68-0.207    c1.024-0.105,1.958-0.459,2.693-1.193c0.191-0.19,0.383-0.588,0.307-0.787c-0.127-0.332-0.426-0.737-0.736-0.83    C58.341,49.005,57.712,48.965,57.126,49.017z M63.644,38.107c0.739,0.098,1.305-0.232,1.71-0.896    c0.44-0.721,0.478-1.49,0.379-2.283c-0.097-0.785-0.647-1.18-1.335-1.416c-0.65-0.223-1.137,0.117-1.598,0.508    c-0.584,0.498-0.675,1.17-0.646,2.033c0.018,0.141,0.036,0.438,0.094,0.727C62.388,37.492,62.949,38.015,63.644,38.107z     M43.992,34.523c-0.516,0.109-0.896,0.412-1.064,0.91c-0.292,0.863-0.336,1.76,0.039,2.592c0.137,0.303,0.542,0.595,0.877,0.678    c1.172,0.291,2.02-0.502,2.062-2.145c-0.072-0.275-0.168-0.857-0.383-1.391C45.328,34.683,44.554,34.404,43.992,34.523z"
         id="path8" />
    </g>
  </g>
  <g
     transform="matrix(-1, 0, 0, 1, 114.5539739380256, 0)"
     id="g10" />
  <g
     transform="matrix(-1, 0, 0, 1, 114.5539739380256, 0)"
     id="g12" />
  <g
     transform="matrix(-1, 0, 0, 1, 114.5539739380256, 0)"
     id="g14" />
  <g
     transform="matrix(-1, 0, 0, 1, 114.5539739380256, 0)"
     id="g16" />
  <g
     transform="matrix(-1, 0, 0, 1, 114.5539739380256, 0)"
     id="g18" />
  <g
     transform="matrix(-1, 0, 0, 1, 114.5539739380256, 0)"
     id="g20" />
  <g
     transform="matrix(-1, 0, 0, 1, 114.5539739380256, 0)"
     id="g22" />
  <g
     transform="matrix(-1, 0, 0, 1, 114.5539739380256, 0)"
     id="g24" />
  <g
     transform="matrix(-1, 0, 0, 1, 114.5539739380256, 0)"
     id="g26" />
  <g
     transform="matrix(-1, 0, 0, 1, 114.5539739380256, 0)"
     id="g28" />
  <g
     transform="matrix(-1, 0, 0, 1, 114.5539739380256, 0)"
     id="g30" />
  <g
     transform="matrix(-1, 0, 0, 1, 114.5539739380256, 0)"
     id="g32" />
  <g
     transform="matrix(-1, 0, 0, 1, 114.5539739380256, 0)"
     id="g34" />
  <g
     transform="matrix(-1, 0, 0, 1, 114.5539739380256, 0)"
     id="g36" />
  <g
     transform="matrix(-1, 0, 0, 1, 114.5539739380256, 0)"
     id="g38" />
  <path
     style="fill:#6f7c91"
     d="M 49.689701,118.4259 C 33.824312,114.58843 16.19576,94.519572 3.4778455,65.816992 2.2605255,63.069668 1.2645364,60.742584 1.2645364,60.645694 c 0,-0.09689 1.2093517,-0.767844 2.6874482,-1.491009 1.4780963,-0.723165 3.6027422,-2.291394 4.7214347,-3.484952 2.0297597,-2.165595 8.6231077,-5.896969 9.4819967,-5.366146 0.250969,0.155108 0.08372,3.421522 -0.394079,7.696463 -0.489495,4.379578 -0.664109,7.863572 -0.425559,8.491004 0.287339,0.755758 0.976172,1.160591 2.377662,1.397371 1.085219,0.183347 2.090323,0.522987 2.233564,0.754756 0.143241,0.231769 -1.364116,1.644137 -3.349684,3.138595 -3.326096,2.503421 -3.635691,2.887699 -3.935111,4.88437 -0.279185,1.861741 -0.106006,2.578025 1.228782,5.082344 2.289754,4.296018 8.411765,11.471908 16.70464,19.58027 7.093779,6.93595 9.039609,8.34073 10.093442,7.2869 0.97551,-0.97551 -0.189745,-2.47628 -7.509302,-9.671466 C 24.715173,88.65741 16.379311,78.857607 16.901049,77.45537 c 0.09361,-0.251578 2.206733,-2.13899 4.695839,-4.194248 5.193368,-4.288171 5.969908,-5.465926 4.790607,-7.265765 -0.628614,-0.959387 -1.270275,-1.239564 -3.108741,-1.357414 l -2.316631,-0.1485 0.158706,-5.540405 c 0.08729,-3.047222 0.311255,-6.434004 0.497703,-7.526182 0.305912,-1.791964 0.527768,-2.042677 2.273095,-2.568751 1.063754,-0.320635 2.854344,-0.599792 3.97909,-0.62035 1.943151,-0.03552 2.057043,0.04134 2.286984,1.543293 0.133095,0.869369 0.34433,3.878722 0.469411,6.687452 0.44488,9.989922 4.288412,24.742351 7.324839,28.114553 0.88974,0.988128 4.086817,5.626683 7.104615,10.3079 3.017799,4.681217 5.551135,8.592517 5.629638,8.691787 0.0785,0.0993 1.192302,0.24995 2.475111,0.33487 1.282809,0.0849 2.879535,0.24571 3.54828,0.35732 0.668745,0.11161 1.763055,-0.17202 2.431801,-0.6303 0.668745,-0.45827 1.477343,-0.7408 1.796886,-0.62784 0.761251,0.26909 1.793079,-0.308 6.185933,-3.459722 3.719172,-2.668386 7.342963,-6.426135 9.776661,-10.138073 0.74523,-1.136643 2.424068,-3.647851 3.730742,-5.580462 1.30668,-1.93261 2.892321,-4.887248 3.523655,-6.565862 1.679845,-4.466427 3.717129,-14.058419 4.038064,-19.012098 0.185157,-2.857926 0.491088,-4.393092 0.9073,-4.552807 0.655857,-0.251676 4.856822,2.343566 5.909821,3.650925 0.691254,0.85823 0.870964,14.965102 0.204028,16.015677 -0.21396,0.337041 -1.353711,0.892106 -2.532779,1.233477 -1.794334,0.519508 -2.21879,0.882302 -2.604099,2.225789 -0.414748,1.446147 -0.158116,2.204071 2.591254,7.652871 2.52186,4.997908 2.946282,6.174651 2.444928,6.778744 -0.333663,0.402043 -2.818822,1.965515 -5.522576,3.474381 -8.314964,4.640281 -10.419824,5.97818 -13.312174,8.46148 -1.53451,1.31749 -4.705063,3.38935 -7.045671,4.60412 -2.340608,1.21478 -4.255651,2.41724 -4.255651,2.67215 0,0.2549 0.801828,0.46346 1.781838,0.46346 2.013857,0 8.542926,-3.28243 16.377459,-8.2336 4.918376,-3.108262 8.866584,-5.049282 9.703343,-4.770364 0.726661,0.242222 -7.111962,8.297484 -11.532607,11.851334 -4.356206,3.50204 -12.099814,7.56707 -16.553808,8.68995 -3.61295,0.91086 -11.199439,0.88655 -15.064242,-0.0482 l 0,-1e-5 z"
     id="path3392"
     inkscape:connector-curvature="0" />
  <path
     style="fill:#6f7c91"
     d="m 99.022929,89.016671 c 0,-0.553674 -0.620871,-1.921562 -1.379714,-3.039751 -0.758842,-1.118189 -2.017299,-3.187804 -2.796571,-4.599145 -1.590223,-2.880058 -1.317409,-3.491876 1.563342,-3.50598 2.61792,-0.01282 2.790235,-0.654221 2.409888,-8.970251 -0.24651,-5.389768 -0.187695,-7.575126 0.210494,-7.82122 0.681454,-0.421161 2.781372,1.052048 8.308322,5.828754 l 4.26845,3.689041 -2.44492,4.241064 c -2.85509,4.952567 -9.516198,15.184168 -9.885394,15.184168 -0.139643,0 -0.253897,-0.453006 -0.253897,-1.00668 z"
     id="path3394"
     inkscape:connector-curvature="0" />
  <path
     style="fill:#ffe6d5"
     d="M 58.585833,61.129438 C 58.146525,60.851298 56.31613,60.282593 54.518291,59.865646 46.947705,58.10991 43.725751,55.464356 39.934426,47.890809 l -2.679238,-5.352044 0.02118,-6.647783 c 0.02706,-8.492935 0.351015,-10.033846 2.950073,-14.032242 3.37541,-5.192739 6.574113,-8.067956 11.767116,-10.577105 5.801096,-2.8029676 8.599764,-3.4255416 12.313097,-2.7390947 3.233806,0.5978015 5.789804,2.2068867 8.508935,5.3566557 2.443788,2.830819 3.966758,5.976526 5.544944,11.453122 1.800953,6.249637 2.251348,10.306764 1.358966,12.241466 -0.635826,1.378482 -0.62584,1.671571 0.0944,2.770802 0.710575,1.084474 0.740709,1.761642 0.255852,5.749347 -1.09375,8.99552 -1.97219,11.037624 -5.806365,13.498008 -2.250565,1.444183 -2.647978,1.525731 -8.619084,1.7686 -3.942623,0.160363 -6.555395,0.06741 -7.058475,-0.251103 z m 12.379932,-2.922261 c 2.680603,-0.830319 2.028983,-1.746257 -1.168188,-1.642044 -12.991892,0.423464 -13.549439,0.375441 -18.327026,-1.578551 -2.466557,-1.008802 -4.626058,-1.692777 -4.798891,-1.519944 -0.812053,0.812053 3.492369,3.782385 7.258892,5.009107 2.471498,0.804946 14.164619,0.620601 17.035213,-0.268568 z m -7.447128,-7.298912 c 0,-0.699309 -0.41795,-1.013863 -1.58067,-1.189629 -5.590895,-0.845164 -6.687453,-0.768766 -6.687453,0.465918 0,1.119354 1.576698,1.644248 4.985192,1.659603 2.938367,0.01324 3.282931,-0.08499 3.282931,-0.935892 z m 0.838108,-7.626846 c 0.791473,-1.082404 0.780302,-1.3847 -0.07748,-2.096594 -0.508491,-0.42201 -0.962766,-0.438206 -1.670287,-0.05955 -0.53451,0.286061 -2.087403,0.520111 -3.450874,0.520111 -1.802184,0 -2.5589,0.208114 -2.771535,0.762232 -0.921981,2.402642 6.275281,3.191707 7.970174,0.873804 z m 6.938413,-5.277421 c 0.351044,-0.422982 0.469585,-1.243728 0.285542,-1.977015 -0.237755,-0.947291 -0.577992,-1.216348 -1.391802,-1.100626 -1.245575,0.177118 -1.723153,1.999888 -0.811721,3.098095 0.738869,0.890283 1.165916,0.885729 1.917981,-0.02046 z m -19.05799,-1.769022 c 0.200487,-1.729049 -1.108524,-3.02861 -2.370391,-2.353279 -1.785979,0.955827 -1.021343,4.005792 0.947037,3.777524 0.967221,-0.112165 1.311116,-0.456276 1.423354,-1.424245 z m 22.857533,-4.614282 c 0.292811,-2.051334 -6.845625,-4.013309 -8.901083,-2.446432 -1.625975,1.239482 -0.406642,2.394825 3.209257,3.040836 4.346268,0.776497 5.513541,0.654597 5.691826,-0.594404 z M 54.520974,29.486379 c 0,-1.048448 -0.322251,-1.295436 -2.339912,-1.793419 -4.111154,-1.014682 -7.828733,0.280525 -7.000462,2.438966 0.248072,0.646465 1.061653,0.760255 4.819415,0.674058 4.470462,-0.102546 4.520959,-0.117286 4.520959,-1.319605 z"
     id="path3404"
     inkscape:connector-curvature="0" />
  <path
     style="fill:#ffe6d5"
     d="m 32.547149,36.433524 c -0.275119,-0.275119 -0.195579,-1.504361 0.109544,-1.692937 0.368683,-0.227859 0.973287,0.616231 0.884212,1.234451 -0.07077,0.491143 -0.680013,0.772229 -0.993756,0.458486 z"
     id="path3406"
     inkscape:connector-curvature="0" />
  <path
     style="fill:#ffe6d5"
     d="m 85.075897,37.164915 c -0.247666,-0.247666 -0.205548,-1.365092 0.0676,-1.793578 0.262872,-0.412362 0.871037,-0.153409 1.323193,0.563407 0.46199,0.732406 -0.785313,1.835655 -1.390797,1.230171 z"
     id="path3408"
     inkscape:connector-curvature="0" />
  <path
     style="fill:#f2f2f2"
     d="m 54.706848,104.15974 c -0.756599,-0.0827 -1.7738,-0.19299 -2.260448,-0.2451 l -0.884812,-0.0947 0.432826,-0.43283 c 0.363979,-0.36398 0.417964,-0.54364 0.339388,-1.12946 -0.05139,-0.38316 -0.321503,-1.01565 -0.600247,-1.40556 -0.278745,-0.3899 -1.118059,-1.714839 -1.865143,-2.944312 -1.463845,-2.409045 -3.575334,-5.311174 -4.895233,-6.728238 -2.164764,-2.324125 -4.19025,-6.516567 -6.52488,-13.505491 -1.974103,-5.909653 -3.469355,-12.268729 -2.702152,-11.491837 0.140093,0.141863 0.702157,1.556283 1.249032,3.143156 1.347638,3.910458 1.692599,4.183711 4.274764,3.386162 0.955712,-0.29519 1.282533,-0.50871 2.124552,-1.388025 0.547303,-0.571544 1.304614,-1.222379 1.682913,-1.446299 1.521595,-0.900655 6.759842,-2.652498 11.418327,-3.818667 2.352812,-0.588986 2.536745,-0.610527 3.443522,-0.403285 0.526869,0.120416 2.118637,0.257062 3.537259,0.30366 1.701471,0.05589 2.701017,0.161641 2.936904,0.310726 0.196674,0.124302 0.655407,0.793862 1.019407,1.487911 0.364,0.694049 1.323888,2.22915 2.133084,3.411336 0.809198,1.182185 1.783163,2.768464 2.16437,3.525063 1.423243,2.824784 2.988913,2.618435 4.658377,-0.613955 0.434541,-0.841352 1.396661,-2.381364 2.138044,-3.422249 0.741384,-1.040885 1.556845,-2.276289 1.812135,-2.745341 0.25529,-0.469052 0.658069,-1.030885 0.895065,-1.248519 l 0.4309,-0.395696 -0.116152,1.178567 c -0.142766,1.448624 -0.459006,2.857748 -1.230446,5.48272 -1.667645,5.674475 -3.650015,9.266022 -9.596863,17.387063 -2.615674,3.571975 -3.327439,4.339813 -4.556228,4.915165 l -0.895088,0.419102 -0.358755,-0.358755 c -0.353734,-0.353732 -0.354416,-0.370114 -0.04878,-1.17042 0.4089,-1.070689 0.232855,-1.910708 -1.012876,-4.833088 -2.107801,-4.944714 -2.608593,-6.421932 -2.607396,-7.691195 0.001,-1.086543 0.03856,-1.207241 0.481279,-1.547589 1.484645,-1.141341 1.586768,-1.305706 2.7401,-4.410062 1.824497,-4.910897 2.000566,-6.141033 1.027898,-7.181604 -0.813889,-0.870707 -2.502714,-1.314637 -5.033031,-1.323 -2.129128,-0.007 -2.166205,-4.81e-4 -2.745199,0.485705 -0.545956,0.45844 -0.659353,0.485572 -1.624717,0.388743 -0.952616,-0.09555 -1.121673,-0.05741 -2.059735,0.464659 -1.48085,0.824157 -1.692972,1.182156 -1.773356,2.992887 -0.184447,4.154854 -0.155525,4.486539 0.528319,6.058887 0.348376,0.801015 0.633411,1.598238 0.633411,1.771606 0,0.173368 -0.477555,0.756063 -1.061233,1.294877 -1.415144,1.306371 -2.369577,2.811535 -4.003481,6.313587 -1.649699,3.535908 -1.83077,4.497701 -0.99605,5.290708 0.278299,0.264392 0.789525,0.525575 1.140077,0.582463 0.585798,0.09506 0.694377,0.04172 1.387408,-0.681565 0.489175,-0.510533 1.102593,-1.51119 1.755678,-2.864007 0.694663,-1.438941 1.083242,-2.063448 1.261738,-2.027804 0.160786,0.03211 0.241993,0.211394 0.215615,0.476025 -0.02327,0.233484 -0.09036,0.888955 -0.149086,1.456602 -0.07847,0.758527 -0.03307,1.208466 0.171282,1.697553 0.37956,0.908414 0.350735,1.261242 -0.151834,1.858512 -0.357627,0.425016 -0.429886,0.690518 -0.429886,1.579553 0,1.35443 0.464917,5.028705 0.716267,5.660728 0.398625,1.002347 1.195997,1.008397 1.953824,0.01484 l 0.465219,-0.609934 0.508316,0.616676 c 0.585944,0.710855 0.839345,0.753875 1.532621,0.260225 0.288908,-0.20573 0.900024,-0.397684 1.445168,-0.453947 1.071265,-0.110565 1.087896,-0.08303 0.753031,1.246837 -0.165108,0.6557 -0.145293,0.85418 0.143557,1.43799 l 0.335101,0.6773 -1.311887,0.61563 c -1.42298,0.66777 -1.79445,0.70324 -4.391788,0.41935 z"
     id="path3363"
     inkscape:connector-curvature="0" />
  <path
     style="fill:#f2f2f2"
     d="m 40.649605,67.77275 c -0.289391,-0.324667 -1.439264,-4.067046 -2.959779,-9.632906 -0.953435,-3.49006 -1.083465,-4.166426 -0.800986,-4.166426 0.08317,0 0.707979,0.697241 1.388468,1.549424 2.547571,3.190349 5.944495,5.69346 9.924528,7.313144 1.024235,0.416816 1.886259,0.870725 1.915609,1.008689 0.07125,0.334919 -0.275662,0.502473 -2.905049,1.403108 -2.344566,0.803076 -4.137388,1.634812 -5.134607,2.382078 -0.694553,0.520463 -1.059122,0.556938 -1.428184,0.142889 z"
     id="path3365"
     inkscape:connector-curvature="0" />
  <path
     style="fill:#f2f2f2"
     d="m 73.115596,69.930787 c -0.678907,-0.792118 -1.511542,-2.010499 -2.17724,-3.185919 -0.320089,-0.56518 -0.370293,-0.793172 -0.225591,-1.024478 0.163817,-0.261859 2.143111,-1.150469 5.7463,-2.579817 0.910336,-0.361121 1.360156,-0.694345 2.424517,-1.796068 0.718748,-0.743978 1.395818,-1.352687 1.5046,-1.352687 0.376881,0 0.189776,0.779615 -0.483528,2.014728 -1.661274,3.047449 -5.400496,8.518289 -5.886007,8.61179 -0.148123,0.02853 -0.554496,-0.280871 -0.903051,-0.687549 z"
     id="path3367"
     inkscape:connector-curvature="0" />
  <path
     style="fill:#f2f2f2"
     d="m 56.833708,84.290616 c -0.589547,-0.12734 -1.246929,-0.364544 -1.626078,-0.58674 -0.229733,-0.134633 -0.254995,-0.170893 -0.220454,-0.316418 0.05832,-0.2457 0.186337,-0.361151 0.52531,-0.473739 0.70282,-0.23344 1.37845,-0.04372 1.896576,0.532557 0.323076,0.359338 0.390919,0.55579 0.267894,0.775726 -0.11064,0.197795 -0.208363,0.205746 -0.843248,0.06861 z"
     id="path3371"
     inkscape:connector-curvature="0" />
  <path
     style="fill:#f2f2f2"
     d="m 60.338785,99.092039 c 0.04565,-0.520714 0.09586,-0.682805 0.251466,-0.81195 0.145745,-0.120958 0.466698,0.03193 0.566014,0.269628 0.137804,0.329811 0.109362,0.545404 -0.09075,0.687895 -0.137274,0.09775 -0.69581,0.369743 -0.759259,0.369743 -0.007,0 0.0077,-0.231892 0.03253,-0.515316 z"
     id="path3373"
     inkscape:connector-curvature="0" />
  <path
     style="fill:#f2f2f2"
     d="m 36.029797,53.10872 c -0.683816,-0.620978 -1.125879,-0.898832 -1.719881,-1.081013 -0.610119,-0.187124 -0.910412,-0.386764 -1.082676,-0.719784 -0.119985,-0.231953 -0.136996,-0.389182 -0.17901,-1.654594 -0.02553,-0.769057 -0.07514,-1.781295 -0.110243,-2.249416 -0.0351,-0.468122 -0.06406,-1.145226 -0.06435,-1.504677 l -5.33e-4,-0.653546 0.173899,0 c 0.09565,0 0.301255,0.01746 0.456911,0.03879 0.222683,0.03052 0.288577,0.06616 0.309122,0.167186 0.01436,0.07062 0.07104,0.415652 0.12596,0.766743 0.138309,0.88422 0.509543,2.311334 0.84608,3.252533 0.155426,0.434685 0.571931,1.377342 0.925565,2.094793 0.582336,1.18144 0.904796,1.934504 0.85127,1.988031 -0.011,0.011 -0.250454,-0.189269 -0.532114,-0.445047 z"
     id="path3377"
     inkscape:connector-curvature="0" />
</svg>
